<?xml version="1.0" encoding="UTF-8"?>
<svg width="78px" height="100px" viewBox="0 0 78 100" version="1.1" xmlns="http://www.w3.org/2000/svg" xmlns:xlink="http://www.w3.org/1999/xlink">
    <!-- Generator: Sketch 57.1 (83088) - https://sketch.com -->
    <title>html</title>
    <desc>Created with Sketch.</desc>
    <g id="文件类型" stroke="none" stroke-width="1" fill="none" fill-rule="evenodd">
        <g id="html" transform="translate(-11.000000, 0.000000)" fill-rule="nonzero">
            <g transform="translate(11.000000, 0.000000)">
                <path d="M54.9279545,0 L3.47986364,0 C2.0475,0 0.886363636,1.16964286 0.886363636,3.43928571 L0.886363636,98.2142857 C0.886363636,98.8303571 2.0475,100 3.47986364,100 L74.5201364,100 C75.9525,100 77.1136364,98.8303571 77.1136364,98.2142857 L77.1136364,23.175 C77.1136364,21.9321429 76.9487727,21.5321429 76.6580455,21.2375 L56.0305909,0.458928571 C55.7380909,0.166071429 55.341,0 54.9279545,0 Z" id="路径" fill="#E9E9E0"></path>
                <polygon id="路径" fill="#D9D7CA" points="55.8409091 0.269642857 55.8409091 21.4285714 76.8459545 21.4285714"></polygon>
                <path d="M74.5201364,100 L3.47986364,100 C2.0475,100 0.886363636,98.8303571 0.886363636,97.3875 L0.886363636,69.6428571 L77.1136364,69.6428571 L77.1136364,97.3875 C77.1136364,98.8303571 75.9525,100 74.5201364,100 Z" id="路径" fill="#EC6630"></path>
                <g id="编组" transform="translate(5.318182, 75.000000)" fill="#FFFFFF">
                    <polygon id="路径" points="14.9884091 1.65 14.9884091 19.6428571 12.0793636 19.6428571 12.0793636 11.5375 4.3485 11.5375 4.3485 19.6428571 1.39159091 19.6428571 1.39159091 1.65 4.3485 1.65 4.3485 9.53571429 12.0793636 9.53571429 12.0793636 1.65 14.9884091 1.65"></polygon>
                    <polygon id="路径" points="32.0987727 1.65 32.0987727 3.65178571 26.7681818 3.65178571 26.7681818 19.6428571 23.8360909 19.6428571 23.8360909 3.65178571 18.5037273 3.65178571 18.5037273 1.65"></polygon>
                    <polygon id="路径" points="49.1134091 1.65 52.0703182 1.65 52.0703182 19.6428571 49.1134091 19.6428571 49.1134091 7.26428571 45.1141364 17.2732143 42.5454545 17.2732143 38.5213636 7.26428571 38.5213636 19.6428571 35.5644545 19.6428571 35.5644545 1.65 38.5213636 1.65 43.8289091 13.9553571"></polygon>
                    <polygon id="路径" points="59.5104545 1.65 59.5104545 17.4214286 67.7270455 17.4214286 67.7270455 19.6428571 56.5535455 19.6428571 56.5535455 1.65"></polygon>
                </g>
                <g id="编组" transform="translate(15.954545, 28.571429)" fill="#EC6630">
                    <path d="M14.5487727,0.523214286 C13.8556364,-0.175 12.7352727,-0.175 12.0421364,0.523214286 L1.40577273,11.2375 C0.712636364,11.9357143 0.712636364,13.0642857 1.40577273,13.7625 L12.0421364,24.4767857 C12.3878182,24.825 12.8416364,25 13.2954545,25 C13.7492727,25 14.2030909,24.825 14.5487727,24.4767857 C15.2419091,23.7785714 15.2419091,22.65 14.5487727,21.9517857 L5.16572727,12.5 L14.5487727,3.04821429 C15.2419091,2.35 15.2419091,1.22142857 14.5487727,0.523214286 Z" id="路径"></path>
                    <path d="M46.4578636,11.2375 L35.8215,0.523214286 C35.1283636,-0.175 34.008,-0.175 33.3148636,0.523214286 C32.6217273,1.22142857 32.6217273,2.35 33.3148636,3.04821429 L42.6979091,12.5 L33.3148636,21.9517857 C32.6217273,22.65 32.6217273,23.7785714 33.3148636,24.4767857 C33.6605455,24.825 34.1143636,25 34.5681818,25 C35.022,25 35.4758182,24.825 35.8215,24.4767857 L46.4578636,13.7625 C47.151,13.0642857 47.151,11.9357143 46.4578636,11.2375 Z" id="路径"></path>
                </g>
            </g>
        </g>
    </g>
</svg>