<?xml version="1.0" encoding="UTF-8"?>
<svg width="78px" height="100px" viewBox="0 0 78 100" version="1.1" xmlns="http://www.w3.org/2000/svg" xmlns:xlink="http://www.w3.org/1999/xlink">
    <!-- Generator: Sketch 63.1 (92452) - https://sketch.com -->
    <title>java</title>
    <desc>Created with Sketch.</desc>
    <g id="文件类型" stroke="none" stroke-width="1" fill="none" fill-rule="evenodd">
        <g id="java" transform="translate(-11.000000, 0.000000)" fill-rule="nonzero">
            <g transform="translate(11.000000, 0.000000)">
                <path d="M54.9279545,0 L3.47986364,0 C2.0475,0 0.886363636,1.16964286 0.886363636,3.43928571 L0.886363636,98.2142857 C0.886363636,98.8303571 2.0475,100 3.47986364,100 L74.5201364,100 C75.9525,100 77.1136364,98.8303571 77.1136364,98.2142857 L77.1136364,23.175 C77.1136364,21.9321429 76.9487727,21.5321429 76.6580455,21.2375 L56.0305909,0.458928571 C55.7380909,0.166071429 55.341,0 54.9279545,0 Z" id="路径" fill="#E9E9E0"></path>
                <polygon id="路径" fill="#D9D7CA" points="55.8409091 0.269642857 55.8409091 21.4285714 76.8459545 21.4285714"></polygon>
                <path d="M74.5201364,100 L3.47986364,100 C2.0475,100 0.886363636,98.8303571 0.886363636,97.3875 L0.886363636,69.6428571 L77.1136364,69.6428571 L77.1136364,97.3875 C77.1136364,98.8303571 75.9525,100 74.5201364,100 Z" id="路径" fill="#4480A3"></path>
                <path d="M10.844,97.706 C14.198,97.706 15.758,95.73 15.758,92.584 L15.758,74.956 L13.418,74.956 L13.418,92.35 C13.418,94.326 12.664,95.652 10.766,95.652 C9.908,95.652 9.44,95.548 9.024,95.47 L9.024,97.55 C9.518,97.654 10.324,97.706 10.844,97.706 Z M20.724,93 L22.7,87.618 L30.682,87.618 L32.632,93 L35.102,93 L28.29,74.956 L25.17,74.956 L18.332,93 L20.724,93 Z M29.928,85.538 L23.48,85.538 L26.574,77.14 L26.886,77.14 L29.928,85.538 Z M44.826,93 L51.04,74.956 L48.674,74.956 L43.526,90.53 L43.37,90.53 L38.3,74.956 L35.804,74.956 L41.914,93 L44.826,93 Z M54.108,93 L56.084,87.618 L64.066,87.618 L66.016,93 L68.486,93 L61.674,74.956 L58.554,74.956 L51.716,93 L54.108,93 Z M63.312,85.538 L56.864,85.538 L59.958,77.14 L60.27,77.14 L63.312,85.538 Z" id="JAVA" fill="#FFFFFF"></path>
                <g id="编组" transform="translate(14.181818, 21.428571)" fill="#4480A3">
                    <path d="M9.75,12.5 L9.75,5.35714286 C9.75,4.37321429 10.5441818,3.57142857 11.5227273,3.57142857 C12.5030455,3.57142857 13.2954545,2.77142857 13.2954545,1.78571429 C13.2954545,0.8 12.5030455,0 11.5227273,0 C8.59063636,0 6.20454545,2.40357143 6.20454545,5.35714286 L6.20454545,12.5 C6.20454545,14.4696429 4.61440909,16.0714286 2.65909091,16.0714286 C1.67877273,16.0714286 0.886363636,16.8714286 0.886363636,17.8571429 C0.886363636,18.8428571 1.67877273,19.6428571 2.65909091,19.6428571 C4.61440909,19.6428571 6.20454545,21.2446429 6.20454545,23.2142857 L6.20454545,30.3571429 C6.20454545,33.3107143 8.59063636,35.7142857 11.5227273,35.7142857 C12.5030455,35.7142857 13.2954545,34.9142857 13.2954545,33.9285714 C13.2954545,32.9428571 12.5030455,32.1428571 11.5227273,32.1428571 C10.5441818,32.1428571 9.75,31.3410714 9.75,30.3571429 L9.75,23.2142857 C9.75,21.0714286 8.78918182,19.1678571 7.30009091,17.8571429 C8.78918182,16.5464286 9.75,14.6428571 9.75,12.5 Z" id="路径"></path>
                    <ellipse id="椭圆形" cx="23.9318182" cy="11.6071429" rx="2.65909091" ry="2.67857143"></ellipse>
                    <path d="M45.2045455,16.0714286 C43.2492273,16.0714286 41.6590909,14.4696429 41.6590909,12.5 L41.6590909,5.35714286 C41.6590909,2.40357143 39.273,0 36.3409091,0 C35.3605909,0 34.5681818,0.8 34.5681818,1.78571429 C34.5681818,2.77142857 35.3605909,3.57142857 36.3409091,3.57142857 C37.3194545,3.57142857 38.1136364,4.37321429 38.1136364,5.35714286 L38.1136364,12.5 C38.1136364,14.6428571 39.0744545,16.5464286 40.5635455,17.8571429 C39.0744545,19.1678571 38.1136364,21.0714286 38.1136364,23.2142857 L38.1136364,30.3571429 C38.1136364,31.3410714 37.3194545,32.1428571 36.3409091,32.1428571 C35.3605909,32.1428571 34.5681818,32.9428571 34.5681818,33.9285714 C34.5681818,34.9142857 35.3605909,35.7142857 36.3409091,35.7142857 C39.273,35.7142857 41.6590909,33.3107143 41.6590909,30.3571429 L41.6590909,23.2142857 C41.6590909,21.2446429 43.2492273,19.6428571 45.2045455,19.6428571 C46.1848636,19.6428571 46.9772727,18.8428571 46.9772727,17.8571429 C46.9772727,16.8714286 46.1848636,16.0714286 45.2045455,16.0714286 Z" id="路径"></path>
                    <path d="M23.9318182,21.4285714 C22.9515,21.4285714 22.1590909,22.2285714 22.1590909,23.2142857 L22.1590909,28.5714286 C22.1590909,29.5571429 22.9515,30.3571429 23.9318182,30.3571429 C24.9121364,30.3571429 25.7045455,29.5571429 25.7045455,28.5714286 L25.7045455,23.2142857 C25.7045455,22.2285714 24.9121364,21.4285714 23.9318182,21.4285714 Z" id="路径"></path>
                </g>
            </g>
        </g>
    </g>
</svg>