<?xml version="1.0" encoding="UTF-8"?>
<svg width="78px" height="100px" viewBox="0 0 78 100" version="1.1" xmlns="http://www.w3.org/2000/svg" xmlns:xlink="http://www.w3.org/1999/xlink">
    <!-- Generator: Sketch 57.1 (83088) - https://sketch.com -->
    <title>json-file</title>
    <desc>Created with Sketch.</desc>
    <g id="文件类型" stroke="none" stroke-width="1" fill="none" fill-rule="evenodd">
        <g id="json-file" transform="translate(-11.000000, 0.000000)" fill-rule="nonzero">
            <g transform="translate(11.000000, 0.000000)">
                <path d="M54.9279545,0 L3.47986364,0 C2.0475,0 0.886363636,1.16964286 0.886363636,3.43928571 L0.886363636,98.2142857 C0.886363636,98.8303571 2.0475,100 3.47986364,100 L74.5201364,100 C75.9525,100 77.1136364,98.8303571 77.1136364,98.2142857 L77.1136364,23.175 C77.1136364,21.9321429 76.9487727,21.5321429 76.6580455,21.2375 L56.0305909,0.458928571 C55.7380909,0.166071429 55.341,0 54.9279545,0 Z" id="路径" fill="#E9E9E0"></path>
                <polygon id="路径" fill="#D9D7CA" points="55.8409091 0.269642857 55.8409091 21.4285714 76.8459545 21.4285714"></polygon>
                <path d="M74.5201364,100 L3.47986364,100 C2.0475,100 0.886363636,98.8303571 0.886363636,97.3875 L0.886363636,69.6428571 L77.1136364,69.6428571 L77.1136364,97.3875 C77.1136364,98.8303571 75.9525,100 74.5201364,100 Z" id="路径" fill="#9777A8"></path>
                <g id="编组" transform="translate(7.090909, 75.000000)" fill="#FFFFFF">
                    <path d="M12.4463182,1.28392857 L12.4463182,15.2982143 C12.4463182,16.1446429 12.2920909,16.8571429 11.9854091,17.4339286 C11.6787273,18.0107143 11.2674545,18.475 10.7498182,18.825 C10.2321818,19.175 9.63831818,19.4196429 8.96822727,19.5571429 C8.29813636,19.6946429 7.60677273,19.7642857 6.89590909,19.7642857 C6.54136364,19.7642857 6.123,19.7267857 5.64790909,19.6535714 C5.17281818,19.5803571 4.67822727,19.4678571 4.16945455,19.3125 C3.66068182,19.1571429 3.17140909,18.9821429 2.70340909,18.7875 C2.23540909,18.5928571 1.84009091,18.3732143 1.51568182,18.1285714 L2.75127273,16.1517857 C2.91259091,16.2642857 3.14304545,16.3839286 3.44263636,16.5053571 C3.74222727,16.6267857 4.07018182,16.7410714 4.42472727,16.8464286 C4.77927273,16.9517857 5.15154545,17.0446429 5.53977273,17.1267857 C5.928,17.2089286 6.29140909,17.2482143 6.63,17.2482143 C7.48622727,17.2482143 8.16872727,17.0803571 8.6775,16.7482143 C9.18627273,16.4160714 9.45572727,15.8482143 9.48940909,15.0517857 L9.48940909,1.28214286 L12.4463182,1.28214286 L12.4463182,1.28392857 Z" id="路径"></path>
                    <path d="M26.9170909,14.7107143 C26.9170909,15.3607143 26.7841364,15.9928571 26.5164545,16.6035714 C26.2487727,17.2142857 25.8747273,17.7517857 25.389,18.2142857 C24.9032727,18.6767857 24.3076364,19.0482143 23.595,19.325 C22.8823636,19.6017857 22.0775455,19.7392857 21.1716818,19.7392857 C20.7834545,19.7392857 20.3845909,19.7178571 19.9715455,19.6785714 C19.5585,19.6392857 19.1436818,19.5678571 18.7235455,19.4714286 C18.3034091,19.3732143 17.9027727,19.2392857 17.5234091,19.0678571 C17.1440455,18.8964286 16.8178636,18.6892857 16.5413182,18.4446429 L17.0500909,16.3446429 C17.277,16.475 17.5624091,16.6017857 17.9098636,16.7232143 C18.2573182,16.8446429 18.6154091,16.9589286 18.9876818,17.0642857 C19.3599545,17.1696429 19.7304545,17.2553571 20.1027273,17.3214286 C20.475,17.3875 20.8206818,17.4196429 21.1450909,17.4196429 C22.1307273,17.4196429 22.8859091,17.1875 23.4106364,16.7232143 C23.9353636,16.2589286 24.1977273,15.5714286 24.1977273,14.6607143 C24.1977273,14.1071429 24.0133636,13.6357143 23.6410909,13.2446429 C23.2688182,12.8535714 22.8043636,12.5 22.2477273,12.1821429 C21.6910909,11.8642857 21.0883636,11.5482143 20.4413182,11.2303571 C19.7942727,10.9125 19.1897727,10.5375 18.6242727,10.1071429 C18.0587727,9.67678571 17.5907727,9.16785714 17.2185,8.58214286 C16.8462273,7.99642857 16.6618636,7.26428571 16.6618636,6.38571429 C16.6618636,5.58928571 16.8072273,4.88035714 17.0979545,4.2625 C17.3886818,3.64464286 17.7804545,3.11785714 18.2732727,2.6875 C18.7660909,2.25714286 19.3404545,1.92678571 19.9945909,1.69821429 C20.6487273,1.46964286 21.3400909,1.35714286 22.0669091,1.35714286 C22.8096818,1.35714286 23.5613182,1.42678571 24.3200455,1.56428571 C25.0787727,1.70178571 25.6921364,1.92678571 26.1619091,2.23571429 C26.0644091,2.44642857 25.9527273,2.67857143 25.8233182,2.93214286 C25.6939091,3.18571429 25.5715909,3.41964286 25.4599091,3.63928571 C25.3482273,3.85892857 25.2507273,4.04285714 25.1691818,4.18928571 C25.0876364,4.33571429 25.0397727,4.41785714 25.0238182,4.43392857 C24.9263182,4.38571429 24.8181818,4.32142857 24.6958636,4.23928571 C24.5735455,4.15714286 24.4015909,4.07678571 24.1746818,3.99464286 C23.9477727,3.9125 23.6499545,3.85714286 23.2776818,3.82321429 C22.9054091,3.78928571 22.4285455,3.79821429 21.8470909,3.84821429 C21.5226818,3.88214286 21.2177727,3.97321429 20.9252727,4.12857143 C20.6327727,4.28392857 20.3757273,4.47321429 20.1488182,4.70178571 C19.9219091,4.93035714 19.7446364,5.18571429 19.6152273,5.47142857 C19.4858182,5.75714286 19.422,6.03035714 19.422,6.28928571 C19.422,6.93928571 19.6063636,7.46428571 19.9786364,7.86428571 C20.3509091,8.26428571 20.8118182,8.6125 21.3595909,8.91428571 C21.9073636,9.21607143 22.5065455,9.50892857 23.1535909,9.79285714 C23.8006364,10.0767857 24.4015909,10.425 24.96,10.8303571 C25.5184091,11.2357143 25.9810909,11.7464286 26.3533636,12.3553571 C26.7256364,12.9642857 26.9170909,13.75 26.9170909,14.7107143 Z" id="路径"></path>
                    <path d="M44.4635455,10.5607143 C44.4635455,12.075 44.2738636,13.4089286 43.8945,14.5642857 C43.5151364,15.7196429 42.9886364,16.6803571 42.3185455,17.4446429 C41.6484545,18.2089286 40.8649091,18.7875 39.9679091,19.1785714 C39.0709091,19.5696429 38.0888182,19.7642857 37.0234091,19.7642857 C35.958,19.7642857 34.9759091,19.5696429 34.0789091,19.1785714 C33.1819091,18.7875 32.3983636,18.2107143 31.7282727,17.4446429 C31.0581818,16.6785714 30.5316818,15.7196429 30.1523182,14.5642857 C29.7729545,13.4089286 29.5832727,12.0732143 29.5832727,10.5607143 C29.5832727,9.04821429 29.7729545,7.71607143 30.1523182,6.56964286 C30.5316818,5.42321429 31.0581818,4.46607143 31.7282727,3.70178571 C32.3983636,2.9375 33.1819091,2.35535714 34.0789091,1.95535714 C34.9759091,1.55535714 35.958,1.35714286 37.0234091,1.35714286 C38.0888182,1.35714286 39.0709091,1.55535714 39.9679091,1.95535714 C40.8649091,2.35535714 41.6484545,2.93571429 42.3185455,3.70178571 C42.9886364,4.46785714 43.5151364,5.42321429 43.8945,6.56964286 C44.2738636,7.71607143 44.4635455,9.04642857 44.4635455,10.5607143 Z M36.9507273,17.3732143 C37.5481364,17.3732143 38.1171818,17.2553571 38.6596364,17.0196429 C39.2020909,16.7839286 39.6860455,16.3964286 40.1132727,15.8607143 C40.5405,15.325 40.8773182,14.6196429 41.1184091,13.7482143 C41.3595,12.8767857 41.4906818,11.8160714 41.5066364,10.5625 C41.4906818,9.34107143 41.3648182,8.30357143 41.1308182,7.45 C40.8968182,6.59642857 40.5741818,5.89107143 40.1611364,5.3375 C39.7480909,4.78392857 39.2800909,4.38571429 38.7553636,4.14107143 C38.2306364,3.89642857 37.6775455,3.775 37.0943182,3.775 C36.4969091,3.775 35.9278636,3.8875 35.3854091,4.11607143 C34.8429545,4.34464286 34.359,4.73035714 33.9317727,5.275 C33.5045455,5.81964286 33.1677273,6.52321429 32.9266364,7.3875 C32.6837727,8.25 32.5543636,9.30714286 32.5384091,10.5607143 C32.5543636,11.7821429 32.6802273,12.8232143 32.9142273,13.6857143 C33.1482273,14.5482143 33.4708636,15.2517857 33.8839091,15.7982143 C34.2969545,16.3446429 34.7649545,16.7410714 35.2896818,16.9946429 C35.8144091,17.2482143 36.3692727,17.3732143 36.9507273,17.3732143 Z" id="形状"></path>
                    <polygon id="路径" points="61.4781818 1.65 61.4781818 19.6428571 58.5212727 19.6428571 51.5172273 7.24107143 51.5172273 19.6428571 48.5603182 19.6428571 48.5603182 1.65 51.5172273 1.65 58.5212727 14.0517857 58.5212727 1.65"></polygon>
                </g>
                <g id="编组" transform="translate(14.181818, 21.428571)" fill="#9777A8">
                    <path d="M9.75,12.5 L9.75,5.35714286 C9.75,4.37321429 10.5441818,3.57142857 11.5227273,3.57142857 C12.5030455,3.57142857 13.2954545,2.77142857 13.2954545,1.78571429 C13.2954545,0.8 12.5030455,0 11.5227273,0 C8.59063636,0 6.20454545,2.40357143 6.20454545,5.35714286 L6.20454545,12.5 C6.20454545,14.4696429 4.61440909,16.0714286 2.65909091,16.0714286 C1.67877273,16.0714286 0.886363636,16.8714286 0.886363636,17.8571429 C0.886363636,18.8428571 1.67877273,19.6428571 2.65909091,19.6428571 C4.61440909,19.6428571 6.20454545,21.2446429 6.20454545,23.2142857 L6.20454545,30.3571429 C6.20454545,33.3107143 8.59063636,35.7142857 11.5227273,35.7142857 C12.5030455,35.7142857 13.2954545,34.9142857 13.2954545,33.9285714 C13.2954545,32.9428571 12.5030455,32.1428571 11.5227273,32.1428571 C10.5441818,32.1428571 9.75,31.3410714 9.75,30.3571429 L9.75,23.2142857 C9.75,21.0714286 8.78918182,19.1678571 7.30009091,17.8571429 C8.78918182,16.5464286 9.75,14.6428571 9.75,12.5 Z" id="路径"></path>
                    <ellipse id="椭圆形" cx="23.9318182" cy="11.6071429" rx="2.65909091" ry="2.67857143"></ellipse>
                    <path d="M45.2045455,16.0714286 C43.2492273,16.0714286 41.6590909,14.4696429 41.6590909,12.5 L41.6590909,5.35714286 C41.6590909,2.40357143 39.273,0 36.3409091,0 C35.3605909,0 34.5681818,0.8 34.5681818,1.78571429 C34.5681818,2.77142857 35.3605909,3.57142857 36.3409091,3.57142857 C37.3194545,3.57142857 38.1136364,4.37321429 38.1136364,5.35714286 L38.1136364,12.5 C38.1136364,14.6428571 39.0744545,16.5464286 40.5635455,17.8571429 C39.0744545,19.1678571 38.1136364,21.0714286 38.1136364,23.2142857 L38.1136364,30.3571429 C38.1136364,31.3410714 37.3194545,32.1428571 36.3409091,32.1428571 C35.3605909,32.1428571 34.5681818,32.9428571 34.5681818,33.9285714 C34.5681818,34.9142857 35.3605909,35.7142857 36.3409091,35.7142857 C39.273,35.7142857 41.6590909,33.3107143 41.6590909,30.3571429 L41.6590909,23.2142857 C41.6590909,21.2446429 43.2492273,19.6428571 45.2045455,19.6428571 C46.1848636,19.6428571 46.9772727,18.8428571 46.9772727,17.8571429 C46.9772727,16.8714286 46.1848636,16.0714286 45.2045455,16.0714286 Z" id="路径"></path>
                    <path d="M23.9318182,21.4285714 C22.9515,21.4285714 22.1590909,22.2285714 22.1590909,23.2142857 L22.1590909,28.5714286 C22.1590909,29.5571429 22.9515,30.3571429 23.9318182,30.3571429 C24.9121364,30.3571429 25.7045455,29.5571429 25.7045455,28.5714286 L25.7045455,23.2142857 C25.7045455,22.2285714 24.9121364,21.4285714 23.9318182,21.4285714 Z" id="路径"></path>
                </g>
            </g>
        </g>
    </g>
</svg>