<?xml version="1.0" encoding="UTF-8"?>
<svg width="78px" height="100px" viewBox="0 0 78 100" version="1.1" xmlns="http://www.w3.org/2000/svg" xmlns:xlink="http://www.w3.org/1999/xlink">
    <!-- Generator: Sketch 63.1 (92452) - https://sketch.com -->
    <title>txt</title>
    <desc>Created with Sketch.</desc>
    <g id="文件类型" stroke="none" stroke-width="1" fill="none" fill-rule="evenodd">
        <g id="sql" transform="translate(-11.000000, 0.000000)" fill-rule="nonzero">
            <g id="txt" transform="translate(11.000000, 0.000000)">
                <path d="M54.9279545,0 L3.47986364,0 C2.0475,0 0.886363636,1.16964286 0.886363636,3.43928571 L0.886363636,98.2142857 C0.886363636,98.8303571 2.0475,100 3.47986364,100 L74.5201364,100 C75.9525,100 77.1136364,98.8303571 77.1136364,98.2142857 L77.1136364,23.175 C77.1136364,21.9321429 76.9487727,21.5321429 76.6580455,21.2375 L56.0305909,0.458928571 C55.7380909,0.166071429 55.341,0 54.9279545,0 Z" id="路径" fill="#E9E9E0"></path>
                <polygon id="路径" fill="#D9D7CA" points="55.8409091 0.269642857 55.8409091 21.4285714 76.8459545 21.4285714"></polygon>
                <path d="M74.5201364,100 L3.47986364,100 C2.0475,100 0.886363636,98.8303571 0.886363636,97.3875 L0.886363636,69.6428571 L77.1136364,69.6428571 L77.1136364,97.3875 C77.1136364,98.8303571 75.9525,100 74.5201364,100 Z" id="路径" fill="#95A5A5"></path>
                <path d="M22.1590909,23.2142857 L11.5227273,23.2142857 C10.5424091,23.2142857 9.75,22.4142857 9.75,21.4285714 C9.75,20.4428571 10.5424091,19.6428571 11.5227273,19.6428571 L22.1590909,19.6428571 C23.1394091,19.6428571 23.9318182,20.4428571 23.9318182,21.4285714 C23.9318182,22.4142857 23.1394091,23.2142857 22.1590909,23.2142857 Z" id="路径" fill="#C8BDB8"></path>
                <path d="M27.4772727,32.1428571 L11.5227273,32.1428571 C10.5424091,32.1428571 9.75,31.3428571 9.75,30.3571429 C9.75,29.3714286 10.5424091,28.5714286 11.5227273,28.5714286 L27.4772727,28.5714286 C28.4575909,28.5714286 29.25,29.3714286 29.25,30.3571429 C29.25,31.3428571 28.4575909,32.1428571 27.4772727,32.1428571 Z" id="路径" fill="#C8BDB8"></path>
                <path d="M34.5681818,32.1428571 C34.1072727,32.1428571 33.6445909,31.9464286 33.3095455,31.625 C32.9886818,31.2857143 32.7954545,30.8392857 32.7954545,30.3571429 C32.7954545,29.875 32.9886818,29.4285714 33.3272727,29.0892857 C33.9654545,28.4285714 35.1709091,28.4285714 35.8268182,29.0892857 C36.1459091,29.4285714 36.3409091,29.8928571 36.3409091,30.3571429 C36.3409091,30.8214286 36.1459091,31.2857143 35.8268182,31.625 C35.49,31.9464286 35.0290909,32.1428571 34.5681818,32.1428571 Z" id="路径" fill="#C8BDB8"></path>
                <path d="M55.8409091,32.1428571 L41.6590909,32.1428571 C40.6787727,32.1428571 39.8863636,31.3428571 39.8863636,30.3571429 C39.8863636,29.3714286 40.6787727,28.5714286 41.6590909,28.5714286 L55.8409091,28.5714286 C56.8212273,28.5714286 57.6136364,29.3714286 57.6136364,30.3571429 C57.6136364,31.3428571 56.8212273,32.1428571 55.8409091,32.1428571 Z" id="路径" fill="#C8BDB8"></path>
                <path d="M11.5227273,58.9285714 C11.0618182,58.9285714 10.5991364,58.7321429 10.2640909,58.4107143 C9.94322727,58.0714286 9.75,57.6071429 9.75,57.1428571 C9.75,56.6785714 9.94322727,56.2142857 10.2640909,55.875 C10.92,55.2142857 12.1254545,55.2142857 12.7813636,55.8928571 C13.1004545,56.2142857 13.2954545,56.6785714 13.2954545,57.1428571 C13.2954545,57.6071429 13.1004545,58.0714286 12.7813636,58.4107143 C12.4445455,58.7321429 11.9836364,58.9285714 11.5227273,58.9285714 Z" id="路径" fill="#C8BDB8"></path>
                <path d="M32.7954545,58.9285714 L18.6136364,58.9285714 C17.6333182,58.9285714 16.8409091,58.1285714 16.8409091,57.1428571 C16.8409091,56.1571429 17.6333182,55.3571429 18.6136364,55.3571429 L32.7954545,55.3571429 C33.7757727,55.3571429 34.5681818,56.1571429 34.5681818,57.1428571 C34.5681818,58.1285714 33.7757727,58.9285714 32.7954545,58.9285714 Z" id="路径" fill="#C8BDB8"></path>
                <path d="M66.4772727,32.1428571 L62.9318182,32.1428571 C61.9515,32.1428571 61.1590909,31.3428571 61.1590909,30.3571429 C61.1590909,29.3714286 61.9515,28.5714286 62.9318182,28.5714286 L66.4772727,28.5714286 C67.4575909,28.5714286 68.25,29.3714286 68.25,30.3571429 C68.25,31.3428571 67.4575909,32.1428571 66.4772727,32.1428571 Z" id="路径" fill="#C8BDB8"></path>
                <path d="M50.5227273,41.0714286 L11.5227273,41.0714286 C10.5424091,41.0714286 9.75,40.2714286 9.75,39.2857143 C9.75,38.3 10.5424091,37.5 11.5227273,37.5 L50.5227273,37.5 C51.5030455,37.5 52.2954545,38.3 52.2954545,39.2857143 C52.2954545,40.2714286 51.5030455,41.0714286 50.5227273,41.0714286 Z" id="路径" fill="#C8BDB8"></path>
                <path d="M66.4772727,41.0714286 L55.8409091,41.0714286 C54.8605909,41.0714286 54.0681818,40.2714286 54.0681818,39.2857143 C54.0681818,38.3 54.8605909,37.5 55.8409091,37.5 L66.4772727,37.5 C67.4575909,37.5 68.25,38.3 68.25,39.2857143 C68.25,40.2714286 67.4575909,41.0714286 66.4772727,41.0714286 Z" id="路径" fill="#C8BDB8"></path>
                <path d="M18.6136364,50 L11.5227273,50 C10.5424091,50 9.75,49.2 9.75,48.2142857 C9.75,47.2285714 10.5424091,46.4285714 11.5227273,46.4285714 L18.6136364,46.4285714 C19.5939545,46.4285714 20.3863636,47.2285714 20.3863636,48.2142857 C20.3863636,49.2 19.5939545,50 18.6136364,50 Z" id="路径" fill="#C8BDB8"></path>
                <path d="M43.4318182,50 L25.7045455,50 C24.7242273,50 23.9318182,49.2 23.9318182,48.2142857 C23.9318182,47.2285714 24.7242273,46.4285714 25.7045455,46.4285714 L43.4318182,46.4285714 C44.4121364,46.4285714 45.2045455,47.2285714 45.2045455,48.2142857 C45.2045455,49.2 44.4121364,50 43.4318182,50 Z" id="路径" fill="#C8BDB8"></path>
                <path d="M66.4772727,50 L50.5227273,50 C49.5424091,50 48.75,49.2 48.75,48.2142857 C48.75,47.2285714 49.5424091,46.4285714 50.5227273,46.4285714 L66.4772727,46.4285714 C67.4575909,46.4285714 68.25,47.2285714 68.25,48.2142857 C68.25,49.2 67.4575909,50 66.4772727,50 Z" id="路径" fill="#C8BDB8"></path>
                <path d="M21.356,93.59 C25.516,93.59 27.752,91.978 27.752,88.468 C27.752,84.932 26.296,83.866 22.266,82.93 C19.016,82.176 18.574,81.578 18.574,79.888 C18.574,77.548 19.77,77.054 22.292,77.054 C23.93,77.054 25.75,77.392 26.79,77.782 L26.79,75.65 C25.932,75.312 24.008,75 22.266,75 C18.184,75 16.26,76.612 16.26,79.888 C16.26,83.086 17.612,83.996 21.304,84.88 C24.684,85.686 25.464,86.284 25.464,88.494 C25.464,90.73 24.06,91.536 21.356,91.536 C19.224,91.536 17.066,91.12 16,90.73 L16,92.888 C16.884,93.2 19.12,93.59 21.356,93.59 Z M44.314,97.1 L41.324,93.382 C44.834,92.732 46.654,90.34 46.654,84.308 C46.654,77.054 44.002,75.026 38.88,75.026 C33.784,75.026 31.106,77.054 31.106,84.308 C31.106,91.588 33.784,93.59 38.88,93.59 L39.01,93.59 L41.532,97.1 L44.314,97.1 Z M38.88,91.588 C34.486,91.588 33.55,89.456 33.55,84.308 C33.55,79.316 34.486,77.002 38.88,77.002 C43.3,77.002 44.236,79.316 44.236,84.308 C44.236,89.456 43.3,91.588 38.88,91.588 Z M61.11,93.33 L61.11,91.224 L53.284,91.224 L53.284,75.286 L50.944,75.286 L50.944,93.33 L61.11,93.33 Z" id="SQL" fill="#FFFFFF"></path>
            </g>
        </g>
    </g>
</svg>