<?xml version="1.0" encoding="UTF-8"?>
<svg width="78px" height="100px" viewBox="0 0 78 100" version="1.1" xmlns="http://www.w3.org/2000/svg" xmlns:xlink="http://www.w3.org/1999/xlink">
    <!-- Generator: Sketch 63.1 (92452) - https://sketch.com -->
    <title>html</title>
    <desc>Created with Sketch.</desc>
    <g id="文件类型" stroke="none" stroke-width="1" fill="none" fill-rule="evenodd">
        <g id="html备份" transform="translate(-11.000000, 0.000000)" fill-rule="nonzero">
            <g id="html" transform="translate(11.000000, 0.000000)">
                <path d="M54.9279545,0 L3.47986364,0 C2.0475,0 0.886363636,1.16964286 0.886363636,3.43928571 L0.886363636,98.2142857 C0.886363636,98.8303571 2.0475,100 3.47986364,100 L74.5201364,100 C75.9525,100 77.1136364,98.8303571 77.1136364,98.2142857 L77.1136364,23.175 C77.1136364,21.9321429 76.9487727,21.5321429 76.6580455,21.2375 L56.0305909,0.458928571 C55.7380909,0.166071429 55.341,0 54.9279545,0 Z" id="路径" fill="#E9E9E0"></path>
                <polygon id="路径" fill="#D9D7CA" points="55.8409091 0.269642857 55.8409091 21.4285714 76.8459545 21.4285714"></polygon>
                <path d="M74.5201364,100 L3.47986364,100 C2.0475,100 0.886363636,98.8303571 0.886363636,97.3875 L0.886363636,69.6428571 L77.1136364,69.6428571 L77.1136364,97.3875 C77.1136364,98.8303571 75.9525,100 74.5201364,100 Z" id="路径" fill="#57C5CE"></path>
                <path d="M30.786,94.304 C35.336,94.304 37.624,92.484 37.624,88.22 L37.624,76 L35.31,76 L35.31,87.7 C35.31,91.132 34.296,92.25 30.812,92.25 C27.484,92.25 26.314,91.132 26.314,87.7 L26.314,76 L24,76 L24,88.22 C24,92.614 26.262,94.304 30.786,94.304 Z M50.088,93.156 L50.088,86.788 L56.456,86.788 L56.456,84.068 L50.088,84.068 L50.088,77.732 L47.368,77.732 L47.368,84.068 L41.032,84.068 L41.032,86.788 L47.368,86.788 L47.368,93.156 L50.088,93.156 Z" id="U+" fill="#FFFFFF"></path>
                <g id="编组" transform="translate(15.954545, 28.571429)" fill="#57C5CE">
                    <path d="M14.5487727,0.523214286 C13.8556364,-0.175 12.7352727,-0.175 12.0421364,0.523214286 L1.40577273,11.2375 C0.712636364,11.9357143 0.712636364,13.0642857 1.40577273,13.7625 L12.0421364,24.4767857 C12.3878182,24.825 12.8416364,25 13.2954545,25 C13.7492727,25 14.2030909,24.825 14.5487727,24.4767857 C15.2419091,23.7785714 15.2419091,22.65 14.5487727,21.9517857 L5.16572727,12.5 L14.5487727,3.04821429 C15.2419091,2.35 15.2419091,1.22142857 14.5487727,0.523214286 Z" id="路径"></path>
                    <path d="M46.4578636,11.2375 L35.8215,0.523214286 C35.1283636,-0.175 34.008,-0.175 33.3148636,0.523214286 C32.6217273,1.22142857 32.6217273,2.35 33.3148636,3.04821429 L42.6979091,12.5 L33.3148636,21.9517857 C32.6217273,22.65 32.6217273,23.7785714 33.3148636,24.4767857 C33.6605455,24.825 34.1143636,25 34.5681818,25 C35.022,25 35.4758182,24.825 35.8215,24.4767857 L46.4578636,13.7625 C47.151,13.0642857 47.151,11.9357143 46.4578636,11.2375 Z" id="路径"></path>
                </g>
            </g>
        </g>
    </g>
</svg>