<?xml version="1.0" encoding="UTF-8"?>
<svg width="78px" height="100px" viewBox="0 0 78 100" version="1.1" xmlns="http://www.w3.org/2000/svg" xmlns:xlink="http://www.w3.org/1999/xlink">
    <!-- Generator: Sketch 57.1 (83088) - https://sketch.com -->
    <title>xml</title>
    <desc>Created with Sketch.</desc>
    <g id="文件类型" stroke="none" stroke-width="1" fill="none" fill-rule="evenodd">
        <g id="xml" transform="translate(-11.000000, 0.000000)" fill-rule="nonzero">
            <g transform="translate(11.000000, 0.000000)">
                <path d="M54.9279545,0 L3.47986364,0 C2.0475,0 0.886363636,1.16964286 0.886363636,3.43928571 L0.886363636,98.2142857 C0.886363636,98.8303571 2.0475,100 3.47986364,100 L74.5201364,100 C75.9525,100 77.1136364,98.8303571 77.1136364,98.2142857 L77.1136364,23.175 C77.1136364,21.9321429 76.9487727,21.5321429 76.6580455,21.2375 L56.0305909,0.458928571 C55.7380909,0.166071429 55.341,0 54.9279545,0 Z" id="路径" fill="#E9E9E0"></path>
                <polygon id="路径" fill="#D9D7CA" points="55.8409091 0.269642857 55.8409091 21.4285714 76.8459545 21.4285714"></polygon>
                <path d="M74.5201364,100 L3.47986364,100 C2.0475,100 0.886363636,98.8303571 0.886363636,97.3875 L0.886363636,69.6428571 L77.1136364,69.6428571 L77.1136364,97.3875 C77.1136364,98.8303571 75.9525,100 74.5201364,100 Z" id="路径" fill="#F29C1F"></path>
                <g id="编组" transform="translate(14.181818, 75.000000)" fill="#FFFFFF">
                    <polygon id="路径" points="9.5355 10.9017857 14.0683636 19.6428571 10.7001818 19.6428571 7.86381818 12.8553571 7.62095455 12.8553571 4.56654545 19.6428571 1.19836364 19.6428571 5.73122727 10.9017857 0.907636364 1.64821429 4.22795455 1.64821429 7.37809091 8.97321429 7.62095455 8.97321429 11.0387727 1.64821429 14.3590909 1.64821429"></polygon>
                    <polygon id="路径" points="31.9055455 1.65 34.8624545 1.65 34.8624545 19.6428571 31.9055455 19.6428571 31.9055455 7.26428571 27.9062727 17.2732143 25.3375909 17.2732143 21.3135 7.26428571 21.3135 19.6428571 18.3565909 19.6428571 18.3565909 1.65 21.3135 1.65 26.6210455 13.9553571"></polygon>
                    <polygon id="路径" points="42.3025909 1.65 42.3025909 17.4214286 50.5191818 17.4214286 50.5191818 19.6428571 39.3456818 19.6428571 39.3456818 1.65"></polygon>
                </g>
                <path d="M16.8409091,42.8571429 C16.3870909,42.8571429 15.9332727,42.6821429 15.5875909,42.3339286 C14.8944545,41.6357143 14.8944545,40.5071429 15.5875909,39.8089286 L26.2239545,29.0946429 C26.9170909,28.3964286 28.0374545,28.3964286 28.7305909,29.0946429 C29.4237273,29.7928571 29.4237273,30.9214286 28.7305909,31.6196429 L18.0942273,42.3339286 C17.7485455,42.6821429 17.2947273,42.8571429 16.8409091,42.8571429 Z" id="路径" fill="#F29C1F"></path>
                <path d="M27.4772727,53.5714286 C27.0234545,53.5714286 26.5696364,53.3964286 26.2239545,53.0482143 L15.5875909,42.3339286 C14.8944545,41.6357143 14.8944545,40.5071429 15.5875909,39.8089286 C16.2807273,39.1107143 17.4010909,39.1107143 18.0942273,39.8089286 L28.7305909,50.5232143 C29.4237273,51.2214286 29.4237273,52.35 28.7305909,53.0482143 C28.3849091,53.3964286 27.9310909,53.5714286 27.4772727,53.5714286 Z" id="路径" fill="#F29C1F"></path>
                <path d="M48.75,53.5714286 C48.2961818,53.5714286 47.8423636,53.3964286 47.4966818,53.0482143 C46.8035455,52.35 46.8035455,51.2214286 47.4966818,50.5232143 L58.1330455,39.8089286 C58.8261818,39.1107143 59.9465455,39.1107143 60.6396818,39.8089286 C61.3328182,40.5071429 61.3328182,41.6357143 60.6396818,42.3339286 L50.0033182,53.0482143 C49.6576364,53.3964286 49.2038182,53.5714286 48.75,53.5714286 Z" id="路径" fill="#F29C1F"></path>
                <path d="M59.3863636,42.8571429 C58.9325455,42.8571429 58.4787273,42.6821429 58.1330455,42.3339286 L47.4966818,31.6196429 C46.8035455,30.9214286 46.8035455,29.7928571 47.4966818,29.0946429 C48.1898182,28.3964286 49.3101818,28.3964286 50.0033182,29.0946429 L60.6396818,39.8089286 C61.3328182,40.5071429 61.3328182,41.6357143 60.6396818,42.3339286 C60.294,42.6821429 59.8401818,42.8571429 59.3863636,42.8571429 Z" id="路径" fill="#F29C1F"></path>
                <path d="M32.7954545,57.1428571 C32.6004545,57.1428571 32.4001364,57.1089286 32.2051364,57.0392857 C31.2815455,56.7107143 30.7975909,55.6910714 31.1237727,54.7607143 L41.7601364,24.4035714 C42.0880909,23.4732143 43.095,22.9839286 44.0221364,23.3142857 C44.9457273,23.6428571 45.4296818,24.6625 45.1035,25.5928571 L34.4671364,55.95 C34.2100909,56.6857143 33.5258182,57.1428571 32.7954545,57.1428571 Z" id="路径" fill="#F29C1F"></path>
            </g>
        </g>
    </g>
</svg>