<?xml version="1.0" encoding="UTF-8"?>
<svg width="60px" height="64px" viewBox="0 0 60 64" version="1.1" xmlns="http://www.w3.org/2000/svg" xmlns:xlink="http://www.w3.org/1999/xlink">
    <!-- Generator: Sketch 63.1 (92452) - https://sketch.com -->
    <title>编组 5</title>
    <desc>Created with Sketch.</desc>
    <defs>
        <path d="M18,0 C27.9411255,0 36,8.0588745 36,18 C36,25.0469142 31.9505015,31.1480173 26.0515994,34.1032145 L20.2888544,22.5777088 C20.095327,22.190654 19.781482,21.876809 19.3944272,21.6832816 C18.4064702,21.1893031 17.2051241,21.5897518 16.7111456,22.5777088 L16.7111456,22.5777088 L10.7581973,34.4839148 C4.42327551,31.6968074 0,25.3649594 0,18 C0,8.0588745 8.0588745,0 18,0 Z" id="path-1"></path>
        <path d="M16.2888544,3.57770876 L27.5527864,26.1055728 C28.0467649,27.0935298 27.6463162,28.2948759 26.6583592,28.7888544 C26.3806483,28.9277098 26.0744222,29 25.763932,29 L3.23606798,29 C2.13149848,29 1.23606798,28.1045695 1.23606798,27 C1.23606798,26.6895098 1.30835816,26.3832837 1.4472136,26.1055728 L12.7111456,3.57770876 C13.2051241,2.58975177 14.4064702,2.18930308 15.3944272,2.68328157 C15.781482,2.87680898 16.095327,3.19065396 16.2888544,3.57770876 Z" id="path-3"></path>
    </defs>
    <g id="首页" stroke="none" stroke-width="1" fill="none" fill-rule="evenodd">
        <g id="TNT-首页" transform="translate(-1081.000000, -888.000000)">
            <g id="02" transform="translate(0.000000, 600.000000)">
                <g id="配套齐全" transform="translate(1021.000000, 230.000000)">
                    <g id="编组-5" transform="translate(60.000000, 58.000000)">
                        <path d="M30,0 C46.5685425,0 60,13.4314575 60,30 C60,41.7448555 53.2508375,51.9133596 43.4193359,56.8386889 L40.7357787,51.4707959 C48.6008119,47.5304739 54,39.3957609 54,30 C54,16.745166 43.254834,6 30,6 C16.745166,6 6,16.745166 6,30 C6,39.7142339 11.7714064,48.0804837 20.0723712,51.8569011 L17.3859177,57.2271381 C7.11956982,52.4628178 0,42.0628412 0,30 C0,13.4314575 13.4314575,0 30,0 Z" id="形状结合" fill="#126BFB" fill-rule="nonzero"></path>
                        <g id="路径-4" transform="translate(12.000000, 12.000000)">
                            <mask id="mask-2" fill="white">
                                <use xlink:href="#path-1"></use>
                            </mask>
                            <use id="形状结合" fill="#3AA1FF" xlink:href="#path-1"></use>
                        </g>
                        <g id="矩形" transform="translate(16.000000, 35.000000)">
                            <mask id="mask-4" fill="white">
                                <use xlink:href="#path-3"></use>
                            </mask>
                            <use id="蒙版" fill="#FCBE00" xlink:href="#path-3"></use>
                            <rect fill="#FFD92E" mask="url(#mask-4)" x="-4" y="0" width="19" height="29"></rect>
                        </g>
                    </g>
                </g>
            </g>
        </g>
    </g>
</svg>