<?xml version="1.0" encoding="UTF-8"?>
<svg width="59px" height="60px" viewBox="0 0 59 60" version="1.1" xmlns="http://www.w3.org/2000/svg" xmlns:xlink="http://www.w3.org/1999/xlink">
    <!-- Generator: Sketch 63.1 (92452) - https://sketch.com -->
    <title>编组 7</title>
    <desc>Created with Sketch.</desc>
    <defs>
        <path d="M-1.8189894e-12,2.27373675e-13 L20,2.27373675e-13 L20,53.8773228 L10,62 L-1.8189894e-12,53.8773228 L-1.8189894e-12,2.27373675e-13 Z" id="path-1"></path>
    </defs>
    <g id="首页" stroke="none" stroke-width="1" fill="none" fill-rule="evenodd">
        <g id="TNT-首页" transform="translate(-1383.000000, -891.000000)">
            <g id="02" transform="translate(0.000000, 600.000000)">
                <g id="强扩展性" transform="translate(1324.000000, 230.000000)">
                    <g id="编组-7" transform="translate(59.000000, 58.000000)">
                        <g id="编组-6" transform="translate(31.000000, 31.500000) rotate(-135.000000) translate(-31.000000, -31.500000) translate(1.000000, 18.000000)">
                            <rect id="矩形" fill="#FCBE00" x="9" y="4" width="5" height="12"></rect>
                            <rect id="矩形" fill="#FFD92E" x="9" y="4" width="2.5" height="12"></rect>
                            <rect id="矩形" fill="#FCBE00" x="46" y="4" width="5" height="12"></rect>
                            <rect id="矩形" fill="#FFD92E" x="46" y="4" width="2.5" height="12"></rect>
                            <path d="M57.5,2.5 L2.5,2.5 L2.5,20.557377 C2.5,21.5238754 2.89175084,22.3988754 3.52512627,23.0322508 C4.15850169,23.6656262 5.03350169,24.057377 6,24.057377 L54,24.057377 C54.9664983,24.057377 55.8414983,23.6656262 56.4748737,23.0322508 C57.1082492,22.3988754 57.5,21.5238754 57.5,20.557377 L57.5,2.5 Z" id="矩形" stroke="#FCBE00" stroke-width="5"></path>
                        </g>
                        <g id="矩形" transform="translate(29.000000, 35.000000) rotate(-315.000000) translate(-29.000000, -35.000000) translate(19.000000, 4.000000)">
                            <mask id="mask-2" fill="white">
                                <use xlink:href="#path-1"></use>
                            </mask>
                            <use id="蒙版" fill="#126BFB" xlink:href="#path-1"></use>
                            <polygon fill="#128CFB" mask="url(#mask-2)" points="-9.09494702e-13 2.34361142e-13 10 2.34361142e-13 10 62 -9.09494702e-13 53.8773228"></polygon>
                        </g>
                    </g>
                </g>
            </g>
        </g>
    </g>
</svg>