<?xml version="1.0" encoding="UTF-8"?>
<svg width="82px" height="30px" viewBox="0 0 82 30" version="1.1" xmlns="http://www.w3.org/2000/svg" xmlns:xlink="http://www.w3.org/1999/xlink">
    <!-- Generator: Sketch 63.1 (92452) - https://sketch.com -->
    <title>logo-纯色</title>
    <desc>Created with Sketch.</desc>
    <g id="页面-1" stroke="none" stroke-width="1" fill="none" fill-rule="evenodd">
        <g id="TNT-首页" transform="translate(-418.000000, -20.000000)" fill="#FFFFFF">
            <g id="01">
                <g id="导航">
                    <g id="logo-纯色" transform="translate(418.000000, 20.000000)">
                        <polygon id="Fill-1" points="0 6.27425373 27.005597 6.27425373 27.005597 0.00559701493 0 0.00559701493"></polygon>
                        <polygon id="Fill-2" points="10.3686045 29.7774851 16.6372612 29.7774851 16.6372612 12.990694 10.3686045 6.27427612"></polygon>
                        <polygon id="Fill-3" points="54.1292537 6.27425373 81.1348507 6.27425373 81.1348507 0.00559701493 54.1292537 0.00559701493"></polygon>
                        <polygon id="Fill-4" points="64.4977687 29.7774851 70.7664254 29.7774851 70.7664254 12.990694 64.4977687 6.27427612"></polygon>
                        <polygon id="Fill-5" points="26.9986567 29.7814925 33.2673134 29.7814925 33.2673134 0.00537313433 26.9986567 0.00537313433"></polygon>
                        <polygon id="Fill-6" points="48.8619403 29.7817164 55.130597 29.7817164 55.130597 0.00559701493 48.8619403 0.00559701493"></polygon>
                        <polygon id="Fill-7" points="33.2557388 -8.95522388e-05 33.2566343 9.83834328 48.8624552 29.7836418 48.8617836 19.9501343"></polygon>
                    </g>
                </g>
            </g>
        </g>
    </g>
</svg>