<?xml version="1.0" encoding="UTF-8"?>
<svg width="380px" height="252px" viewBox="0 0 380 252" version="1.1" xmlns="http://www.w3.org/2000/svg" xmlns:xlink="http://www.w3.org/1999/xlink">
    <!-- Generator: Sketch 63.1 (92452) - https://sketch.com -->
    <title>编组 13</title>
    <desc>Created with Sketch.</desc>
    <g id="首页" stroke="none" stroke-width="1" fill="none" fill-rule="evenodd">
        <g id="TNT-首页" transform="translate(-1126.000000, -1419.000000)">
            <g id="03" transform="translate(0.000000, 1199.000000)">
                <g id="设计场景" transform="translate(976.000000, 220.000000)">
                    <g id="编组-13" transform="translate(150.000000, 0.000000)">
                        <g id="undraw_mobile_wireframe_euf4" transform="translate(72.000000, 0.000000)">
                            <rect id="矩形" fill="#C5E1FF" fill-rule="nonzero" x="1.2404375" y="1" width="306.25" height="212"></rect>
                            <rect id="矩形" fill="#B7D8FB" fill-rule="nonzero" x="1.2404375" y="213" width="306.25" height="38"></rect>
                            <g id="编组-9" transform="translate(0.500000, 32.500000)" stroke="#FFFFFF" stroke-linecap="square">
                                <line x1="1" y1="0.5" x2="307" y2="0.5" id="直线"></line>
                                <line x1="1" y1="36.3" x2="307" y2="36.3" id="直线"></line>
                                <line x1="1" y1="72.1" x2="307" y2="72.1" id="直线"></line>
                                <line x1="1" y1="107.9" x2="307" y2="107.9" id="直线"></line>
                                <line x1="1" y1="143.7" x2="307" y2="143.7" id="直线"></line>
                            </g>
                            <g id="编组-9" transform="translate(149.683594, 106.238281) rotate(-270.000000) translate(-149.683594, -106.238281) translate(43.683594, -4.261719)" stroke="#FFFFFF" stroke-linecap="square">
                                <line x1="1.10536696" y1="40.6835938" x2="211.418071" y2="40.6835938" id="直线"></line>
                                <line x1="1.10536696" y1="76.6835938" x2="211.418071" y2="76.6835938" id="直线"></line>
                                <line x1="1.10536696" y1="112.683594" x2="211.418071" y2="112.683594" id="直线"></line>
                                <line x1="1.10536696" y1="148.683594" x2="211.418071" y2="148.683594" id="直线"></line>
                                <line x1="1.10536696" y1="184.683594" x2="211.418071" y2="184.683594" id="直线"></line>
                                <line x1="1.10536696" y1="219.683594" x2="211.418071" y2="219.683594" id="直线"></line>
                                <line x1="1.10536696" y1="0.68359375" x2="211.418071" y2="0.68359375" id="直线"></line>
                            </g>
                            <rect id="矩形" fill="#128CFB" x="11" y="59" width="280" height="92"></rect>
                            <path d="M167.892988,110.835325 L87.29295,110.835325 C87.050846,110.835325 86.8186399,110.739241 86.6474466,110.568047 C86.4762532,110.396854 86.3801687,110.164648 86.3801687,109.922544 L86.3801687,77.6828875 C86.3801687,77.4407841 86.4762534,77.2085787 86.647447,77.0373863 C86.8186405,76.8661939 87.0508466,76.7701123 87.29295,76.7701123 L167.892988,76.7701123 C168.135114,76.7701123 168.367364,76.8660933 168.538573,77.0373024 C168.709782,77.2085115 168.805763,77.4407613 168.805763,77.6828875 L168.805763,109.922531 C168.805763,110.16466 168.709787,110.396914 168.538577,110.568127 C168.367368,110.739339 168.135116,110.835325 167.892988,110.835325 Z M88.2057313,109.009769 L166.980206,109.009769 L166.980206,78.5956562 L88.2057313,78.5956562 L88.2057313,109.009769 Z" id="形状" fill="#FFFFFF" fill-rule="nonzero"></path>
                            <path d="M121.548031,131.993269 L87.29295,131.993269 C87.050846,131.993269 86.8186399,131.897184 86.6474466,131.725991 C86.4762532,131.554798 86.3801687,131.322591 86.3801687,131.080488 L86.3801687,117.3781 C86.3801687,117.135996 86.4762532,116.90379 86.6474466,116.732597 C86.8186399,116.561403 87.050846,116.465319 87.29295,116.465319 L121.548031,116.465319 C121.790159,116.465319 122.022409,116.561302 122.193619,116.732512 C122.364829,116.903722 122.460813,117.135973 122.460813,117.3781 L122.460813,131.080488 C122.460813,131.322615 122.364829,131.554865 122.193619,131.726075 C122.022409,131.897285 121.790159,131.993269 121.548031,131.993269 L121.548031,131.993269 Z M88.2057313,130.167713 L120.63525,130.167713 L120.63525,118.290881 L88.2057313,118.290881 L88.2057313,130.167713 Z" id="形状" fill="#FFFFFF" fill-rule="nonzero"></path>
                            <path d="M167.892988,131.993269 L133.637906,131.993269 C133.395779,131.993269 133.163528,131.897285 132.992319,131.726075 C132.821109,131.554865 132.725125,131.322615 132.725125,131.080487 L132.725125,117.3781 C132.725125,117.135973 132.821109,116.903722 132.992319,116.732512 C133.163528,116.561302 133.395779,116.465319 133.637906,116.465319 L167.892988,116.465319 C168.135114,116.465319 168.367364,116.561303 168.538573,116.732513 C168.709782,116.903723 168.805763,117.135973 168.805763,117.3781 L168.805763,131.080487 C168.805763,131.322614 168.709782,131.554865 168.538573,131.726075 C168.367364,131.897285 168.135114,131.993269 167.892988,131.993269 Z M134.550681,130.167712 L166.980206,130.167712 L166.980206,118.290881 L134.550681,118.290881 L134.550681,130.167712 Z" id="形状" fill="#FFFFFF" fill-rule="nonzero"></path>
                            <path d="M166.885719,109.828062 C166.771614,109.828062 166.658538,109.806498 166.552338,109.764769 L86.959575,78.5323812 C86.6560812,78.4132767 86.4391829,78.1413076 86.3905836,77.818922 C86.3419843,77.4965364 86.4690673,77.1727124 86.7239617,76.9694314 C86.9788562,76.7661503 87.3228375,76.7142955 87.6263313,76.8334 L167.2191,108.065787 C167.627343,108.226075 167.863859,108.654071 167.782335,109.08501 C167.700812,109.515949 167.324301,109.828062 166.885719,109.828062 Z" id="路径" fill="#FFFFFF" fill-rule="nonzero"></path>
                            <path d="M87.293375,110.835326 C86.8556897,110.835326 86.4794355,110.525095 86.3965308,110.095333 C86.3136262,109.665571 86.5474024,109.237441 86.9537625,109.074838 L167.554237,76.8351813 C168.022089,76.649461 168.551987,76.8774958 168.738763,77.3449265 C168.925539,77.8123573 168.698702,78.3427687 168.231694,78.5306 L87.632125,110.770256 C87.5243969,110.81337 87.4094099,110.835326 87.293375,110.835326 Z" id="路径" fill="#FFFFFF" fill-rule="nonzero"></path>
                            <path d="M121.0444,131.489637 C120.930008,131.489637 120.81664,131.468082 120.710131,131.42635 L87.4618687,118.328319 C86.9936617,118.142836 86.7640441,117.613279 86.9486613,117.14473 C87.1332786,116.676181 87.6624109,116.445586 88.1313,116.629337 L121.378669,129.727369 C121.786796,129.887927 122.023054,130.316039 121.941322,130.74693 C121.85959,131.17782 121.482973,131.489637 121.0444,131.489637 L121.0444,131.489637 Z" id="路径" fill="#FFFFFF" fill-rule="nonzero"></path>
                            <path d="M87.7965813,131.489638 C87.3535696,131.489638 86.9744481,131.171724 86.8975604,130.735436 C86.8206727,130.299147 87.0682302,129.870656 87.4846,129.719344 L120.732413,117.629475 C121.03917,117.516354 121.383006,117.575998 121.633743,117.785825 C121.884479,117.995653 122.003794,118.323592 121.946513,118.645486 C121.889232,118.967379 121.664111,119.234027 121.356381,119.344475 L88.1085687,131.434344 C88.0085926,131.470826 87.9030057,131.489638 87.7965813,131.489638 L87.7965813,131.489638 Z" id="路径" fill="#FFFFFF" fill-rule="nonzero"></path>
                            <path d="M167.38935,131.489638 C167.279789,131.489638 167.171122,131.469929 167.06845,131.431694 L134.828794,119.341825 C134.356678,119.164597 134.117625,118.6382 134.294853,118.166084 C134.472081,117.693969 134.998478,117.454916 135.470594,117.632144 L167.71025,129.722019 C168.123499,129.877052 168.366646,130.305534 168.287806,130.739808 C168.208967,131.174083 167.830722,131.489638 167.38935,131.489638 L167.38935,131.489638 Z" id="路径" fill="#FFFFFF" fill-rule="nonzero"></path>
                            <path d="M135.149694,130.482369 C134.703818,130.482236 134.323306,130.159956 134.249789,129.720183 C134.176272,129.280409 134.431273,128.851891 134.852862,128.706744 L167.092519,117.624138 C167.401221,117.516437 167.743954,117.582128 167.990956,117.796339 C168.237959,118.010551 168.351478,118.340542 168.288536,118.661377 C168.225593,118.982212 167.99581,119.244852 167.686181,119.349863 L135.4465,130.43245 C135.351021,130.465447 135.250714,130.482369 135.149694,130.482369 L135.149694,130.482369 Z" id="路径" fill="#FFFFFF" fill-rule="nonzero"></path>
                            <g id="编组-11" transform="translate(23.854406, 23.000000)" fill-rule="nonzero">
                                <path d="M18.9316826,1.04262013 C24.0479178,3.16183615 27.3837877,8.15432645 27.3837877,13.6921002 C27.3753764,21.250326 21.2503198,27.3753798 13.692094,27.3837877 C8.1543202,27.3837877 3.16183143,24.0479129 1.04261774,18.9316769 C-1.07659595,13.8154408 0.0948084009,7.92639873 4.01060667,4.01060225 C7.92640494,0.0948057676 13.8154475,-1.07659589 18.9316826,1.04262013 Z" id="形状" fill="#FFFFFF"></path>
                                <path d="M109.29682,1.04262013 C114.413055,3.16183615 117.748925,8.15432645 117.748925,13.6921002 C117.740669,21.2503902 111.615521,27.3755345 104.057231,27.3837877 C98.5194577,27.3837877 93.5269689,24.0479129 91.4077552,18.9316769 C89.2885416,13.8154408 90.4599459,7.92639873 94.3757442,4.01060225 C98.2915424,0.0948057676 104.180585,-1.07659589 109.29682,1.04262013 Z" id="形状" fill="#FFFFFF"></path>
                                <path d="M221.568701,1.04262013 C226.684937,3.16183615 230.020806,8.15432645 230.020806,13.6921002 C230.012553,21.2503916 223.887404,27.375538 216.329113,27.3837877 C210.791339,27.3837877 205.79885,24.0479129 203.679636,18.9316769 C201.560423,13.8154408 202.731827,7.92639873 206.647625,4.01060225 C210.563424,0.0948057676 216.452466,-1.07659589 221.568701,1.04262013 Z" id="形状" fill="#FFFFFF"></path>
                                <path d="M101.635338,17.9181627 L101.635338,17.2273377 L102.516919,16.3707127 C104.6402,14.3508315 105.599331,13.275819 105.611813,12.0234252 C105.657816,11.5757424 105.497909,11.1314088 105.177179,10.815706 C104.856449,10.5000033 104.409644,10.3471363 103.962744,10.4002065 C103.31111,10.4241798 102.687709,10.6722808 102.1978,11.102619 L101.839463,10.3101815 C102.500036,9.7605197 103.333385,9.46158744 104.192725,9.46603771 C104.861503,9.40660974 105.523564,9.63748786 106.010364,10.0998963 C106.497163,10.5623047 106.761739,11.2116341 106.736738,11.8825815 C106.736738,13.4166627 105.624288,14.657469 103.872713,16.3448627 L103.207744,16.9590315 L103.207744,16.9839877 L106.941756,16.9839877 L106.941756,17.9181627 L101.635338,17.9181627 Z" id="路径" fill="#FFC000"></path>
                                <polygon id="路径" fill="#FFC000" points="13.388969 10.5847252 13.363569 10.5847252 11.9186315 11.3646877 11.7015752 10.508069 13.5168877 9.53645646 14.476019 9.53645646 14.476019 17.8477377 13.388969 17.8477377"></polygon>
                                <path d="M214.923394,16.5561252 C215.481629,16.8863471 216.115652,17.0668812 216.764106,17.0802565 C218.209938,17.0802565 218.657413,16.1594565 218.644044,15.4695252 C218.631544,14.305369 217.5824,13.8070877 216.496694,13.8070877 L215.869156,13.8070877 L215.869156,12.962944 L216.496694,12.962944 C217.314981,12.962944 218.350775,12.541319 218.350775,11.5563377 C218.350775,10.8913377 217.928275,10.3030502 216.892469,10.3030502 C216.296594,10.3198214 215.718794,10.5113874 215.230925,10.8539252 L214.936763,10.0356315 C215.582999,9.61439013 216.338567,9.39187815 217.109963,9.39558475 C218.74655,9.39558475 219.488181,10.3672377 219.488181,11.378069 C219.470517,12.2995465 218.844107,13.0976592 217.953219,13.3337752 L217.953219,13.3596252 C219.014985,13.5132949 219.803887,14.4216707 219.8073,15.494494 C219.8073,16.824444 218.771506,17.988594 216.777481,17.988594 C216.019702,17.9983844 215.273289,17.8037754 214.616756,17.4252377 L214.923394,16.5561252 Z" id="路径" fill="#FFC000"></path>
                            </g>
                            <path d="M282.9032,131.080438 L202.303169,131.080438 C202.061041,131.080438 201.828791,130.984454 201.657581,130.813244 C201.486371,130.642034 201.390387,130.409784 201.390387,130.167656 L201.390387,78.5956125 C201.390387,78.3534857 201.486371,78.1212359 201.657581,77.950027 C201.828791,77.7788181 202.061042,77.6828373 202.303169,77.6828373 L282.9032,77.6828373 C283.145327,77.6828373 283.377577,77.7788181 283.548787,77.950027 C283.719997,78.1212359 283.815981,78.3534857 283.815981,78.5956125 L283.815981,130.167656 C283.815981,130.409784 283.719998,130.642034 283.548788,130.813244 C283.377578,130.984454 283.145327,131.080438 282.9032,131.080438 Z M203.21595,129.254875 L281.990425,129.254875 L281.990425,79.5083938 L203.21595,79.5083938 L203.21595,129.254875 Z" id="形状" fill="#FCBE00" fill-rule="nonzero"></path>
                            <path d="M268.479681,89.0925813 L219.189587,89.0925813 C218.685472,89.0925813 218.276806,88.6839152 218.276806,88.1798 C218.276806,87.6756848 218.685472,87.2670188 219.189587,87.2670188 L268.479681,87.2670188 C268.983796,87.2670188 269.392462,87.6756848 269.392462,88.1798 C269.392462,88.6839152 268.983796,89.0925813 268.479681,89.0925813 Z" id="路径" fill="#FCBE00" fill-rule="nonzero"></path>
                            <path d="M268.479681,97.3075969 L219.189587,97.3075969 C218.862914,97.3084486 218.560689,97.1346612 218.397106,96.8518956 C218.233522,96.5691299 218.233522,96.2205013 218.397106,95.9377357 C218.560689,95.65497 218.862914,95.4811827 219.189588,95.4820344 L268.479681,95.4820344 C268.983795,95.4820344 269.392459,95.8907022 269.392459,96.3948156 C269.392459,96.8989291 268.983795,97.3075969 268.479681,97.3075969 L268.479681,97.3075969 Z" id="路径" fill="#FCBE00" fill-rule="nonzero"></path>
                            <path d="M268.479681,105.522613 L219.189587,105.522613 C218.685472,105.522613 218.276806,105.113946 218.276806,104.609831 C218.276806,104.105716 218.685472,103.69705 219.189587,103.69705 L268.479681,103.69705 C268.983796,103.69705 269.392462,104.105716 269.392462,104.609831 C269.392462,105.113946 268.983796,105.522613 268.479681,105.522613 Z" id="路径" fill="#FCBE00" fill-rule="nonzero"></path>
                            <path d="M268.479681,113.737628 L219.189587,113.737628 C218.862914,113.73848 218.560689,113.564692 218.397106,113.281927 C218.233522,112.999161 218.233522,112.650533 218.397106,112.367767 C218.560689,112.085001 218.862914,111.911214 219.189588,111.912066 L268.479681,111.912066 C268.983795,111.912066 269.392459,112.320733 269.392459,112.824847 C269.392459,113.32896 268.983795,113.737628 268.479681,113.737628 L268.479681,113.737628 Z" id="路径" fill="#FCBE00" fill-rule="nonzero"></path>
                            <path d="M268.479681,121.952641 L219.189588,121.952641 C218.685474,121.952641 218.276809,121.543973 218.276809,121.039859 C218.276809,120.535746 218.685474,120.127078 219.189588,120.127078 L268.479681,120.127078 C268.806354,120.126226 269.108579,120.300014 269.272163,120.582779 C269.435747,120.865545 269.435747,121.214174 269.272163,121.496939 C269.108579,121.779705 268.806354,121.953492 268.479681,121.952641 Z" id="路径" fill="#FCBE00" fill-rule="nonzero"></path>
                            <path d="M18.6943375,80.2178563 C19.19947,80.2003553 19.5999192,79.7857918 19.5999192,79.2803563 C19.5999192,78.7749207 19.19947,78.3603572 18.6943375,78.3428563 C18.189205,78.3603572 17.7887558,78.7749207 17.7887558,79.2803563 C17.7887558,79.7857918 18.189205,80.2003553 18.6943375,80.2178563 L18.6943375,80.2178563 Z" id="路径" fill="#FCBE00" fill-rule="nonzero"></path>
                            <path d="M18.6943375,90.258425 C19.19947,90.2409241 19.5999192,89.8263605 19.5999192,89.320925 C19.5999192,88.8154895 19.19947,88.4009259 18.6943375,88.383425 C18.189205,88.4009259 17.7887558,88.8154895 17.7887558,89.320925 C17.7887558,89.8263605 18.189205,90.2409241 18.6943375,90.258425 L18.6943375,90.258425 Z" id="路径" fill="#FCBE00" fill-rule="nonzero"></path>
                            <path d="M18.6943375,100.299 C19.19947,100.281499 19.5999192,99.8669355 19.5999192,99.3615 C19.5999192,98.8560645 19.19947,98.4415009 18.6943375,98.424 C18.189205,98.4415009 17.7887558,98.8560645 17.7887558,99.3615 C17.7887558,99.8669355 18.189205,100.281499 18.6943375,100.299 L18.6943375,100.299 Z" id="路径" fill="#FCBE00" fill-rule="nonzero"></path>
                            <path d="M18.6943375,110.339575 C19.19947,110.322074 19.5999192,109.907511 19.5999192,109.402075 C19.5999192,108.896639 19.19947,108.482076 18.6943375,108.464575 C18.189205,108.482076 17.7887558,108.896639 17.7887558,109.402075 C17.7887558,109.907511 18.189205,110.322074 18.6943375,110.339575 L18.6943375,110.339575 Z" id="路径" fill="#FCBE00" fill-rule="nonzero"></path>
                            <path d="M18.6943375,120.38015 C19.19947,120.362649 19.5999192,119.948086 19.5999192,119.44265 C19.5999192,118.937214 19.19947,118.522651 18.6943375,118.50515 C18.189205,118.522651 17.7887558,118.937214 17.7887558,119.44265 C17.7887558,119.948086 18.189205,120.362649 18.6943375,120.38015 L18.6943375,120.38015 Z" id="路径" fill="#FCBE00" fill-rule="nonzero"></path>
                            <path d="M18.6943375,130.420725 C19.19947,130.403224 19.5999192,129.988661 19.5999192,129.483225 C19.5999192,128.977789 19.19947,128.563226 18.6943375,128.545725 C18.189205,128.563226 17.7887558,128.977789 17.7887558,129.483225 C17.7887558,129.988661 18.189205,130.403224 18.6943375,130.420725 Z" id="路径" fill="#FCBE00" fill-rule="nonzero"></path>
                            <path d="M56.7148375,80.1929813 L27.505875,80.1929813 C27.0017598,80.1929813 26.5930937,79.7843152 26.5930937,79.2802 C26.5930937,78.7760848 27.0017598,78.3674188 27.505875,78.3674188 L56.7148188,78.3674188 C57.2189339,78.3674188 57.6276,78.7760848 57.6276,79.2802 C57.6276,79.7843152 57.2189339,80.1929813 56.7148187,80.1929813 L56.7148375,80.1929813 Z" id="路径" fill="#FCBE00" fill-rule="nonzero"></path>
                            <path d="M56.7148375,90.2335531 L27.505875,90.2335531 C27.1792018,90.2344048 26.876977,90.0606175 26.7133931,89.7778518 C26.5498093,89.4950862 26.5498093,89.1464576 26.7133931,88.8636919 C26.876977,88.5809263 27.1792018,88.4071389 27.505875,88.4079906 L56.7148188,88.4079906 C57.0414919,88.4071389 57.3437168,88.5809263 57.5073006,88.8636919 C57.6708844,89.1464576 57.6708844,89.4950862 57.5073006,89.7778518 C57.3437168,90.0606175 57.0414919,90.2344048 56.7148188,90.2335531 L56.7148375,90.2335531 Z" id="路径" fill="#FCBE00" fill-rule="nonzero"></path>
                            <path d="M56.7148375,100.274128 L27.505875,100.274128 C27.0017616,100.274128 26.5930969,99.8654603 26.5930969,99.3613469 C26.5930969,98.8572334 27.0017616,98.4485656 27.505875,98.4485656 L56.7148187,98.4485656 C57.0414919,98.4477139 57.3437168,98.6215013 57.5073006,98.9042669 C57.6708844,99.1870326 57.6708844,99.5356612 57.5073006,99.8184268 C57.3437168,100.101192 57.0414919,100.27498 56.7148187,100.274128 L56.7148375,100.274128 Z" id="路径" fill="#FCBE00" fill-rule="nonzero"></path>
                            <path d="M56.7148375,110.314703 L27.505875,110.314703 C27.0017616,110.314703 26.5930969,109.906035 26.5930969,109.401922 C26.5930969,108.897808 27.0017616,108.489141 27.505875,108.489141 L56.7148187,108.489141 C57.0414919,108.488289 57.3437168,108.662076 57.5073006,108.944842 C57.6708844,109.227608 57.6708844,109.576236 57.5073006,109.859002 C57.3437168,110.141767 57.0414919,110.315555 56.7148187,110.314703 L56.7148375,110.314703 Z" id="路径" fill="#FCBE00" fill-rule="nonzero"></path>
                            <path d="M56.7148375,120.355278 L27.505875,120.355278 C27.0017616,120.355278 26.5930969,119.94661 26.5930969,119.442497 C26.5930969,118.938383 27.0017616,118.529716 27.505875,118.529716 L56.7148187,118.529716 C57.0414919,118.528864 57.3437168,118.702651 57.5073006,118.985417 C57.6708844,119.268183 57.6708844,119.616811 57.5073006,119.899577 C57.3437168,120.182342 57.0414919,120.35613 56.7148187,120.355278 L56.7148375,120.355278 Z" id="路径" fill="#FCBE00" fill-rule="nonzero"></path>
                            <path d="M56.7148375,130.395853 L27.505875,130.395853 C27.1792018,130.396705 26.876977,130.222917 26.7133931,129.940152 C26.5498093,129.657386 26.5498093,129.308758 26.7133931,129.025992 C26.876977,128.743226 27.1792018,128.569439 27.505875,128.570291 L56.7148188,128.570291 C57.0414919,128.569439 57.3437168,128.743226 57.5073006,129.025992 C57.6708844,129.308758 57.6708844,129.657386 57.5073006,129.940152 C57.3437168,130.222917 57.0414919,130.396705 56.7148188,130.395853 L56.7148375,130.395853 Z" id="路径" fill="#FCBE00" fill-rule="nonzero"></path>
                            <g id="编组-10" transform="translate(57.906244, 159.000000)" fill-rule="nonzero">
                                <path d="M150.111388,35.5835688 L179.955669,35.5835688 C181.992306,23.8098049 181.992306,11.7737639 179.955669,1.13686838e-13 L150.111388,1.13686838e-13 C153.473588,11.6229253 153.473588,23.9606434 150.111388,35.5835688 L150.111388,35.5835688 Z" id="路径" fill="#126BFB"></path>
                                <path d="M195.529706,71.5835688 L225.374006,71.5835688 C227.410644,59.8098049 227.410644,47.7737639 225.374006,36 L195.529706,36 C198.891902,47.622926 198.891902,59.9606427 195.529706,71.5835688 Z" id="路径" fill="#3AA1FF"></path>
                                <path d="M175.246869,10.3673312 L157.086075,10.3673312 C156.772663,10.3673312 156.518575,9.959075 156.518575,9.45455 C156.518575,8.950025 156.772681,8.54176875 157.086075,8.54176875 L175.246869,8.54176875 C175.560281,8.54176875 175.814369,8.950025 175.814369,9.45455 C175.814369,9.959075 175.560256,10.3673312 175.246869,10.3673312 Z" id="路径" fill="#FFFFFF"></path>
                                <path d="M175.246869,18.83515 L157.086075,18.83515 C156.772663,18.83515 156.518575,18.4268937 156.518575,17.9223687 C156.518575,17.4178437 156.772681,17.0095937 157.086075,17.0095937 L175.246869,17.0095937 C175.560281,17.0095937 175.814369,17.41785 175.814369,17.9223687 C175.814369,18.4268875 175.560256,18.83515 175.246869,18.83515 Z" id="路径" fill="#FFFFFF"></path>
                                <path d="M220.665188,50.2163375 L202.504394,50.2163375 C202.190981,50.2163375 201.936894,49.8080875 201.936894,49.3035625 C201.936894,48.7990375 202.191006,48.3907813 202.504394,48.3907813 L220.665188,48.3907813 C220.9786,48.3907813 221.232688,48.7990375 221.232688,49.3035625 C221.232688,49.8080875 220.9786,50.2163375 220.665188,50.2163375 Z" id="路径" fill="#FFFFFF"></path>
                                <path d="M220.665188,58.6841625 L202.504394,58.6841625 C202.190981,58.6841625 201.936894,58.2759063 201.936894,57.7713813 C201.936894,57.2668563 202.191006,56.8586 202.504394,56.8586 L220.665188,56.8586 C220.9786,56.8586 221.232688,57.2668563 221.232688,57.7713813 C221.232688,58.2759063 220.9786,58.6841625 220.665188,58.6841625 Z" id="路径" fill="#FFFFFF"></path>
                                <path d="M175.246869,27.302975 L157.086075,27.302975 C156.772663,27.302975 156.518575,26.8947187 156.518575,26.3901937 C156.518575,25.8856687 156.772681,25.4774125 157.086075,25.4774125 L175.246869,25.4774125 C175.560281,25.4774125 175.814369,25.8856687 175.814369,26.3901937 C175.814369,26.8947187 175.560256,27.302975 175.246869,27.302975 Z" id="路径" fill="#FFFFFF"></path>
                                <path d="M-6.75015599e-14,36.3533688 L29.8442875,36.3533688 C31.8809188,24.5796044 31.8809188,12.5435644 29.8442875,0.7698 L-6.75015599e-14,0.7698 C3.36220014,12.3927253 3.36220014,24.7304434 -6.75015599e-14,36.3533688 L-6.75015599e-14,36.3533688 Z" id="路径" fill="#FCBE00"></path>
                                <path d="M25.1354813,11.1371312 L6.97469375,11.1371312 C6.66128125,11.1371312 6.40719375,10.728875 6.40719375,10.22435 C6.40719375,9.719825 6.66130625,9.311575 6.97469375,9.311575 L25.1354813,9.311575 C25.4489,9.311575 25.7029813,9.719825 25.7029813,10.22435 C25.7029813,10.728875 25.4489,11.1371312 25.1354813,11.1371312 Z" id="路径" fill="#FFFFFF"></path>
                                <path d="M25.1354813,19.60495 L6.97469375,19.60495 C6.66128125,19.60495 6.40719375,19.1967 6.40719375,18.692175 C6.40719375,18.18765 6.66130625,17.7793938 6.97469375,17.7793938 L25.1354813,17.7793938 C25.4489,17.7793938 25.7029813,18.18765 25.7029813,18.692175 C25.7029813,19.1967 25.4489,19.60495 25.1354813,19.60495 Z" id="路径" fill="#FFFFFF"></path>
                                <path d="M25.1354813,28.072775 L6.97469375,28.072775 C6.66128125,28.072775 6.40719375,27.6645188 6.40719375,27.1599938 C6.40719375,26.6554688 6.66130625,26.2472188 6.97469375,26.2472188 L25.1354813,26.2472188 C25.4489,26.2472188 25.7029813,26.6554688 25.7029813,27.1599938 C25.7029813,27.6645188 25.4489,28.072775 25.1354813,28.072775 Z" id="路径" fill="#FFFFFF"></path>
                            </g>
                        </g>
                        <path d="M96,181.087145 C96.0017576,170.349385 87.5313466,161.509721 76.7722,161.021143 C66.0130534,160.532566 56.7716881,168.567929 55.7943371,179.261387 C54.816986,189.954845 62.4494298,199.523121 73.1199544,200.981335 L73.1199544,229.188424 L40.1021565,229.188424 C38.6635583,218.724957 29.342131,211.160068 18.77338,211.87886 C8.20462889,212.597653 0,221.354509 0,231.915816 C0,242.477124 8.20462889,251.23398 18.77338,251.952772 C29.342131,252.671565 38.6635583,245.106675 40.1021565,234.643208 L73.1199544,234.643208 L73.1199544,246.544556 L78.5912696,246.544556 L78.5912696,234.643208 L89.7825961,234.643208 L89.7825961,229.188424 L78.5912696,229.188424 L78.5912696,200.981335 C88.5650292,199.618303 95.9983197,191.123754 96,181.087145 Z" id="路径" fill="#2CC8FD" fill-rule="nonzero"></path>
                    </g>
                </g>
            </g>
        </g>
    </g>
</svg>