<?xml version="1.0" encoding="UTF-8"?>
<svg width="88px" height="88px" viewBox="0 0 88 88" version="1.1" xmlns="http://www.w3.org/2000/svg" xmlns:xlink="http://www.w3.org/1999/xlink">
    <!-- Generator: Sketch 63.1 (92452) - https://sketch.com -->
    <title>流程图文案</title>
    <desc>Created with Sketch.</desc>
    <g id="页面-1" stroke="none" stroke-width="1" fill="none" fill-rule="evenodd">
        <g id="TNT-首页" transform="translate(-434.000000, -2176.000000)">
            <g id="04" transform="translate(1.000000, 1769.000000)">
                <g id="矩形-2" transform="translate(414.000000, 381.000000)">
                    <g id="流程图文案" transform="translate(19.000000, 26.000000)">
                        <rect id="矩形" fill-opacity="0.01" fill="#FFFFFF" fill-rule="nonzero" x="0" y="0" width="88" height="88"></rect>
                        <g id="编组-19" transform="translate(5.000000, 6.000000)">
                            <line x1="22.3529412" y1="38.4470588" x2="64.3764706" y2="38.4470588" id="路径" stroke="#126BFB" stroke-width="6" stroke-linejoin="round"></line>
                            <polyline id="路径" stroke="#126BFB" stroke-width="6" stroke-linejoin="round" points="64.0784314 8.94117647 35.4666667 8.94117647 35.4666667 67.9529412 64.0784314 67.9529412"></polyline>
                            <path d="M12.5176471,50.0705882 C19.4308306,50.0705882 25.0352941,44.4661247 25.0352941,37.5529412 C25.0352941,30.6397576 19.4308306,25.0352941 12.5176471,25.0352941 C5.60433835,25.0352941 0,30.6397576 0,37.5529412 C0,44.4661247 5.60433835,50.0705882 12.5176471,50.0705882 Z" id="路径" fill="#FCBE00" fill-rule="nonzero"></path>
                            <path d="M25.0352941,37.5529412 C25.0352941,30.6397576 19.4308306,25.0352941 12.5176471,25.0352941 C5.60433835,25.0352941 0,30.6397576 0,37.5529412" id="路径" fill="#FFD92E" fill-rule="nonzero"></path>
                            <path d="M68.8470588,17.8823529 C73.7852706,17.8823529 77.7882353,13.8792541 77.7882353,8.94117647 C77.7882353,4.00309882 73.7852706,0 68.8470588,0 C63.9088471,0 59.9058824,4.00309882 59.9058824,8.94117647 C59.9058824,13.8792541 63.9088471,17.8823529 68.8470588,17.8823529 Z" id="路径" fill="#128CFB" fill-rule="nonzero"></path>
                            <path d="M68.8470588,0 C63.9088471,0 59.9058824,4.00309882 59.9058824,8.94117647 C59.9058824,13.8792541 63.9088471,17.8823529 68.8470588,17.8823529" id="路径" fill="#3AA1FF" fill-rule="nonzero"></path>
                            <path d="M68.8470588,47.3882353 C73.7852706,47.3882353 77.7882353,43.3851365 77.7882353,38.4470588 C77.7882353,33.5089812 73.7852706,29.5058824 68.8470588,29.5058824 C63.9088471,29.5058824 59.9058824,33.5089812 59.9058824,38.4470588 C59.9058824,43.3851365 63.9088471,47.3882353 68.8470588,47.3882353 Z" id="路径" fill="#128CFB" fill-rule="nonzero"></path>
                            <path d="M68.8470588,29.5058824 C63.9088471,29.5058824 59.9058824,33.5089812 59.9058824,38.4470588 C59.9058824,43.3851365 63.9088471,47.3882353 68.8470588,47.3882353" id="路径" fill="#3AA1FF" fill-rule="nonzero"></path>
                            <path d="M68.8470588,76 C73.7852706,76 77.7882353,71.9969012 77.7882353,67.0588235 C77.7882353,62.1207459 73.7852706,58.1176471 68.8470588,58.1176471 C63.9088471,58.1176471 59.9058824,62.1207459 59.9058824,67.0588235 C59.9058824,71.9969012 63.9088471,76 68.8470588,76 Z" id="路径" fill="#128CFB" fill-rule="nonzero"></path>
                            <path d="M68.8470588,58.1176471 C63.9088471,58.1176471 59.9058824,62.1207459 59.9058824,67.0588235 C59.9058824,71.9969012 63.9088471,76 68.8470588,76" id="路径" fill="#3AA1FF" fill-rule="nonzero"></path>
                        </g>
                    </g>
                </g>
            </g>
        </g>
    </g>
</svg>