<?xml version="1.0" encoding="UTF-8"?>
<svg width="1605px" height="158px" viewBox="0 0 1605 158" version="1.1" xmlns="http://www.w3.org/2000/svg" xmlns:xlink="http://www.w3.org/1999/xlink">
    <title>切片</title>
    <g id="页面-1" stroke="none" stroke-width="1" fill="none" fill-rule="evenodd">
        <g id="编组-2" transform="translate(12.300000, 6.940000)" fill-rule="nonzero">
            <path d="M62.54,101.02 L62.54,95.18 C63.34,96.62 64.48,97.34 65.96,97.34 C67.44,97.34 68.58,96.78 69.42,95.7 C70.18,94.7 70.58,93.44 70.58,91.92 C70.58,90.36 70.18,89.1 69.4,88.1 C68.54,86.98 67.36,86.44 65.88,86.44 C64.32,86.44 63.18,87.1 62.44,88.42 L62.44,86.72 L60.94,86.72 L60.94,101.02 L62.54,101.02 Z M65.62,96.02 C64.66,96.02 63.92,95.64 63.36,94.92 C62.76,94.18 62.48,93.22 62.48,92.02 L62.48,91.82 C62.48,90.66 62.74,89.7 63.26,88.98 C63.82,88.16 64.64,87.76 65.68,87.76 C66.78,87.76 67.62,88.16 68.2,89 C68.68,89.72 68.94,90.7 68.94,91.92 C68.94,93.16 68.68,94.14 68.16,94.86 C67.58,95.62 66.74,96.02 65.62,96.02 Z M73.98,85.2 C74.32,85.2 74.6,85.08 74.84,84.86 C75.08,84.62 75.2,84.34 75.2,84 C75.2,83.64 75.08,83.36 74.84,83.16 C74.6,82.92 74.32,82.82 73.98,82.82 C73.64,82.82 73.36,82.92 73.12,83.16 C72.88,83.36 72.78,83.64 72.78,84 C72.78,84.34 72.88,84.62 73.12,84.86 C73.36,85.08 73.64,85.2 73.98,85.2 Z M74.78,97.06 L74.78,86.72 L73.18,86.72 L73.18,97.06 L74.78,97.06 Z M79.38,97.06 L79.38,90.82 C79.44,89.88 79.74,89.14 80.3,88.58 C80.82,88.06 81.44,87.8 82.16,87.8 C83.96,87.8 84.88,88.8 84.88,90.82 L84.88,97.06 L86.48,97.06 L86.48,90.7 C86.48,87.86 85.18,86.44 82.62,86.44 C81.94,86.44 81.32,86.6 80.76,86.92 C80.2,87.22 79.74,87.66 79.38,88.24 L79.38,86.72 L77.78,86.72 L77.78,97.06 L79.38,97.06 Z M93.58,101.3 C96.72,101.3 98.3,99.64 98.3,96.34 L98.3,86.72 L96.7,86.72 L96.7,88.5 C95.94,87.12 94.78,86.44 93.22,86.44 C91.78,86.44 90.64,86.94 89.8,87.96 C88.96,88.92 88.56,90.14 88.56,91.66 C88.56,93.16 88.96,94.38 89.8,95.34 C90.64,96.32 91.78,96.82 93.22,96.82 C94.78,96.82 95.94,96.12 96.7,94.74 L96.7,96.56 C96.7,98.84 95.66,100 93.58,100 C92.64,100 91.94,99.82 91.48,99.48 C91.02,99.16 90.72,98.64 90.6,97.94 L89,97.94 C89.18,99.06 89.64,99.9 90.38,100.46 C91.1,101.02 92.18,101.3 93.58,101.3 Z M93.44,95.48 C92.32,95.48 91.5,95.08 90.94,94.32 C90.44,93.64 90.2,92.74 90.2,91.66 C90.2,90.5 90.48,89.56 91.04,88.88 C91.62,88.12 92.42,87.76 93.46,87.76 C94.48,87.76 95.28,88.12 95.88,88.88 C96.44,89.56 96.72,90.5 96.72,91.66 C96.72,92.78 96.44,93.7 95.88,94.4 C95.28,95.12 94.48,95.48 93.44,95.48 Z M103.84,97.06 L103.84,88.06 L106.76,88.06 L106.76,86.72 L103.84,86.72 L103.84,85.58 C103.84,85.08 103.94,84.72 104.14,84.5 C104.34,84.26 104.68,84.16 105.12,84.16 L106.9,84.16 L106.9,82.78 L104.92,82.78 C104.04,82.78 103.36,83.02 102.9,83.52 C102.46,84 102.24,84.66 102.24,85.54 L102.24,86.72 L99.64,86.72 L99.64,88.06 L102.24,88.06 L102.24,97.06 L103.84,97.06 Z M111.28,97.34 C112.24,97.34 113.1,97.12 113.86,96.7 C114.5,96.34 115.04,95.88 115.44,95.32 L115.44,97.06 L116.94,97.06 L116.94,90.42 C116.94,89.22 116.62,88.28 116.02,87.6 C115.3,86.82 114.22,86.44 112.74,86.44 C111.5,86.44 110.52,86.68 109.76,87.16 C108.92,87.68 108.38,88.5 108.16,89.58 L109.74,89.7 C109.9,89.04 110.24,88.54 110.78,88.22 C111.26,87.9 111.88,87.76 112.64,87.76 C114.44,87.76 115.34,88.62 115.34,90.36 L115.34,90.9 L112.86,90.94 C111.3,90.96 110.1,91.26 109.26,91.82 C108.3,92.42 107.84,93.3 107.84,94.48 C107.84,95.32 108.16,96.02 108.8,96.56 C109.42,97.08 110.24,97.34 111.28,97.34 Z M111.62,96.08 C110.98,96.08 110.46,95.92 110.06,95.62 C109.66,95.3 109.48,94.92 109.48,94.44 C109.48,92.94 110.64,92.18 112.96,92.14 L115.34,92.1 L115.34,92.98 C115.34,93.78 114.96,94.5 114.22,95.12 C113.46,95.76 112.6,96.08 111.62,96.08 Z M121.02,97.06 L121.02,90.82 C121.08,89.88 121.38,89.14 121.94,88.58 C122.46,88.06 123.08,87.8 123.8,87.8 C125.6,87.8 126.52,88.8 126.52,90.82 L126.52,97.06 L128.12,97.06 L128.12,90.7 C128.12,87.86 126.82,86.44 124.26,86.44 C123.58,86.44 122.96,86.6 122.4,86.92 C121.84,87.22 121.38,87.66 121.02,88.24 L121.02,86.72 L119.42,86.72 L119.42,97.06 L121.02,97.06 Z M135.22,101.3 C138.36,101.3 139.94,99.64 139.94,96.34 L139.94,86.72 L138.34,86.72 L138.34,88.5 C137.58,87.12 136.42,86.44 134.86,86.44 C133.42,86.44 132.28,86.94 131.44,87.96 C130.6,88.92 130.2,90.14 130.2,91.66 C130.2,93.16 130.6,94.38 131.44,95.34 C132.28,96.32 133.42,96.82 134.86,96.82 C136.42,96.82 137.58,96.12 138.34,94.74 L138.34,96.56 C138.34,98.84 137.3,100 135.22,100 C134.28,100 133.58,99.82 133.12,99.48 C132.66,99.16 132.36,98.64 132.24,97.94 L130.64,97.94 C130.82,99.06 131.28,99.9 132.02,100.46 C132.74,101.02 133.82,101.3 135.22,101.3 Z M135.08,95.48 C133.96,95.48 133.14,95.08 132.58,94.32 C132.08,93.64 131.84,92.74 131.84,91.66 C131.84,90.5 132.12,89.56 132.68,88.88 C133.26,88.12 134.06,87.76 135.1,87.76 C136.12,87.76 136.92,88.12 137.52,88.88 C138.08,89.56 138.36,90.5 138.36,91.66 C138.36,92.78 138.08,93.7 137.52,94.4 C136.92,95.12 136.12,95.48 135.08,95.48 Z M147.64,97.34 C149.34,97.34 150.68,96.98 151.68,96.28 C152.68,95.56 153.18,94.56 153.18,93.32 C153.18,92.02 152.58,91.02 151.4,90.3 C150.8,89.94 149.56,89.48 147.68,88.92 C146.3,88.52 145.42,88.22 145.06,88.02 C144.24,87.58 143.84,87 143.84,86.28 C143.84,85.46 144.18,84.86 144.86,84.46 C145.46,84.1 146.28,83.94 147.34,83.94 C148.5,83.94 149.4,84.18 150.04,84.7 C150.66,85.2 151.06,85.96 151.24,87 L152.86,87 C152.72,85.5 152.18,84.36 151.22,83.6 C150.3,82.86 149.02,82.5 147.42,82.5 C145.94,82.5 144.72,82.82 143.78,83.46 C142.72,84.14 142.2,85.12 142.2,86.36 C142.2,87.56 142.74,88.48 143.84,89.12 C144.3,89.36 145.4,89.76 147.12,90.28 C148.72,90.74 149.74,91.08 150.14,91.32 C151.08,91.82 151.56,92.52 151.56,93.42 C151.56,94.18 151.2,94.78 150.48,95.22 C149.76,95.66 148.8,95.88 147.64,95.88 C146.36,95.88 145.4,95.6 144.74,95.08 C144.02,94.5 143.58,93.58 143.44,92.34 L141.82,92.34 C141.94,94.1 142.56,95.4 143.68,96.26 C144.64,96.98 145.96,97.34 147.64,97.34 Z M161.36,97.34 C162.88,97.34 164.2,96.9 165.3,96.04 C166.48,95.12 167.22,93.82 167.54,92.16 L165.96,92.16 C165.68,93.4 165.1,94.34 164.26,94.98 C163.46,95.58 162.5,95.88 161.36,95.88 C159.68,95.88 158.42,95.32 157.54,94.22 C156.7,93.18 156.3,91.76 156.3,89.98 C156.3,88.2 156.72,86.78 157.56,85.7 C158.46,84.54 159.74,83.96 161.4,83.96 C162.52,83.96 163.46,84.22 164.24,84.76 C165.04,85.32 165.56,86.12 165.76,87.16 L167.34,87.16 C167.14,85.74 166.5,84.6 165.42,83.76 C164.34,82.92 163,82.5 161.42,82.5 C159.22,82.5 157.5,83.24 156.3,84.76 C155.2,86.12 154.66,87.86 154.66,89.98 C154.66,92.1 155.18,93.82 156.26,95.14 C157.44,96.6 159.14,97.34 161.36,97.34 Z" id="pingfangSC" fill="#7B8AA9"></path>
            <path d="M721.12,97.94 C721,97.22 720.96,96.7 720.96,95.7 L720.96,90.64 L730,90.64 L730,95.7 C730,96.66 729.96,97.2 729.84,97.94 L731.72,97.94 C731.6,97.16 731.56,96.68 731.56,95.7 L731.56,84.94 C731.56,84 731.6,83.5 731.72,82.74 L729.84,82.74 C729.96,83.42 730,84.04 730,84.98 L730,89.22 L720.96,89.22 L720.96,84.94 C720.96,84 721,83.48 721.12,82.74 L719.24,82.74 C719.36,83.44 719.4,84.02 719.4,84.98 L719.4,95.7 C719.4,96.68 719.36,97.26 719.24,97.94 L721.12,97.94 Z M736.6,84.52 L736.6,82.74 L734.66,82.74 L734.66,84.52 L736.6,84.52 Z M736.52,97.94 C736.42,97.16 736.38,96.6 736.38,95.68 L736.38,89.42 C736.38,88.42 736.42,87.86 736.52,87.16 L734.72,87.16 C734.82,87.86 734.86,88.46 734.86,89.42 L734.86,95.68 C734.86,96.52 734.82,97.08 734.72,97.94 L736.52,97.94 Z M741.24,97.94 C741.14,97.16 741.1,96.6 741.1,95.7 L741.1,91.62 C741.18,90.72 741.36,90.24 741.84,89.62 C742.44,88.82 743.28,88.4 744.3,88.4 C744.8,88.4 745.16,88.46 745.92,88.7 L746.36,87.16 C745.52,87.02 745.18,86.98 744.58,86.98 C743.62,86.98 742.94,87.18 742.18,87.68 C741.76,87.96 741.46,88.28 741.08,88.9 C741.1,88.76 741.1,88.46 741.1,88.3 L741.1,87.16 L739.44,87.16 C739.54,87.88 739.58,88.42 739.58,89.42 L739.58,95.68 C739.58,96.5 739.54,97.02 739.44,97.94 L741.24,97.94 Z M751.24,98.14 C751.92,98.14 752.64,98 753.32,97.74 C754,97.48 754.38,97.22 755.16,96.52 L755.16,97.94 L756.78,97.94 C756.66,97.14 756.62,96.64 756.62,95.74 L756.62,90.12 C756.62,87.96 755.26,86.84 752.62,86.84 C751.12,86.84 749.92,87.22 749.1,87.98 C748.6,88.42 748.34,88.84 747.98,89.76 L749.54,90.1 C749.74,89.5 749.9,89.22 750.16,88.94 C750.72,88.36 751.54,88.08 752.64,88.08 C754.3,88.08 755.16,88.78 755.16,90.14 L755.16,91.3 C752.7,91.36 751.74,91.48 750.56,91.82 C748.7,92.34 747.7,93.5 747.7,95.1 C747.7,97 749.04,98.14 751.24,98.14 Z M751.34,96.92 C750.04,96.92 749.22,96.22 749.22,95.12 C749.22,94.16 749.72,93.48 750.74,93.06 C751.64,92.68 752.78,92.54 755.16,92.48 L755.16,93.78 C755.16,94.58 755,95 754.54,95.5 C753.76,96.36 752.5,96.92 751.34,96.92 Z M764.04,102.24 C765.86,102.24 767.36,101.7 768.2,100.72 C769,99.78 769.36,98.52 769.36,96.56 L769.36,89.4 C769.36,88.46 769.4,87.94 769.5,87.16 L767.9,87.16 L767.9,88.3 C767.9,88.56 767.92,88.72 767.94,89.06 C767.12,87.66 765.84,86.96 764.1,86.96 C761,86.96 759.04,89.12 759.04,92.52 C759.04,95.86 760.96,97.96 763.98,97.96 C765.2,97.96 766.32,97.6 767.08,96.92 C767.42,96.62 767.64,96.36 767.94,95.82 C767.86,97.48 767.78,98.2 767.58,98.78 C767.06,100.22 765.84,100.98 764.1,100.98 C763.02,100.98 762.18,100.7 761.42,100.04 C761.18,99.86 761.06,99.72 760.78,99.34 L759.5,100.24 C760.82,101.68 762.06,102.24 764.04,102.24 Z M764.06,96.7 C761.92,96.7 760.6,95.12 760.6,92.52 C760.6,89.86 761.96,88.22 764.18,88.22 C766.42,88.22 767.86,89.84 767.86,92.36 C767.86,94.96 766.34,96.7 764.06,96.7 Z M774.28,84.52 L774.28,82.74 L772.34,82.74 L772.34,84.52 L774.28,84.52 Z M774.2,97.94 C774.1,97.16 774.06,96.6 774.06,95.68 L774.06,89.42 C774.06,88.42 774.1,87.86 774.2,87.16 L772.4,87.16 C772.5,87.86 772.54,88.46 772.54,89.42 L772.54,95.68 C772.54,96.52 772.5,97.08 772.4,97.94 L774.2,97.94 Z M778.92,97.94 C778.82,97.16 778.78,96.56 778.78,95.68 L778.78,91.82 C778.94,91.02 779.18,90.52 779.7,89.84 C780.54,88.76 781.44,88.26 782.56,88.26 C784.14,88.26 785,89.22 785,91.02 L785,95.68 C785,96.56 784.96,97.16 784.86,97.94 L786.66,97.94 C786.56,97.28 786.52,96.72 786.52,95.7 L786.52,90.76 C786.52,89.78 786.34,89.04 785.96,88.46 C785.32,87.48 784.2,86.96 782.76,86.96 C780.96,86.96 779.66,87.74 778.72,89.38 C778.78,88.92 778.78,88.76 778.78,88.52 L778.78,87.16 L777.12,87.16 C777.24,87.96 777.28,88.52 777.28,89.42 L777.28,95.68 C777.28,96.64 777.24,97.18 777.12,97.94 L778.92,97.94 Z M794.34,98.2 C797.56,98.2 799.64,95.96 799.64,92.54 C799.64,89.1 797.58,86.9 794.32,86.9 C791.06,86.9 788.98,89.1 788.98,92.56 C788.98,96.02 791.06,98.2 794.34,98.2 Z M794.32,96.9 C791.98,96.9 790.52,95.24 790.52,92.52 C790.52,89.82 791.98,88.16 794.36,88.16 C796.66,88.16 798.1,89.84 798.1,92.54 C798.1,95.24 796.66,96.9 794.32,96.9 Z M814.08,98.2 C817.52,98.2 819.46,96.6 819.46,93.78 C819.46,91.46 818.18,90.24 814.98,89.56 C813.172857,89.1671429 812.773265,89.0829592 812.423061,88.958207 L812.279107,88.9040233 C812.229745,88.8846173 812.177857,88.8635714 812.12,88.84 C810.94,88.36 810.38,87.62 810.38,86.58 C810.38,84.96 811.82,83.86 813.88,83.86 C815.18,83.86 816.2,84.26 816.84,85.02 C817.22,85.48 817.38,85.88 817.54,86.68 L819.22,86.44 C819,85.42 818.8,84.92 818.34,84.32 C817.44,83.12 815.9,82.48 813.92,82.48 C810.82,82.48 808.8,84.1 808.8,86.62 C808.8,88.02 809.42,89.08 810.66,89.78 C811.34,90.16 812.12,90.44 813.38,90.7 C813.738519,90.78 814.048752,90.849465 814.319284,90.9109963 L814.696379,90.997668 C815.919506,91.2824691 816.166667,91.3844444 816.68,91.68 C817.44,92.1 817.84,92.84 817.84,93.82 C817.84,95.68 816.4,96.8 814.02,96.8 C812.54,96.8 811.34,96.3 810.68,95.42 C810.26,94.88 810.12,94.4 810.06,93.44 L808.32,93.66 C808.52,94.98 808.74,95.6 809.26,96.3 C810.18,97.54 811.84,98.2 814.08,98.2 Z M825.22,98.14 C825.9,98.14 826.62,98 827.3,97.74 C827.98,97.48 828.36,97.22 829.14,96.52 L829.14,97.94 L830.76,97.94 C830.64,97.14 830.6,96.64 830.6,95.74 L830.6,90.12 C830.6,87.96 829.24,86.84 826.6,86.84 C825.1,86.84 823.9,87.22 823.08,87.98 C822.58,88.42 822.32,88.84 821.96,89.76 L823.52,90.1 C823.72,89.5 823.88,89.22 824.14,88.94 C824.7,88.36 825.52,88.08 826.62,88.08 C828.28,88.08 829.14,88.78 829.14,90.14 L829.14,91.3 C826.68,91.36 825.72,91.48 824.54,91.82 C822.68,92.34 821.68,93.5 821.68,95.1 C821.68,97 823.02,98.14 825.22,98.14 Z M825.32,96.92 C824.02,96.92 823.2,96.22 823.2,95.12 C823.2,94.16 823.7,93.48 824.72,93.06 C825.62,92.68 826.76,92.54 829.14,92.48 L829.14,93.78 C829.14,94.58 828.98,95 828.52,95.5 C827.74,96.36 826.48,96.92 825.32,96.92 Z M835.32,97.94 C835.22,97.16 835.18,96.56 835.18,95.68 L835.18,91.82 C835.34,91.02 835.58,90.52 836.1,89.84 C836.94,88.76 837.84,88.26 838.96,88.26 C840.54,88.26 841.4,89.22 841.4,91.02 L841.4,95.68 C841.4,96.56 841.36,97.16 841.26,97.94 L843.06,97.94 C842.96,97.28 842.92,96.72 842.92,95.7 L842.92,90.76 C842.92,89.78 842.74,89.04 842.36,88.46 C841.72,87.48 840.6,86.96 839.16,86.96 C837.36,86.96 836.06,87.74 835.12,89.38 C835.165,89.035 835.17625,88.85875 835.179062,88.6909375 L835.18,87.16 L833.52,87.16 C833.64,87.96 833.68,88.52 833.68,89.42 L833.68,95.68 C833.68,96.64 833.64,97.18 833.52,97.94 L835.32,97.94 Z M849.9,98.16 C852.64,98.16 854.34,96.92 854.34,94.92 C854.34,94.1 854,93.34 853.38,92.84 C852.78,92.38 852.14,92.14 850.2,91.7 C848.96,91.44 848.44,91.28 847.98,91.02 C847.54,90.78 847.3,90.38 847.3,89.92 C847.3,88.86 848.34,88.12 849.8,88.12 C850.7,88.12 851.42,88.38 851.88,88.88 C852.16,89.16 852.26,89.4 852.38,89.94 L853.96,89.68 C853.7,88.76 853.42,88.3 852.9,87.86 C852.18,87.22 851.12,86.9 849.76,86.9 C848.42,86.9 847.34,87.26 846.64,87.94 C846.08,88.48 845.78,89.16 845.78,89.88 C845.78,90.76 846.16,91.5 846.86,91.98 C847.54,92.44 848.22,92.68 849.82,93.02 C851.3,93.32 851.7,93.44 852.18,93.74 C852.6,94 852.8,94.42 852.8,94.98 C852.8,96.16 851.7,96.9 849.96,96.9 C848.94,96.9 848.14,96.66 847.64,96.2 C847.24,95.84 847.08,95.48 846.94,94.74 L845.3,95.02 C845.5,95.84 845.64,96.18 845.94,96.6 C846.68,97.62 848.08,98.16 849.9,98.16 Z M869.92,98.16 C870.94,98.16 872.06,98.02 872.9,97.78 C873.82,97.52 874.42,97.24 875.62,96.54 C875.513333,95.8288889 875.485679,95.3706173 875.48085,94.6173663 L875.48,92.48 C875.48,91.56 875.5,91.06 875.62,90.22 C875.068889,90.2733333 874.565185,90.2950617 873.799863,90.2992318 L872.92,90.3 C871.84,90.3 871.34,90.28 870.74,90.18 L870.74,91.8 C871.253333,91.7083333 871.682639,91.6838889 872.55169,91.6804514 L873.98,91.68 L873.98,95.7 C872.8,96.46 871.52,96.82 869.94,96.82 C868.36,96.82 867.12,96.34 866.22,95.38 C865.12,94.2 864.54,92.44 864.54,90.3 C864.54,86.28 866.56,83.82 869.86,83.82 C872,83.82 873.34,84.74 874.06,86.7 L875.62,86.18 C875.18,85.1 874.82,84.52 874.16,83.9 C873.1,82.92 871.66,82.42 869.88,82.42 C865.62,82.42 862.9,85.48 862.9,90.3 C862.9,93 863.8,95.3 865.36,96.68 C866.52,97.68 868.02,98.16 869.92,98.16 Z M878.48,98 C879.18,97.96 879.8,97.94 880.68,97.94 L885.16,97.94 C888.22,97.94 889.98,96.42 889.98,93.74 C889.98,92.46 889.56,91.44 888.74,90.74 C888.2,90.28 887.72,90.08 886.8,89.9 C887.6,89.64 887.96,89.46 888.38,89.1 C889.1,88.46 889.46,87.58 889.46,86.42 C889.46,84.06 887.84,82.74 884.94,82.74 L879.84898,82.7390671 C879.273469,82.7367347 878.942857,82.7285714 878.5,82.7 C878.62,83.42 878.66,83.96 878.66,84.82 L878.66,95.52 C878.66,96.68 878.62,97.2 878.48,98 Z M884.92,89.26 L880.2,89.26 L880.2,84.1 L884.9,84.1 C886.88,84.1 887.88,84.94 887.88,86.6 C887.88,88.28 886.78,89.26 884.92,89.26 Z M885.02,96.58 L880.2,96.58 L880.2,90.62 L884.98,90.62 C887.2,90.62 888.36,91.64 888.36,93.62 C888.36,95.54 887.2,96.58 885.02,96.58 Z" id="HiraginoSansGB" fill="#7B8AA9"></path>
            <path d="M1386.51836,98.06 L1386.51836,88.1283594 C1386.51836,86.7872135 1386.48581,85.7650781 1386.4207,85.0619531 L1386.4207,85.0619531 L1386.4793,85.0619531 C1386.66159,85.8757552 1386.81133,86.4128646 1386.92852,86.6732812 L1386.92852,86.6732812 L1391.90898,98.06 L1392.99297,98.06 L1397.9832,86.5853906 C1398.11341,86.2989323 1398.26315,85.7911198 1398.43242,85.0619531 L1398.43242,85.0619531 L1398.48125,85.0619531 C1398.38359,86.2208073 1398.33477,87.2136458 1398.33477,88.0404687 L1398.33477,88.0404687 L1398.33477,98.06 L1400.27812,98.06 L1400.27812,82.9330469 L1397.75859,82.9330469 L1393.21758,93.2650781 C1393.08086,93.5971094 1392.84323,94.2286198 1392.50469,95.1596094 L1392.50469,95.1596094 L1392.43633,95.1596094 C1392.32565,94.716901 1392.10104,94.0984115 1391.7625,93.3041406 L1391.7625,93.3041406 L1387.29961,82.9330469 L1384.65312,82.9330469 L1384.65312,98.06 L1386.51836,98.06 Z M1404.9168,84.6322656 C1405.26185,84.6322656 1405.55319,84.5199609 1405.79082,84.2953516 C1406.02845,84.0707422 1406.14727,83.7891667 1406.14727,83.450625 C1406.14727,83.1055729 1406.02845,82.8191146 1405.79082,82.59125 C1405.55319,82.3633854 1405.26185,82.2494531 1404.9168,82.2494531 C1404.57826,82.2494531 1404.29342,82.365013 1404.0623,82.5961328 C1403.83118,82.8272526 1403.71562,83.1120833 1403.71562,83.450625 C1403.71562,83.7891667 1403.82956,84.0707422 1404.05742,84.2953516 C1404.28529,84.5199609 1404.57174,84.6322656 1404.9168,84.6322656 Z M1405.8543,98.06 L1405.8543,87.2592187 L1403.94023,87.2592187 L1403.94023,98.06 L1405.8543,98.06 Z M1413.74492,98.3139062 C1414.91029,98.3139062 1415.90638,98.0665104 1416.7332,97.5717187 L1416.7332,97.5717187 L1416.7332,95.8139062 C1415.90638,96.4258854 1415.02747,96.731875 1414.09648,96.731875 C1412.99622,96.731875 1412.1222,96.3803125 1411.47441,95.6771875 C1410.82663,94.9740625 1410.50273,94.0007552 1410.50273,92.7572656 C1410.50273,91.4942448 1410.84616,90.4835026 1411.53301,89.7250391 C1412.21986,88.9665755 1413.11016,88.5873437 1414.20391,88.5873437 C1415.1349,88.5873437 1415.98125,88.8672917 1416.74297,89.4271875 L1416.74297,89.4271875 L1416.74297,87.5326562 C1416.03984,87.1810937 1415.19349,87.0053125 1414.20391,87.0053125 C1412.48516,87.0053125 1411.11309,87.5473047 1410.0877,88.6312891 C1409.0623,89.7152734 1408.54961,91.1426823 1408.54961,92.9135156 C1408.54961,94.5085677 1409.02487,95.8073958 1409.97539,96.81 C1410.92591,97.8126042 1412.18242,98.3139062 1413.74492,98.3139062 Z M1421.21562,98.06 L1421.21562,92.59125 C1421.21562,91.4584375 1421.45651,90.5453516 1421.93828,89.8519922 C1422.42005,89.1586328 1423.03203,88.8119531 1423.77422,88.8119531 C1424.33411,88.8119531 1424.77357,88.9258854 1425.09258,89.15375 L1425.09258,89.15375 L1425.09258,87.2201562 C1424.8582,87.1225 1424.52292,87.0736719 1424.08672,87.0736719 C1422.74557,87.0736719 1421.80156,87.8679427 1421.25469,89.4564844 L1421.25469,89.4564844 L1421.21562,89.4564844 L1421.21562,87.2592187 L1419.30156,87.2592187 L1419.30156,98.06 L1421.21562,98.06 Z M1431.52812,98.3139062 C1433.18177,98.3139062 1434.50013,97.7898177 1435.4832,96.7416406 C1436.46628,95.6934635 1436.95781,94.3165104 1436.95781,92.6107812 C1436.95781,90.8594792 1436.4972,89.4874089 1435.57598,88.4945703 C1434.65475,87.5017318 1433.38359,87.0053125 1431.7625,87.0053125 C1430.05677,87.0053125 1428.70586,87.521263 1427.70977,88.5531641 C1426.71367,89.5850651 1426.21562,90.9929427 1426.21562,92.7767969 C1426.21562,94.4369531 1426.6974,95.7748437 1427.66094,96.7904687 C1428.62448,97.8060937 1429.91354,98.3139062 1431.52812,98.3139062 Z M1431.64531,96.731875 C1430.58411,96.731875 1429.73939,96.3738021 1429.11113,95.6576562 C1428.48288,94.9415104 1428.16875,93.9616927 1428.16875,92.7182031 C1428.16875,91.435651 1428.47962,90.4265365 1429.10137,89.6908594 C1429.72311,88.9551823 1430.57109,88.5873437 1431.64531,88.5873437 C1432.73906,88.5873437 1433.5724,88.9389062 1434.14531,89.6420312 C1434.71823,90.3451562 1435.00469,91.3542708 1435.00469,92.669375 C1435.00469,93.9779687 1434.71823,94.9822005 1434.14531,95.6820703 C1433.5724,96.3819401 1432.73906,96.731875 1431.64531,96.731875 Z M1441.97734,98.3139062 C1443.26641,98.3139062 1444.31621,98.0290755 1445.12676,97.4594141 C1445.9373,96.8897526 1446.34258,96.1101302 1446.34258,95.1205469 C1446.34258,94.4109115 1446.13099,93.8152083 1445.70781,93.3334375 C1445.28464,92.8516667 1444.47083,92.3861719 1443.26641,91.9369531 C1442.31589,91.559349 1441.70228,91.2501042 1441.42559,91.0092187 C1441.14889,90.7683333 1441.01055,90.4330469 1441.01055,90.0033594 C1441.01055,89.5671615 1441.2026,89.215599 1441.58672,88.9486719 C1441.97083,88.6817448 1442.46888,88.5482812 1443.08086,88.5482812 C1444.10299,88.5482812 1445.01771,88.8086979 1445.825,89.3295312 L1445.825,89.3295312 L1445.825,87.4838281 C1445.03724,87.1648177 1444.18437,87.0053125 1443.26641,87.0053125 C1442.08151,87.0053125 1441.08379,87.2933984 1440.27324,87.8695703 C1439.4627,88.4457422 1439.05742,89.2123437 1439.05742,90.169375 C1439.05742,90.8399479 1439.23646,91.411237 1439.59453,91.8832422 C1439.9526,92.3552474 1440.7306,92.8321354 1441.92852,93.3139062 C1442.92461,93.685 1443.58542,94.005638 1443.91094,94.2758203 C1444.23646,94.5460026 1444.39922,94.8894271 1444.39922,95.3060937 C1444.39922,96.2826562 1443.65378,96.7709375 1442.16289,96.7709375 C1441.04961,96.7709375 1440.0112,96.4226302 1439.04766,95.7260156 L1439.04766,95.7260156 L1439.04766,97.6791406 C1439.88099,98.1023177 1440.85755,98.3139062 1441.97734,98.3139062 Z M1453.50078,98.3139062 C1455.15443,98.3139062 1456.47279,97.7898177 1457.45586,96.7416406 C1458.43893,95.6934635 1458.93047,94.3165104 1458.93047,92.6107812 C1458.93047,90.8594792 1458.46986,89.4874089 1457.54863,88.4945703 C1456.62741,87.5017318 1455.35625,87.0053125 1453.73516,87.0053125 C1452.02943,87.0053125 1450.67852,87.521263 1449.68242,88.5531641 C1448.68633,89.5850651 1448.18828,90.9929427 1448.18828,92.7767969 C1448.18828,94.4369531 1448.67005,95.7748437 1449.63359,96.7904687 C1450.59714,97.8060937 1451.8862,98.3139062 1453.50078,98.3139062 Z M1453.61797,96.731875 C1452.55677,96.731875 1451.71204,96.3738021 1451.08379,95.6576562 C1450.45553,94.9415104 1450.14141,93.9616927 1450.14141,92.7182031 C1450.14141,91.435651 1450.45228,90.4265365 1451.07402,89.6908594 C1451.69577,88.9551823 1452.54375,88.5873437 1453.61797,88.5873437 C1454.71172,88.5873437 1455.54505,88.9389062 1456.11797,89.6420312 C1456.69089,90.3451562 1456.97734,91.3542708 1456.97734,92.669375 C1456.97734,93.9779687 1456.69089,94.9822005 1456.11797,95.6820703 C1455.54505,96.3819401 1454.71172,96.731875 1453.61797,96.731875 Z M1464.20391,98.06 L1464.20391,88.84125 L1466.7332,88.84125 L1466.7332,87.2592187 L1464.20391,87.2592187 L1464.20391,85.6478906 C1464.20391,84.1635156 1464.80286,83.4213281 1466.00078,83.4213281 C1466.41745,83.4213281 1466.80482,83.5157292 1467.16289,83.7045312 L1467.16289,83.7045312 L1467.16289,82.0248437 C1466.83737,81.9011458 1466.40117,81.8392969 1465.8543,81.8392969 C1464.82565,81.8392969 1463.97767,82.1697005 1463.31035,82.8305078 C1462.64303,83.4913151 1462.30937,84.4011458 1462.30937,85.56 L1462.30937,85.56 L1462.30937,87.2592187 L1460.46367,87.2592187 L1460.46367,88.84125 L1462.30937,88.84125 L1462.30937,98.06 L1464.20391,98.06 Z M1472.05547,98.294375 C1472.7651,98.294375 1473.32826,98.1804427 1473.74492,97.9525781 L1473.74492,97.9525781 L1473.74492,96.3607812 C1473.42591,96.6016667 1473.05156,96.7221094 1472.62187,96.7221094 C1472.06198,96.7221094 1471.66159,96.5691146 1471.4207,96.263125 C1471.17982,95.9571354 1471.05937,95.4493229 1471.05937,94.7396875 L1471.05937,94.7396875 L1471.05937,88.84125 L1473.74492,88.84125 L1473.74492,87.2592187 L1471.05937,87.2592187 L1471.05937,84.0560937 L1469.15508,84.6615625 L1469.15508,87.2592187 L1467.29961,87.2592187 L1467.29961,88.84125 L1469.15508,88.84125 L1469.15508,95.0814844 C1469.15508,97.2234115 1470.12187,98.294375 1472.05547,98.294375 Z M1487.20195,98.06 L1487.20195,92.4935937 L1492.18242,82.9330469 L1490.10234,82.9330469 L1486.68437,89.6420312 C1486.49557,90.0066146 1486.36211,90.325625 1486.28398,90.5990625 L1486.28398,90.5990625 L1486.25469,90.5990625 C1486.02031,89.9610417 1485.89987,89.638776 1485.89336,89.6322656 L1485.89336,89.6322656 L1482.62187,82.9330469 L1480.38555,82.9330469 L1485.23906,92.5424219 L1485.23906,98.06 L1487.20195,98.06 Z M1496.62578,98.3139062 C1498.08411,98.3139062 1499.18763,97.6726302 1499.93633,96.3900781 L1499.93633,96.3900781 L1499.98516,96.3900781 L1499.98516,98.06 L1501.87969,98.06 L1501.87969,91.106875 C1501.87969,88.3725 1500.5776,87.0053125 1497.97344,87.0053125 C1496.56719,87.0053125 1495.32695,87.340599 1494.25273,88.0111719 L1494.25273,88.0111719 L1494.25273,89.856875 C1495.32044,88.9844792 1496.50208,88.5482812 1497.79766,88.5482812 C1499.25599,88.5482812 1499.98516,89.4304427 1499.98516,91.1947656 L1499.98516,91.1947656 L1496.78203,91.6439844 C1494.39271,91.9760156 1493.19805,93.1511458 1493.19805,95.169375 C1493.19805,96.1329167 1493.50729,96.8978906 1494.12578,97.4642969 C1494.74427,98.0307031 1495.5776,98.3139062 1496.62578,98.3139062 Z M1497.11406,96.7611719 C1496.5151,96.7611719 1496.03333,96.5984115 1495.66875,96.2728906 C1495.30417,95.9473698 1495.12187,95.5274479 1495.12187,95.013125 C1495.12187,94.4271875 1495.28952,93.9714583 1495.6248,93.6459375 C1495.96009,93.3204167 1496.57044,93.0990625 1497.45586,92.981875 L1497.45586,92.981875 L1499.98516,92.6400781 L1499.98516,93.6752344 C1499.98516,94.560651 1499.71497,95.2963281 1499.17461,95.8822656 C1498.63424,96.4682031 1497.9474,96.7611719 1497.11406,96.7611719 Z M1507.25078,98.06 L1507.25078,91.2435937 L1514.90703,91.2435937 L1514.90703,98.06 L1516.86016,98.06 L1516.86016,82.9330469 L1514.90703,82.9330469 L1514.90703,89.5053125 L1507.25078,89.5053125 L1507.25078,82.9330469 L1505.29766,82.9330469 L1505.29766,98.06 L1507.25078,98.06 Z M1524.77031,98.3139062 C1526.33932,98.3139062 1527.59909,97.9786198 1528.54961,97.3080469 L1528.54961,97.3080469 L1528.54961,95.5990625 C1527.54049,96.3738021 1526.43047,96.7611719 1525.21953,96.7611719 C1524.14531,96.7611719 1523.30872,96.4470443 1522.70977,95.8187891 C1522.11081,95.1905339 1521.79505,94.3002344 1521.7625,93.1478906 L1521.7625,93.1478906 L1529.32109,93.1478906 L1529.32109,92.1810937 C1529.32109,90.5469792 1528.92396,89.2758203 1528.12969,88.3676172 C1527.33542,87.4594141 1526.2319,87.0053125 1524.81914,87.0053125 C1523.39336,87.0053125 1522.20033,87.5424219 1521.24004,88.6166406 C1520.27975,89.6908594 1519.79961,91.0547917 1519.79961,92.7084375 C1519.79961,94.46625 1520.23743,95.8399479 1521.11309,96.8295312 C1521.98874,97.8191146 1523.20781,98.3139062 1524.77031,98.3139062 Z M1527.40703,91.6146875 L1521.7625,91.6146875 C1521.90573,90.7032292 1522.25566,89.9642969 1522.8123,89.3978906 C1523.36895,88.8314844 1524.02812,88.5482812 1524.78984,88.5482812 C1525.61667,88.5482812 1526.25794,88.8152083 1526.71367,89.3490625 C1527.1694,89.8829167 1527.40052,90.638125 1527.40703,91.6146875 L1527.40703,91.6146875 Z M1532.83672,84.6322656 C1533.18177,84.6322656 1533.47311,84.5199609 1533.71074,84.2953516 C1533.94837,84.0707422 1534.06719,83.7891667 1534.06719,83.450625 C1534.06719,83.1055729 1533.94837,82.8191146 1533.71074,82.59125 C1533.47311,82.3633854 1533.18177,82.2494531 1532.83672,82.2494531 C1532.49818,82.2494531 1532.21335,82.365013 1531.98223,82.5961328 C1531.75111,82.8272526 1531.63555,83.1120833 1531.63555,83.450625 C1531.63555,83.7891667 1531.74948,84.0707422 1531.97734,84.2953516 C1532.20521,84.5199609 1532.49167,84.6322656 1532.83672,84.6322656 Z M1533.77422,98.06 L1533.77422,87.2592187 L1531.86016,87.2592187 L1531.86016,98.06 L1533.77422,98.06 Z" id="MicrosoftYaHei" fill="#7B8AA9"></path>
            <path d="M54.108,139.06 L54.108,131.5 C54.108,130.516 54.396,129.676 54.972,129.004 C55.548,128.284 56.268,127.948 57.156,127.948 C59.052,127.948 60.012,129.028 60.012,131.236 L60.012,139.06 L61.932,139.06 L61.932,131.284 C61.932,130.276 62.196,129.484 62.772,128.86 C63.3,128.236 63.996,127.948 64.812,127.948 C65.868,127.948 66.636,128.212 67.116,128.788 C67.572,129.316 67.812,130.132 67.812,131.236 L67.812,139.06 L69.732,139.06 L69.732,130.924 C69.732,129.508 69.324,128.38 68.556,127.54 C67.74,126.724 66.708,126.316 65.412,126.316 C64.548,126.316 63.828,126.508 63.228,126.892 C62.556,127.252 61.98,127.852 61.5,128.668 C60.804,127.084 59.508,126.316 57.612,126.316 C56.22,126.316 55.044,126.964 54.108,128.308 L54.108,126.652 L52.188,126.652 L52.188,139.06 L54.108,139.06 Z M76.356,139.396 C77.508,139.396 78.54,139.132 79.452,138.628 C80.22,138.196 80.868,137.644 81.348,136.972 L81.348,139.06 L83.148,139.06 L83.148,131.092 C83.148,129.652 82.764,128.524 82.044,127.708 C81.18,126.772 79.884,126.316 78.108,126.316 C76.62,126.316 75.444,126.604 74.532,127.18 C73.524,127.804 72.876,128.788 72.612,130.084 L74.508,130.228 C74.7,129.436 75.108,128.836 75.756,128.452 C76.332,128.068 77.076,127.9 77.988,127.9 C80.148,127.9 81.228,128.932 81.228,131.02 L81.228,131.668 L78.252,131.716 C76.38,131.74 74.94,132.1 73.932,132.772 C72.78,133.492 72.228,134.548 72.228,135.964 C72.228,136.972 72.612,137.812 73.38,138.46 C74.124,139.084 75.108,139.396 76.356,139.396 Z M76.764,137.884 C75.996,137.884 75.372,137.692 74.892,137.332 C74.412,136.948 74.196,136.492 74.196,135.916 C74.196,134.116 75.588,133.204 78.372,133.156 L81.228,133.108 L81.228,134.164 C81.228,135.124 80.772,135.988 79.884,136.732 C78.972,137.5 77.94,137.884 76.764,137.884 Z M91.452,139.396 C92.988,139.396 94.212,138.988 95.148,138.196 C96.108,137.38 96.708,136.156 96.996,134.572 L95.076,134.572 C94.788,136.708 93.564,137.788 91.452,137.788 C90.204,137.788 89.244,137.332 88.596,136.468 C87.924,135.604 87.612,134.404 87.612,132.892 C87.612,131.38 87.948,130.18 88.62,129.292 C89.316,128.38 90.276,127.924 91.476,127.924 C92.46,127.924 93.252,128.14 93.876,128.62 C94.476,129.1 94.86,129.82 95.028,130.78 L96.924,130.78 C96.708,129.268 96.132,128.14 95.172,127.396 C94.236,126.676 93.012,126.316 91.476,126.316 C89.628,126.316 88.164,126.964 87.108,128.284 C86.124,129.484 85.644,131.02 85.644,132.916 C85.644,134.812 86.124,136.348 87.108,137.524 C88.14,138.772 89.58,139.396 91.452,139.396 Z M106.956,139.396 C109.524,139.396 111.564,138.532 113.052,136.828 C114.444,135.196 115.164,133.108 115.164,130.516 C115.164,127.9 114.444,125.788 113.052,124.156 C111.564,122.428 109.524,121.588 106.98,121.588 C104.388,121.588 102.372,122.452 100.884,124.18 C99.468,125.812 98.772,127.924 98.772,130.516 C98.772,133.084 99.468,135.196 100.884,136.828 C102.372,138.532 104.388,139.396 106.956,139.396 Z M106.956,137.644 C104.988,137.644 103.428,136.972 102.324,135.628 C101.268,134.332 100.74,132.628 100.74,130.516 C100.74,128.38 101.268,126.676 102.324,125.38 C103.452,124.012 105.012,123.34 106.98,123.34 C108.948,123.34 110.484,123.988 111.588,125.308 C112.644,126.604 113.196,128.332 113.196,130.516 C113.196,132.676 112.644,134.38 111.588,135.676 C110.484,136.972 108.924,137.644 106.956,137.644 Z M122.268,139.396 C125.772,139.396 127.524,138.1 127.524,135.556 C127.524,134.476 127.02,133.636 126.036,133.012 C125.388,132.604 124.332,132.22 122.844,131.86 C121.596,131.524 120.732,131.26 120.276,131.044 C119.556,130.684 119.22,130.228 119.22,129.7 C119.22,129.148 119.484,128.716 120.012,128.404 C120.492,128.068 121.164,127.924 122.028,127.924 C123.012,127.924 123.78,128.116 124.308,128.5 C124.788,128.836 125.1,129.412 125.268,130.18 L127.14,130.18 C126.804,127.588 125.124,126.316 122.052,126.316 C120.66,126.316 119.508,126.628 118.644,127.252 C117.708,127.876 117.252,128.692 117.252,129.748 C117.252,130.804 117.708,131.596 118.668,132.172 C119.244,132.556 120.276,132.916 121.74,133.276 C123.084,133.612 123.972,133.876 124.38,134.068 C125.148,134.452 125.556,134.98 125.556,135.676 C125.556,137.068 124.428,137.788 122.22,137.788 C121.164,137.788 120.372,137.596 119.844,137.212 C119.316,136.78 118.956,136.084 118.812,135.1 L116.94,135.1 C117.228,137.956 119.004,139.396 122.268,139.396 Z M134.172,141.46 L134.172,125.188 C135.036,123.628 135.78,121.972 136.356,120.244 L134.796,119.524 C133.62,123.22 131.748,126.508 129.156,129.388 L129.66,131.116 C130.668,130.084 131.604,128.98 132.444,127.828 L132.444,141.46 L134.172,141.46 Z M136.404,141.388 C139.86,138.196 141.876,133.396 142.404,126.988 L143.916,126.988 L143.916,139.084 C143.916,140.404 144.54,141.076 145.812,141.076 L148.788,141.076 C149.412,141.052 149.916,140.812 150.252,140.38 C150.588,139.852 150.852,138.292 151.02,135.748 L149.46,135.244 C149.388,137.452 149.244,138.724 149.028,139.084 C148.836,139.348 148.62,139.492 148.356,139.492 L146.268,139.492 C145.788,139.492 145.572,139.252 145.572,138.772 L145.572,126.988 L150.564,126.988 L150.564,125.308 L142.5,125.308 C142.524,124.828 142.548,124.348 142.548,123.868 L142.548,119.524 L140.892,119.524 L140.892,123.868 C140.892,124.348 140.868,124.828 140.844,125.308 L135.9,125.308 L135.9,126.988 L140.748,126.988 C140.22,132.94 138.348,137.356 135.132,140.284 L136.404,141.388 Z M148.284,124.276 L149.46,123.1 C148.452,122.044 147.18,120.988 145.692,119.956 L144.564,121.036 C146.148,122.164 147.372,123.244 148.284,124.276 Z M154.692,141.46 C157.332,140.308 159.228,138.916 160.356,137.284 C161.316,135.892 161.916,133.804 162.156,130.972 L166.62,130.972 L166.62,138.316 C166.62,140.164 167.436,141.1 169.068,141.1 L172.332,141.1 C173.1,141.076 173.676,140.836 174.108,140.404 C174.54,139.852 174.876,138.244 175.068,135.604 L173.412,135.076 C173.316,137.332 173.124,138.652 172.812,139.036 C172.572,139.3 172.26,139.444 171.876,139.444 L169.572,139.444 C168.78,139.444 168.396,138.964 168.396,138.004 L168.396,130.972 L174.948,130.972 L174.948,129.316 L165.372,129.316 L165.372,124.78 L173.292,124.78 L173.292,123.124 L165.372,123.124 L165.372,119.476 L163.62,119.476 L163.62,123.124 L158.724,123.124 C159.108,122.188 159.468,121.204 159.78,120.148 L158.028,119.788 C157.26,122.5 155.988,124.972 154.236,127.228 L155.892,128.26 C156.66,127.204 157.356,126.052 157.98,124.78 L163.62,124.78 L163.62,129.316 L153.756,129.316 L153.756,130.972 L160.38,130.972 C160.164,133.42 159.612,135.244 158.7,136.444 C157.668,137.788 155.94,138.964 153.492,139.924 L154.692,141.46 Z" id="macOs优先" fill="#7B8AA9"></path>
            <path d="M1406.884,131.276 C1407.7,129.284 1408.348,127.268 1408.852,125.228 L1408.852,124.1 L1398.772,124.1 C1399.036,123.044 1399.252,121.892 1399.444,120.644 L1397.716,120.38 C1397.14,124.556 1395.868,127.844 1393.9,130.196 L1395.34,131.204 C1396.564,129.812 1397.548,127.988 1398.292,125.756 L1407.004,125.756 C1406.524,127.628 1405.924,129.308 1405.18,130.796 L1406.884,131.276 Z M1392.268,127.34 L1393.612,126.38 C1392.604,124.988 1391.164,123.356 1389.292,121.484 L1387.9,122.348 C1389.724,124.172 1391.188,125.852 1392.268,127.34 Z M1394.164,142.508 C1397.86,140.684 1400.212,138.332 1401.244,135.452 C1401.436,134.924 1401.604,134.372 1401.748,133.772 C1403.284,137.228 1405.588,140.108 1408.708,142.46 L1409.836,141.14 C1406.212,138.644 1403.692,135.26 1402.252,130.988 C1402.372,129.884 1402.444,128.684 1402.444,127.388 L1400.764,127.388 C1400.716,130.508 1400.308,133.1 1399.54,135.14 C1398.46,137.54 1396.3,139.556 1393.036,141.14 L1394.164,142.508 Z M1389.244,141.692 C1390.9,138.788 1392.388,135.668 1393.732,132.356 L1392.22,131.78 C1390.924,134.9 1389.412,137.972 1387.636,140.972 L1389.244,141.692 Z M1412.644,136.004 C1414.972,135.716 1417.42,135.212 1419.964,134.444 L1419.964,132.884 C1418.236,133.412 1416.484,133.844 1414.756,134.156 C1416.244,132.5 1418.092,129.716 1420.348,125.828 L1418.836,125.276 C1418.332,126.164 1417.852,127.004 1417.396,127.82 C1416.244,128.012 1415.092,128.156 1413.94,128.276 C1415.236,126.5 1416.508,124.1 1417.756,121.076 L1416.124,120.428 C1415.116,123.164 1413.916,125.612 1412.548,127.748 C1412.332,128.06 1412.092,128.276 1411.828,128.372 L1412.26,129.956 C1413.652,129.788 1415.044,129.596 1416.436,129.38 C1415.092,131.54 1413.94,133.052 1412.98,133.964 C1412.764,134.156 1412.5,134.324 1412.188,134.444 L1412.644,136.004 Z M1423.084,142.484 C1425.148,141.476 1426.924,140.228 1428.364,138.692 C1429.564,140.084 1431.028,141.332 1432.708,142.436 L1433.788,140.996 C1432.108,139.94 1430.644,138.764 1429.396,137.42 C1431.124,135.14 1432.228,132.332 1432.732,129.02 L1432.732,128.06 L1429.684,128.06 C1430.068,126.524 1430.452,124.676 1430.836,122.516 L1430.836,121.436 L1420.3,121.436 L1420.3,123.068 L1422.676,123.068 L1422.676,124.364 C1422.628,132.116 1421.044,137.732 1417.924,141.236 L1419.196,142.364 C1421.62,139.628 1423.204,135.716 1423.924,130.652 C1424.668,133.1 1425.772,135.308 1427.212,137.252 C1425.844,138.692 1424.14,139.916 1422.124,140.9 L1423.084,142.484 Z M1428.22,136.052 C1426.204,133.484 1424.884,130.436 1424.284,126.932 C1424.332,126.116 1424.356,125.252 1424.356,124.364 L1424.356,123.068 L1429.06,123.068 C1428.556,125.924 1428.1,128.084 1427.668,129.572 L1431.004,129.572 C1430.524,132.044 1429.612,134.204 1428.22,136.052 Z M1411.876,141.092 C1414.564,140.588 1416.94,139.892 1419.052,139.028 L1419.052,137.396 C1416.94,138.236 1414.468,138.908 1411.66,139.412 L1411.876,141.092 Z M1436.476,132.212 C1440.436,131.564 1443.892,130.508 1446.82,129.044 C1449.604,130.436 1452.964,131.42 1456.9,132.02 L1457.644,130.484 C1454.092,130.004 1451.044,129.236 1448.452,128.132 C1450.564,126.836 1452.364,125.3 1453.852,123.476 L1453.852,122.156 L1444.084,122.156 C1444.468,121.652 1444.852,121.124 1445.212,120.548 L1443.508,120.164 C1441.756,122.732 1439.524,124.796 1436.836,126.356 L1437.94,127.7 C1439.14,126.932 1440.268,126.092 1441.324,125.132 C1442.428,126.26 1443.7,127.268 1445.14,128.132 C1442.452,129.332 1439.332,130.196 1435.732,130.7 L1436.476,132.212 Z M1446.748,127.34 C1445.02,126.428 1443.556,125.372 1442.356,124.148 L1442.836,123.668 L1451.716,123.668 C1450.324,125.06 1448.668,126.284 1446.748,127.34 Z M1440.82,142.46 L1440.82,141.404 L1452.628,141.404 L1452.628,142.46 L1454.284,142.46 L1454.284,131.996 L1439.164,131.996 L1439.164,142.46 L1440.82,142.46 Z M1445.884,135.98 L1440.82,135.98 L1440.82,133.436 L1445.884,133.436 L1445.884,135.98 Z M1452.628,135.98 L1447.516,135.98 L1447.516,133.436 L1452.628,133.436 L1452.628,135.98 Z M1445.884,139.916 L1440.82,139.916 L1440.82,137.372 L1445.884,137.372 L1445.884,139.916 Z M1452.628,139.916 L1447.516,139.916 L1447.516,137.372 L1452.628,137.372 L1452.628,139.916 Z M1461.028,142.244 C1462.564,140.228 1463.452,137.684 1463.716,134.612 L1469.908,134.612 L1469.908,141.644 L1471.684,141.644 L1471.684,134.612 L1478.212,134.612 L1478.212,138.788 C1478.212,139.796 1477.756,140.3 1476.892,140.3 C1476.076,140.3 1475.188,140.252 1474.228,140.204 L1474.684,141.908 L1477.444,141.908 C1479.124,141.908 1479.964,141.068 1479.964,139.388 L1479.964,121.412 L1462.084,121.412 L1462.084,132.932 C1462.036,136.22 1461.244,138.932 1459.708,141.068 L1461.028,142.244 Z M1478.212,127.22 L1471.684,127.22 L1471.684,123.092 L1478.212,123.092 L1478.212,127.22 Z M1469.908,127.22 L1463.812,127.22 L1463.812,123.092 L1469.908,123.092 L1469.908,127.22 Z M1469.908,133.028 L1463.812,133.028 L1463.812,128.828 L1469.908,128.828 L1469.908,133.028 Z M1478.212,133.028 L1471.684,133.028 L1471.684,128.828 L1478.212,128.828 L1478.212,133.028 Z M1486.252,128.276 L1486.252,124.58 L1503.148,124.58 L1503.148,128.276 L1504.876,128.276 L1504.876,122.924 L1495.828,122.924 C1495.516,121.94 1495.18,121.052 1494.844,120.26 L1492.876,120.596 C1493.26,121.292 1493.62,122.06 1493.956,122.924 L1484.524,122.924 L1484.524,128.276 L1486.252,128.276 Z M1493.788,142.364 C1495.18,142.364 1495.876,141.692 1495.876,140.372 L1495.876,135.284 L1505.332,135.284 L1505.332,133.604 L1495.876,133.604 L1495.876,131.996 C1497.796,130.94 1499.548,129.884 1501.108,128.78 L1501.108,127.172 L1488.22,127.172 L1488.22,128.78 L1498.516,128.78 C1497.532,129.404 1496.068,130.244 1494.124,131.252 L1494.124,133.604 L1484.092,133.604 L1484.092,135.284 L1494.124,135.284 L1494.124,139.772 C1494.124,140.468 1493.812,140.828 1493.188,140.828 C1492.18,140.828 1491.268,140.804 1490.428,140.78 L1490.836,142.364 L1493.788,142.364 Z M1512.268,142.484 L1512.268,126.74 C1513.204,124.964 1513.972,123.068 1514.596,121.076 L1513.036,120.356 C1511.932,124.316 1510.132,127.82 1507.636,130.892 L1508.14,132.62 C1509.004,131.636 1509.82,130.604 1510.564,129.524 L1510.564,142.484 L1512.268,142.484 Z M1522.252,142.46 L1522.252,137.516 L1525.972,137.516 L1525.972,135.86 L1522.252,135.86 L1522.252,126.236 L1522.54,126.236 C1523.644,130.676 1525.684,134.684 1528.612,138.236 L1529.74,136.82 C1526.956,133.724 1525.012,130.196 1523.908,126.236 L1528.804,126.236 L1528.804,124.556 L1522.252,124.556 L1522.252,120.428 L1520.548,120.428 L1520.548,124.556 L1514.188,124.556 L1514.188,126.236 L1518.868,126.236 C1517.716,130.652 1515.82,134.252 1513.132,137.036 L1514.02,138.524 C1516.972,135.332 1519.06,131.228 1520.26,126.236 L1520.548,126.236 L1520.548,135.86 L1516.876,135.86 L1516.876,137.516 L1520.548,137.516 L1520.548,142.46 L1522.252,142.46 Z" id="次级备用字体" fill="#7B8AA9"></path>
            <path d="M758.476,132.212 C762.436,131.564 765.892,130.508 768.82,129.044 C771.604,130.436 774.964,131.42 778.9,132.02 L779.644,130.484 C776.092,130.004 773.044,129.236 770.452,128.132 C772.564,126.836 774.364,125.3 775.852,123.476 L775.852,122.156 L766.084,122.156 C766.468,121.652 766.852,121.124 767.212,120.548 L765.508,120.164 C763.756,122.732 761.524,124.796 758.836,126.356 L759.94,127.7 C761.14,126.932 762.268,126.092 763.324,125.132 C764.428,126.26 765.7,127.268 767.14,128.132 C764.452,129.332 761.332,130.196 757.732,130.7 L758.476,132.212 Z M768.748,127.34 C767.02,126.428 765.556,125.372 764.356,124.148 L764.836,123.668 L773.716,123.668 C772.324,125.06 770.668,126.284 768.748,127.34 Z M762.82,142.46 L762.82,141.404 L774.628,141.404 L774.628,142.46 L776.284,142.46 L776.284,131.996 L761.164,131.996 L761.164,142.46 L762.82,142.46 Z M767.884,135.98 L762.82,135.98 L762.82,133.436 L767.884,133.436 L767.884,135.98 Z M774.628,135.98 L769.516,135.98 L769.516,133.436 L774.628,133.436 L774.628,135.98 Z M767.884,139.916 L762.82,139.916 L762.82,137.372 L767.884,137.372 L767.884,139.916 Z M774.628,139.916 L769.516,139.916 L769.516,137.372 L774.628,137.372 L774.628,139.916 Z M783.028,142.244 C784.564,140.228 785.452,137.684 785.716,134.612 L791.908,134.612 L791.908,141.644 L793.684,141.644 L793.684,134.612 L800.212,134.612 L800.212,138.788 C800.212,139.796 799.756,140.3 798.892,140.3 C798.076,140.3 797.188,140.252 796.228,140.204 L796.684,141.908 L799.444,141.908 C801.124,141.908 801.964,141.068 801.964,139.388 L801.964,121.412 L784.084,121.412 L784.084,132.932 C784.036,136.22 783.244,138.932 781.708,141.068 L783.028,142.244 Z M800.212,127.22 L793.684,127.22 L793.684,123.092 L800.212,123.092 L800.212,127.22 Z M791.908,127.22 L785.812,127.22 L785.812,123.092 L791.908,123.092 L791.908,127.22 Z M791.908,133.028 L785.812,133.028 L785.812,128.828 L791.908,128.828 L791.908,133.028 Z M800.212,133.028 L793.684,133.028 L793.684,128.828 L800.212,128.828 L800.212,133.028 Z M808.252,128.276 L808.252,124.58 L825.148,124.58 L825.148,128.276 L826.876,128.276 L826.876,122.924 L817.828,122.924 C817.516,121.94 817.18,121.052 816.844,120.26 L814.876,120.596 C815.26,121.292 815.62,122.06 815.956,122.924 L806.524,122.924 L806.524,128.276 L808.252,128.276 Z M815.788,142.364 C817.18,142.364 817.876,141.692 817.876,140.372 L817.876,135.284 L827.332,135.284 L827.332,133.604 L817.876,133.604 L817.876,131.996 C819.796,130.94 821.548,129.884 823.108,128.78 L823.108,127.172 L810.22,127.172 L810.22,128.78 L820.516,128.78 C819.532,129.404 818.068,130.244 816.124,131.252 L816.124,133.604 L806.092,133.604 L806.092,135.284 L816.124,135.284 L816.124,139.772 C816.124,140.468 815.812,140.828 815.188,140.828 C814.18,140.828 813.268,140.804 812.428,140.78 L812.836,142.364 L815.788,142.364 Z M834.268,142.484 L834.268,126.74 C835.204,124.964 835.972,123.068 836.596,121.076 L835.036,120.356 C833.932,124.316 832.132,127.82 829.636,130.892 L830.14,132.62 C831.004,131.636 831.82,130.604 832.564,129.524 L832.564,142.484 L834.268,142.484 Z M844.252,142.46 L844.252,137.516 L847.972,137.516 L847.972,135.86 L844.252,135.86 L844.252,126.236 L844.54,126.236 C845.644,130.676 847.684,134.684 850.612,138.236 L851.74,136.82 C848.956,133.724 847.012,130.196 845.908,126.236 L850.804,126.236 L850.804,124.556 L844.252,124.556 L844.252,120.428 L842.548,120.428 L842.548,124.556 L836.188,124.556 L836.188,126.236 L840.868,126.236 C839.716,130.652 837.82,134.252 835.132,137.036 L836.02,138.524 C838.972,135.332 841.06,131.228 842.26,126.236 L842.548,126.236 L842.548,135.86 L838.876,135.86 L838.876,137.516 L842.548,137.516 L842.548,142.46 L844.252,142.46 Z" id="备用字体" fill="#7B8AA9"></path>
            <path d="M25.92,56.48 L25.92,36.02 L43.14,36.02 L43.14,39.8 L47.46,39.8 L47.46,11.6 L25.92,11.6 L25.92,0.8 L21.48,0.8 L21.48,11.6 L4.54747351e-13,11.6 L4.54747351e-13,39.8 L4.32,39.8 L4.32,36.02 L21.48,36.02 L21.48,56.48 L25.92,56.48 Z M21.48,31.82 L4.32,31.82 L4.32,15.8 L21.48,15.8 L21.48,31.82 Z M43.14,31.82 L25.92,31.82 L25.92,15.8 L43.14,15.8 L43.14,31.82 Z M108.84,56.3 L111.18,52.7 C101.58,49.16 93.6,44.72 87.24,39.32 C93.12,32.96 97.56,24.98 100.5,15.5 L109.86,15.5 L109.86,11.18 L86.94,11.18 C85.02,7.04 82.98,3.5 80.7,0.62 L76.38,2.18 C78.78,5 80.76,8 82.38,11.18 L57.54,11.18 L57.54,15.5 L66.78,15.5 C69.48,24.74 74.28,32.78 81.24,39.62 C74.76,45.5 66.48,49.76 56.4,52.46 L58.68,56.24 C68.88,53.3 77.4,48.68 84.24,42.38 C90.72,47.96 98.88,52.58 108.84,56.3 Z M84.24,36.62 C78,30.62 73.62,23.6 71.04,15.5 L96,15.5 C93.48,23.78 89.58,30.8 84.24,36.62 Z M122.58,20.6 L122.58,11.36 L164.82,11.36 L164.82,20.6 L169.14,20.6 L169.14,7.22 L146.52,7.22 C145.74,4.76 144.9,2.54 144.06,0.56 L139.14,1.4 C140.1,3.14 141,5.06 141.84,7.22 L118.26,7.22 L118.26,20.6 L122.58,20.6 Z M141.42,55.82 C144.9,55.82 146.64,54.14 146.64,50.84 L146.64,38.12 L170.28,38.12 L170.28,33.92 L146.64,33.92 L146.64,29.9 C151.44,27.26 155.82,24.62 159.72,21.86 L159.72,17.84 L127.5,17.84 L127.5,21.86 L153.24,21.86 C150.78,23.42 147.12,25.52 142.26,28.04 L142.26,33.92 L117.18,33.92 L117.18,38.12 L142.26,38.12 L142.26,49.34 C142.26,51.08 141.48,51.98 139.92,51.98 C137.4,51.98 135.12,51.92 133.02,51.86 L134.04,55.82 L141.42,55.82 Z M187.62,56.12 L187.62,16.76 C189.96,12.32 191.88,7.58 193.44,2.6 L189.54,0.8 C186.78,10.7 182.28,19.46 176.04,27.14 L177.3,31.46 C179.46,29 181.5,26.42 183.36,23.72 L183.36,56.12 L187.62,56.12 Z M212.58,56.06 L212.58,43.7 L221.88,43.7 L221.88,39.56 L212.58,39.56 L212.58,15.5 L213.3,15.5 C216.06,26.6 221.16,36.62 228.48,45.5 L231.3,41.96 C224.34,34.22 219.48,25.4 216.72,15.5 L228.96,15.5 L228.96,11.3 L212.58,11.3 L212.58,0.98 L208.32,0.98 L208.32,11.3 L192.42,11.3 L192.42,15.5 L204.12,15.5 C201.24,26.54 196.5,35.54 189.78,42.5 L192,46.22 C199.38,38.24 204.6,27.98 207.6,15.5 L208.32,15.5 L208.32,39.56 L199.14,39.56 L199.14,43.7 L208.32,43.7 L208.32,56.06 L212.58,56.06 Z" id="中文字体" fill="#17233D"></path>
            <path d="M716.62,55.38 C716.2744,53.5368 716.20528,52.080672 716.200303,48.9413338 L716.2,34.56 L734.08,34.56 L734.08,38.64 L738.4,38.64 C738.16,36.84 738.04,35.28 738.04,33.3 L738.04,16.92 C738.04,15 738.1,13.74 738.34,12.18 C737.052,12.348 735.973067,12.4114667 734.176338,12.4191822 L716.2,12.42 L716.2,7.14 C716.2,4.56 716.32,2.88 716.62,1.02 L711.82,1.02 C712.12,2.88 712.24,4.32 712.24,7.26 L712.24,12.42 L695.56,12.42 C693.64,12.42 692.5,12.36 691.06,12.18 C691.24,13.74 691.36,15.06 691.36,16.92 L691.36,33.3 C691.36,35.22 691.24,36.9 691,38.64 L695.32,38.64 L695.32,34.56 L712.24,34.56 L712.24,48.54 C712.24,51.78 712.12,53.34 711.82,55.38 L716.62,55.38 Z M734.08,30.96 L716.2,30.96 L716.2,16.02 L734.08,16.02 L734.08,30.96 Z M712.24,30.96 L695.32,30.96 L695.32,16.02 L712.24,16.02 L712.24,30.96 Z M799.66,54.78 C800.38,53.1 801.1,52.02 802.3,50.82 C796.3,49.2 792.94,47.88 788.38,45.36 C784.18,43.08 780.88,40.74 777.46,37.62 C781.12,33.72 783.94,29.64 786.28,24.78 C787.9,21.54 788.2,20.7 789.94,14.94 L794.74,14.94 C798.04,14.94 799.84,15.06 801.52,15.3 L801.52,11.04 C799.66,11.34 797.62,11.46 794.68,11.46 L775.42,11.46 L778,9.84 C775.42,5.46 775.42,5.46 772,0.78 L768.88,2.58 C771.16,5.52 771.16,5.52 774.52,11.46 L754.78,11.46 C751.96,11.46 749.92,11.34 748.06,11.04 L748.06,15.3 C749.86,15.06 751.72,14.94 754.72,14.94 L759.16,14.94 C760.96,20.7 762.28,23.7 764.74,27.84 C766.84,31.44 769,34.38 772,37.68 C765.1,43.98 757,48.3 747.1,51 C748.24,52.2 748.9,53.1 749.62,54.72 C759.4,51.66 767.44,47.1 774.7,40.38 C781.36,46.8 789.28,51.36 799.66,54.78 Z M774.76,34.98 C772.18,32.28 770.2,29.64 768.22,26.4 C765.88,22.56 765.04,20.52 763.3,14.94 L785.56,14.94 C784.36,19.26 783.82,20.58 782.44,23.52 C780.34,27.84 777.94,31.44 774.76,34.98 Z M813.76,19.68 L813.76,11.22 L856,11.22 L856,19.68 L860.02,19.68 C859.84,18.3 859.72,16.92 859.72,15.48 L859.72,12.06 C859.72,10.14 859.78,8.82 860.02,7.44 C857.92,7.68 856.06,7.74 853.6,7.74 L837.52,7.74 C835.3,3.6 835.24,3.54 832.72,0 L829.36,1.98 C830.98,3.96 831.58,4.8 833.32,7.74 L816.16,7.74 C813.7,7.74 811.84,7.68 809.74,7.44 C809.98,9 810.04,10.2 810.04,12.06 L810.04,15.48 C810.04,16.92 809.92,18.3 809.74,19.68 L813.76,19.68 Z M830.32,54.6 C835.06,54.6 836.68,53.34 836.68,49.68 L836.68,36 L854.5,36 C857.02,36 859.06,36.12 860.8,36.36 L860.8,32.16 C859.12,32.4 857.08,32.52 854.5,32.52 L836.68,32.52 L836.68,30.66 C842.38,27.6 845.8,25.32 850.24,21.54 C851.062857,20.8542857 851.435102,20.5408163 851.748571,20.2749271 L851.902222,20.1444444 C852.08,19.9933333 852.26,19.84 852.52,19.62 L850.48,17.16 C849.516667,17.33 848.392778,17.392963 846.4007,17.3994342 L822.76,17.4 C820.12,17.4 818.44,17.28 816.88,17.04 L816.88,21.24 C818.68,20.94 820.42,20.82 822.76,20.82 L845.74,20.82 C842.02,24.06 839.68,25.62 835.36,27.72 L832.36,27.72 C832.6,29.04 832.66,30.48 832.66,32.28 L832.66,32.52 L815.26,32.52 C812.68,32.52 810.76,32.4 808.96,32.16 L808.96,36.36 C810.7,36.12 812.74,36 815.26,36 L832.66,36 L832.66,49.32 C832.66,50.7 832.06,51.06 830.02,51.06 C827.74,51.06 824.02,50.64 821.68,50.16 C822.34,51.84 822.58,52.68 822.76,54.18 C825.58,54.48 827.8,54.6 830.32,54.6 Z M878.74,55.5 C878.515,53.5875 878.448203,51.675 878.440732,49.0209229 L878.44,16.44 C880.42,12.48 881.14,10.8 882.76,6.36 C883.54,4.2 883.84,3.48 884.38,2.22 L880.18,0.96 C879.7,3.72 879.16,5.58 877.9,8.82 C875.26,15.54 871.6,21.3 866.26,27.12 C867.58,28.62 867.76,28.92 868.66,30.54 C871.48,27.3 872.86,25.32 874.84,21.78 C874.684,24.328 874.6632,25.9296 874.660427,28.0689956 L874.66,48.3 C874.66,51.42 874.54,53.34 874.3,55.5 L878.74,55.5 Z M903.34,55.5 C903.1,53.34 902.98,51.6 902.98,49.32 L902.98,43.44 L908.44,43.44 C910.6,43.44 911.86,43.5 913.3,43.74 L913.3,39.78 C912.00625,40.005 910.765234,40.0717969 908.835376,40.0792676 L902.98,40.08 L902.98,27.48 C902.98,25.08 902.92,23.1 902.8,19.98 C905.8,26.82 908.2,30.66 912.34,35.58 C915.16,38.94 917.68,41.52 920.86,44.04 C921.88,42.54 922.66,41.58 923.8,40.68 C919.24,37.44 916.24,34.68 912.94,30.6 C909.58,26.52 908.02,24 904.48,17.4 L915.82,17.4 C918.16,17.4 920.2,17.52 921.94,17.76 L921.94,13.56 C920.2,13.8 918.34,13.92 915.76,13.92 L902.98,13.92 L902.98,7.32 C902.98,5.1 903.16,2.82 903.46,1.44 L898.96,1.44 C899.2,3.18 899.38,5.52 899.38,7.32 L899.38,13.92 L888.46,13.92 C886,13.92 884.02,13.8 882.46,13.56 L882.46,17.76 C884.32,17.52 886.18,17.4 888.4,17.4 L897.82,17.4 C895.6,22.26 894.7,23.82 891.76,27.9 C887.56,33.66 884.44,36.9 879.28,40.62 C880.9,42 881.32,42.42 882.16,43.8 C886.42,40.26 889.24,37.26 892.3,33.06 C895.24,29.16 896.98,25.98 899.5,20.1 C899.401818,22.2109091 899.383967,23.9603306 899.380721,26.0383772 L899.38,40.08 L894.4,40.08 C892.18,40.08 890.8,40.02 889.48,39.78 L889.48,43.74 C890.86,43.5 892.18,43.44 894.34,43.44 L899.38,43.44 L899.38,49.32 C899.38,51.48 899.2,53.46 898.96,55.5 L903.34,55.5 Z" id="中文字体" fill="#17233D"></path>
            <path d="M1371.21953,60.1752344 L1371.21953,38.3783594 L1389.20781,38.3783594 L1389.20781,41.5424219 L1394.0125,41.5424219 L1394.0125,14.8236719 L1371.21953,14.8236719 L1371.21953,2.05023437 L1366.18047,2.05023437 L1366.18047,14.8236719 L1343.62187,14.8236719 L1343.62187,41.5424219 L1348.42656,41.5424219 L1348.42656,38.3783594 L1366.18047,38.3783594 L1366.18047,60.1752344 L1371.21953,60.1752344 Z M1389.20781,34.0424219 L1371.21953,34.0424219 L1371.21953,19.1596094 L1389.20781,19.1596094 L1389.20781,34.0424219 Z M1366.18047,34.0424219 L1348.42656,34.0424219 L1348.42656,19.1596094 L1366.18047,19.1596094 L1366.18047,34.0424219 Z M1403.44609,59.2963281 C1415.02812,55.1166406 1423.45586,50.9760156 1428.7293,46.8744531 C1433.9832,51.0346094 1442.11797,55.0189844 1453.13359,58.8275781 C1454.07109,57.4603906 1455.43828,55.7611719 1457.23516,53.7299219 C1445.92656,50.7221094 1437.67461,47.3236719 1432.4793,43.5346094 C1439.37383,36.7572656 1443.86602,27.7924219 1445.95586,16.6400781 L1445.95586,16.6400781 L1456.76641,16.6400781 L1456.76641,12.3041406 L1429.22734,12.3041406 L1433.44609,10.1947656 C1431.25859,6.40570312 1429.61797,3.67132812 1428.52422,1.99164062 L1428.52422,1.99164062 L1424.0125,4.10101562 C1425.12578,5.81976562 1426.66875,8.55414062 1428.64141,12.3041406 L1428.64141,12.3041406 L1400.51641,12.3041406 L1400.51641,16.6400781 L1411.56133,16.6400781 C1413.49492,26.9330469 1418.02617,35.888125 1425.15508,43.5053125 C1419.51055,47.6264062 1411.10234,51.3666406 1399.93047,54.7260156 C1401.25859,56.4057031 1402.43047,57.9291406 1403.44609,59.2963281 Z M1428.84648,40.4584375 C1422.20586,34.1889062 1418.00664,26.2494531 1416.24883,16.6400781 L1416.24883,16.6400781 L1440.94609,16.6400781 C1439.22734,26.6205469 1435.19414,34.56 1428.84648,40.4584375 Z M1466.78594,22.8510156 L1466.78594,15.2338281 L1511.02422,15.2338281 L1511.02422,22.8510156 L1515.77031,22.8510156 L1515.77031,10.9564844 L1491.07305,10.9564844 L1493.85625,9.08148437 C1492.25469,6.77679687 1490.22344,4.27679687 1487.7625,1.58148437 L1487.7625,1.58148437 L1483.83672,4.21820312 C1485.86797,6.65960937 1487.60625,8.90570312 1489.05156,10.9564844 L1489.05156,10.9564844 L1462.09844,10.9564844 L1462.09844,22.8510156 L1466.78594,22.8510156 Z M1484.71562,59.3549219 C1489.67656,59.3549219 1492.15703,56.8744531 1492.15703,51.9135156 L1492.15703,51.9135156 L1492.15703,41.1322656 L1517.7625,41.1322656 L1517.7625,36.7963281 L1492.15703,36.7963281 L1492.15703,35.2142969 L1506.04375,26.3080469 L1506.04375,21.5619531 L1470.53594,21.5619531 L1470.53594,25.8392969 L1498.89531,25.8392969 L1487.35234,33.1049219 L1487.35234,36.7963281 L1459.87187,36.7963281 L1459.87187,41.1322656 L1487.35234,41.1322656 L1487.35234,50.5072656 C1487.35234,53.2807031 1486.06328,54.6674219 1483.48516,54.6674219 C1481.10234,54.6674219 1478.36797,54.4525781 1475.28203,54.0228906 C1475.59453,56.0150781 1475.82891,57.7533594 1475.98516,59.2377344 C1479.81328,59.3158594 1482.72344,59.3549219 1484.71562,59.3549219 Z M1531.18047,59.7064844 L1531.18047,17.5482812 C1533.09453,13.1732812 1534.81328,8.49554687 1536.33672,3.51507812 L1536.33672,3.51507812 L1531.88359,2.22601562 C1529.11016,12.8119531 1524.89141,22.2455469 1519.22734,30.5267969 C1519.96953,32.1283594 1520.63359,33.7299219 1521.21953,35.3314844 C1523.21172,32.5385156 1525.08672,29.5502344 1526.84453,26.3666406 L1526.84453,26.3666406 L1526.84453,59.7064844 L1531.18047,59.7064844 Z M1557.54766,59.7650781 L1557.54766,47.5189844 L1566.16094,47.5189844 L1566.16094,43.3002344 L1557.54766,43.3002344 L1557.54766,18.5736719 C1561.21953,32.9096094 1566.96172,43.0853906 1574.77422,49.1010156 C1575.75078,47.8119531 1576.90312,46.3666406 1578.23125,44.7650781 C1570.69219,39.4525781 1565.05742,30.7221094 1561.32695,18.5736719 L1561.32695,18.5736719 L1576.23906,18.5736719 L1576.23906,14.3549219 L1557.54766,14.3549219 L1557.54766,2.40179687 L1553.21172,2.40179687 L1553.21172,14.3549219 L1535.16484,14.3549219 L1535.16484,18.5736719 L1548.93437,18.5736719 C1545.18437,30.1947656 1539.53984,39.4525781 1532.00078,46.3471094 C1533.17266,47.6752344 1534.20781,48.9057031 1535.10625,50.0385156 C1543.44609,42.5580469 1549.43242,32.0697656 1553.06523,18.5736719 L1553.06523,18.5736719 L1553.21172,18.5736719 L1553.21172,43.3002344 L1544.59844,43.3002344 L1544.59844,47.5189844 L1553.21172,47.5189844 L1553.21172,59.7650781 L1557.54766,59.7650781 Z" id="中文字体" fill="#17233D"></path>
        </g>
    </g>
</svg>