<?xml version="1.0" encoding="UTF-8"?>
<svg width="1605px" height="158px" viewBox="0 0 1605 158" version="1.1" xmlns="http://www.w3.org/2000/svg" xmlns:xlink="http://www.w3.org/1999/xlink">
    <title>切片备份</title>
    <g id="页面-1" stroke="none" stroke-width="1" fill="none" fill-rule="evenodd">
        <g id="编组-3" transform="translate(54.680000, 12.050781)" fill-rule="nonzero">
            <path d="M12.78,87.9492188 L12.78,81.4092188 L20.3,81.4092188 L20.3,87.9492188 L22.2,87.9492188 L22.2,73.6692188 L20.3,73.6692188 L20.3,79.8092187 L12.78,79.8092187 L12.78,73.6692188 L10.88,73.6692188 L10.88,87.9492188 L12.78,87.9492188 Z M29.44,88.1692188 C30.6133333,88.1692188 31.5866667,87.8758854 32.36,87.2892187 C33.1333333,86.7025521 33.6333333,85.8292188 33.86,84.6692188 L32.18,84.6692188 C32.0333333,85.3492188 31.73,85.8558854 31.27,86.1892188 C30.81,86.5225521 30.22,86.6892188 29.5,86.6892188 C28.94,86.6892188 28.4533333,86.5958854 28.04,86.4092188 C27.6266667,86.2225521 27.2866667,85.9725521 27.02,85.6592188 C26.7533333,85.3458854 26.56,84.9858854 26.44,84.5792188 C26.32,84.1725521 26.2666667,83.7425521 26.28,83.2892187 L34.02,83.2892187 C34.0466667,82.6625521 33.99,82.0025521 33.85,81.3092187 C33.71,80.6158854 33.4566667,79.9758854 33.09,79.3892188 C32.7233333,78.8025521 32.2366667,78.3192187 31.63,77.9392188 C31.0233333,77.5592188 30.26,77.3692188 29.34,77.3692188 C28.6333333,77.3692188 27.9833333,77.5025521 27.39,77.7692187 C26.7966667,78.0358854 26.2833333,78.4092188 25.85,78.8892188 C25.4166667,79.3692188 25.08,79.9358854 24.84,80.5892188 C24.6,81.2425521 24.48,81.9625521 24.48,82.7492187 C24.5066667,83.5358854 24.6233333,84.2625521 24.83,84.9292188 C25.0366667,85.5958854 25.3466667,86.1692188 25.76,86.6492188 C26.1733333,87.1292188 26.6833333,87.5025521 27.29,87.7692187 C27.8966667,88.0358854 28.6133333,88.1692188 29.44,88.1692188 Z M32.22,81.7892187 L26.28,81.7892187 C26.3066667,81.3892187 26.3933333,81.0125521 26.54,80.6592188 C26.6866667,80.3058854 26.8866667,79.9958854 27.14,79.7292187 C27.3933333,79.4625521 27.6966667,79.2525521 28.05,79.0992188 C28.4033333,78.9458854 28.8,78.8692188 29.24,78.8692188 C29.6666667,78.8692188 30.0566667,78.9458854 30.41,79.0992188 C30.7633333,79.2525521 31.07,79.4592188 31.33,79.7192187 C31.59,79.9792188 31.7966667,80.2892188 31.95,80.6492188 C32.1033333,81.0092188 32.1933333,81.3892187 32.22,81.7892187 Z M40.44,87.9492188 L44.22,77.6092188 L42.44,77.6092188 L39.62,86.2292187 L39.58,86.2292187 L36.68,77.6092188 L34.78,77.6092188 L38.62,87.9492188 L40.44,87.9492188 Z M47.58,75.7492187 L47.58,73.6692188 L45.88,73.6692188 L45.88,75.7492187 L47.58,75.7492187 Z M47.58,87.9492188 L47.58,77.6092188 L45.88,77.6092188 L45.88,87.9492188 L47.58,87.9492188 Z M54.64,87.9492188 L54.64,86.4492188 L53.86,86.4492188 C53.5933333,86.4492188 53.3766667,86.4392188 53.21,86.4192188 C53.0433333,86.3992188 52.9133333,86.3558854 52.82,86.2892187 C52.7266667,86.2225521 52.6633333,86.1292187 52.63,86.0092187 C52.5966667,85.8892188 52.58,85.7292188 52.58,85.5292187 L52.58,79.1092188 L54.64,79.1092188 L54.64,77.6092188 L52.58,77.6092188 L52.58,74.5092187 L50.88,74.5092187 L50.88,77.6092188 L49.12,77.6092188 L49.12,79.1092188 L50.88,79.1092188 L50.88,85.6892188 C50.88,86.1692188 50.9266667,86.5558854 51.02,86.8492188 C51.1133333,87.1425521 51.2566667,87.3692187 51.45,87.5292187 C51.6433333,87.6892187 51.8966667,87.7992187 52.21,87.8592188 C52.5233333,87.9192188 52.9,87.9492188 53.34,87.9492188 L54.64,87.9492188 Z M58.32,75.7492187 L58.32,73.6692188 L56.62,73.6692188 L56.62,75.7492187 L58.32,75.7492187 Z M58.32,87.9492188 L58.32,77.6092188 L56.62,77.6092188 L56.62,87.9492188 L58.32,87.9492188 Z M65.24,88.1692188 C66.56,88.1692188 67.6033333,87.8225521 68.37,87.1292188 C69.1366667,86.4358854 69.6133333,85.4492188 69.8,84.1692188 L68.06,84.1692188 C67.9533333,84.9692188 67.6633333,85.5892188 67.19,86.0292187 C66.7166667,86.4692187 66.06,86.6892188 65.22,86.6892188 C64.6866667,86.6892188 64.2266667,86.5825521 63.84,86.3692188 C63.4533333,86.1558854 63.14,85.8725521 62.9,85.5192187 C62.66,85.1658854 62.4833333,84.7625521 62.37,84.3092187 C62.2566667,83.8558854 62.2,83.3892188 62.2,82.9092188 C62.2,82.3892188 62.2533333,81.8858854 62.36,81.3992188 C62.4666667,80.9125521 62.6433333,80.4825521 62.89,80.1092188 C63.1366667,79.7358854 63.4666667,79.4358854 63.88,79.2092187 C64.2933333,78.9825521 64.8066667,78.8692188 65.42,78.8692188 C66.14,78.8692188 66.7133333,79.0492188 67.14,79.4092188 C67.5666667,79.7692188 67.8466667,80.2758854 67.98,80.9292188 L69.74,80.9292188 C69.6733333,80.3158854 69.5133333,79.7858854 69.26,79.3392188 C69.0066667,78.8925521 68.6833333,78.5225521 68.29,78.2292187 C67.8966667,77.9358854 67.4433333,77.7192187 66.93,77.5792188 C66.4166667,77.4392188 65.8666667,77.3692188 65.28,77.3692188 C64.4666667,77.3692188 63.7533333,77.5125521 63.14,77.7992187 C62.5266667,78.0858854 62.0166667,78.4792187 61.61,78.9792187 C61.2033333,79.4792187 60.9,80.0658854 60.7,80.7392187 C60.5,81.4125521 60.4,82.1358854 60.4,82.9092188 C60.4,83.6825521 60.5033333,84.3925521 60.71,85.0392187 C60.9166667,85.6858854 61.2233333,86.2425521 61.63,86.7092187 C62.0366667,87.1758854 62.5433333,87.5358854 63.15,87.7892187 C63.7566667,88.0425521 64.4533333,88.1692188 65.24,88.1692188 Z M79.64,88.1692188 C80.16,88.1692188 80.5666667,88.0825521 80.86,87.9092188 L80.86,87.9092188 L80.86,86.5892188 C80.66,86.6558854 80.4866667,86.6892188 80.34,86.6892188 C80.0733333,86.6892188 79.9166667,86.5958854 79.87,86.4092188 C79.8233333,86.2225521 79.8,85.9292188 79.8,85.5292187 L79.8,85.5292187 L79.8,80.2092187 C79.8,79.6092187 79.6866667,79.1225521 79.46,78.7492187 C79.2333333,78.3758854 78.9333333,78.0858854 78.56,77.8792188 C78.1866667,77.6725521 77.77,77.5358854 77.31,77.4692187 C76.85,77.4025521 76.3866667,77.3692188 75.92,77.3692188 C75.3333333,77.3692188 74.7833333,77.4292188 74.27,77.5492187 C73.7566667,77.6692187 73.3,77.8658854 72.9,78.1392188 C72.5,78.4125521 72.18,78.7692187 71.94,79.2092187 C71.7,79.6492188 71.5666667,80.1892188 71.54,80.8292188 L71.54,80.8292188 L73.24,80.8292188 C73.28,80.0692188 73.54,79.5525521 74.02,79.2792187 C74.5,79.0058854 75.1,78.8692188 75.82,78.8692188 C76.0866667,78.8692188 76.3566667,78.8892188 76.63,78.9292188 C76.9033333,78.9692187 77.15,79.0492187 77.37,79.1692188 C77.59,79.2892188 77.77,79.4625521 77.91,79.6892188 C78.05,79.9158854 78.12,80.2158854 78.12,80.5892188 C78.12,80.9092187 78.0266667,81.1525521 77.84,81.3192187 C77.6533333,81.4858854 77.4,81.6125521 77.08,81.6992188 C76.76,81.7858854 76.39,81.8525521 75.97,81.8992188 C75.55,81.9458854 75.1066667,82.0158854 74.64,82.1092188 C74.2,82.1892188 73.77,82.2892187 73.35,82.4092188 C72.93,82.5292188 72.5566667,82.7058854 72.23,82.9392188 C71.9033333,83.1725521 71.64,83.4758854 71.44,83.8492188 C71.24,84.2225521 71.14,84.7025521 71.14,85.2892187 C71.14,85.8092187 71.23,86.2525521 71.41,86.6192188 C71.59,86.9858854 71.8333333,87.2825521 72.14,87.5092187 C72.4466667,87.7358854 72.81,87.9025521 73.23,88.0092187 C73.65,88.1158854 74.0933333,88.1692188 74.56,88.1692188 C75.28,88.1692188 75.95,88.0458854 76.57,87.7992187 C77.19,87.5525521 77.7333333,87.1492188 78.2,86.5892188 C78.2,87.1492188 78.33,87.5525521 78.59,87.7992187 C78.85,88.0458854 79.2,88.1692188 79.64,88.1692188 Z M74.94,86.6892188 C74.6733333,86.6892188 74.42,86.6625521 74.18,86.6092188 C73.94,86.5558854 73.73,86.4692187 73.55,86.3492188 C73.37,86.2292188 73.2233333,86.0725521 73.11,85.8792188 C72.9966667,85.6858854 72.94,85.4492188 72.94,85.1692188 C72.94,84.7425521 73.0366667,84.4058854 73.23,84.1592188 C73.4233333,83.9125521 73.6733333,83.7225521 73.98,83.5892188 C74.2866667,83.4558854 74.6333333,83.3592188 75.02,83.2992187 C75.4066667,83.2392187 75.79,83.1858854 76.17,83.1392188 C76.55,83.0925521 76.9133333,83.0325521 77.26,82.9592187 C77.6066667,82.8858854 77.8866667,82.7692188 78.1,82.6092188 L78.1,82.6092188 L78.1,84.3492188 C78.1,84.5892188 78.04,84.8458854 77.92,85.1192188 C77.8,85.3925521 77.6133333,85.6458854 77.36,85.8792188 C77.1066667,86.1125521 76.78,86.3058854 76.38,86.4592187 C75.98,86.6125521 75.5,86.6892188 74.94,86.6892188 Z M90.06,87.9492188 L90.06,76.4892187 L90.1,76.4892187 L97.56,87.9492188 L99.64,87.9492188 L99.64,73.6692188 L97.84,73.6692188 L97.84,85.2492187 L97.8,85.2492187 L90.28,73.6692188 L88.26,73.6692188 L88.26,87.9492188 L90.06,87.9492188 Z M106.84,88.1692188 C108.013333,88.1692188 108.986667,87.8758854 109.76,87.2892187 C110.533333,86.7025521 111.033333,85.8292188 111.26,84.6692188 L109.58,84.6692188 C109.433333,85.3492188 109.13,85.8558854 108.67,86.1892188 C108.21,86.5225521 107.62,86.6892188 106.9,86.6892188 C106.34,86.6892188 105.853333,86.5958854 105.44,86.4092188 C105.026667,86.2225521 104.686667,85.9725521 104.42,85.6592188 C104.153333,85.3458854 103.96,84.9858854 103.84,84.5792188 C103.72,84.1725521 103.666667,83.7425521 103.68,83.2892187 L111.42,83.2892187 C111.446667,82.6625521 111.39,82.0025521 111.25,81.3092187 C111.11,80.6158854 110.856667,79.9758854 110.49,79.3892188 C110.123333,78.8025521 109.636667,78.3192187 109.03,77.9392188 C108.423333,77.5592188 107.66,77.3692188 106.74,77.3692188 C106.033333,77.3692188 105.383333,77.5025521 104.79,77.7692187 C104.196667,78.0358854 103.683333,78.4092188 103.25,78.8892188 C102.816667,79.3692188 102.48,79.9358854 102.24,80.5892188 C102,81.2425521 101.88,81.9625521 101.88,82.7492187 C101.906667,83.5358854 102.023333,84.2625521 102.23,84.9292188 C102.436667,85.5958854 102.746667,86.1692188 103.16,86.6492188 C103.573333,87.1292188 104.083333,87.5025521 104.69,87.7692187 C105.296667,88.0358854 106.013333,88.1692188 106.84,88.1692188 Z M109.62,81.7892187 L103.68,81.7892187 C103.706667,81.3892187 103.793333,81.0125521 103.94,80.6592188 C104.086667,80.3058854 104.286667,79.9958854 104.54,79.7292187 C104.793333,79.4625521 105.096667,79.2525521 105.45,79.0992188 C105.803333,78.9458854 106.2,78.8692188 106.64,78.8692188 C107.066667,78.8692188 107.456667,78.9458854 107.81,79.0992188 C108.163333,79.2525521 108.47,79.4592188 108.73,79.7192187 C108.99,79.9792188 109.196667,80.2892188 109.35,80.6492188 C109.503333,81.0092188 109.593333,81.3892187 109.62,81.7892187 Z M116.74,88.1692188 C117.5,88.1692188 118.16,88.0192188 118.72,87.7192187 C119.28,87.4192187 119.74,86.9492187 120.1,86.3092187 L120.14,86.3092187 L120.14,87.9492188 L121.74,87.9492188 L121.74,77.6092188 L120.04,77.6092188 L120.04,83.4492188 C120.04,83.9158854 119.976667,84.3458854 119.85,84.7392187 C119.723333,85.1325521 119.533333,85.4758854 119.28,85.7692187 C119.026667,86.0625521 118.71,86.2892187 118.33,86.4492188 C117.95,86.6092188 117.5,86.6892188 116.98,86.6892188 C116.326667,86.6892188 115.813333,86.5025521 115.44,86.1292188 C115.066667,85.7558854 114.88,85.2492187 114.88,84.6092188 L114.88,77.6092188 L113.18,77.6092188 L113.18,84.4092188 C113.18,84.9692187 113.236667,85.4792187 113.35,85.9392188 C113.463333,86.3992188 113.66,86.7958854 113.94,87.1292188 C114.22,87.4625521 114.586667,87.7192188 115.04,87.8992188 C115.493333,88.0792188 116.06,88.1692188 116.74,88.1692188 Z M128.7,88.1692188 C129.873333,88.1692188 130.846667,87.8758854 131.62,87.2892187 C132.393333,86.7025521 132.893333,85.8292188 133.12,84.6692188 L131.44,84.6692188 C131.293333,85.3492188 130.99,85.8558854 130.53,86.1892188 C130.07,86.5225521 129.48,86.6892188 128.76,86.6892188 C128.2,86.6892188 127.713333,86.5958854 127.3,86.4092188 C126.886667,86.2225521 126.546667,85.9725521 126.28,85.6592188 C126.013333,85.3458854 125.82,84.9858854 125.7,84.5792188 C125.58,84.1725521 125.526667,83.7425521 125.54,83.2892187 L133.28,83.2892187 C133.306667,82.6625521 133.25,82.0025521 133.11,81.3092187 C132.97,80.6158854 132.716667,79.9758854 132.35,79.3892188 C131.983333,78.8025521 131.496667,78.3192187 130.89,77.9392188 C130.283333,77.5592188 129.52,77.3692188 128.6,77.3692188 C127.893333,77.3692188 127.243333,77.5025521 126.65,77.7692187 C126.056667,78.0358854 125.543333,78.4092188 125.11,78.8892188 C124.676667,79.3692188 124.34,79.9358854 124.1,80.5892188 C123.86,81.2425521 123.74,81.9625521 123.74,82.7492187 C123.766667,83.5358854 123.883333,84.2625521 124.09,84.9292188 C124.296667,85.5958854 124.606667,86.1692188 125.02,86.6492188 C125.433333,87.1292188 125.943333,87.5025521 126.55,87.7692187 C127.156667,88.0358854 127.873333,88.1692188 128.7,88.1692188 Z M131.48,81.7892187 L125.54,81.7892187 C125.566667,81.3892187 125.653333,81.0125521 125.8,80.6592188 C125.946667,80.3058854 126.146667,79.9958854 126.4,79.7292187 C126.653333,79.4625521 126.956667,79.2525521 127.31,79.0992188 C127.663333,78.9458854 128.06,78.8692188 128.5,78.8692188 C128.926667,78.8692188 129.316667,78.9458854 129.67,79.0992188 C130.023333,79.2525521 130.33,79.4592188 130.59,79.7192187 C130.85,79.9792188 131.056667,80.2892188 131.21,80.6492188 C131.363333,81.0092188 131.453333,81.3892187 131.48,81.7892187 Z" id="HeviticaNeue" fill="#7B8AA9"></path>
            <path d="M729.855156,87.9492188 L729.855156,81.2402344 L737.316094,81.2402344 L737.316094,87.9492188 L739.278984,87.9492188 L739.278984,73.6035156 L737.316094,73.6035156 L737.316094,79.53125 L729.855156,79.53125 L729.855156,73.6035156 L727.892266,73.6035156 L727.892266,87.9492188 L729.855156,87.9492188 Z M746.134453,88.3203125 C746.668307,88.3203125 747.146823,88.2682292 747.57,88.1640625 C748.35776,87.9817708 749.018568,87.6302083 749.552422,87.109375 C749.871432,86.8098958 750.159518,86.4241536 750.41668,85.9521484 C750.673841,85.4801432 750.825208,85.0520833 750.870781,84.6679688 L750.870781,84.6679688 L749.142266,84.6679688 C749.012057,85.1302083 748.790703,85.5371094 748.478203,85.8886719 C747.931328,86.4941406 747.198906,86.796875 746.280937,86.796875 C745.297865,86.796875 744.571953,86.476237 744.103203,85.8349609 C743.634453,85.1936849 743.383802,84.3424479 743.35125,83.28125 L743.35125,83.28125 L751.017266,83.28125 C751.017266,82.2265625 750.965182,81.4583333 750.861016,80.9765625 C750.743828,80.2734375 750.509453,79.6582031 750.157891,79.1308594 C749.793307,78.577474 749.262708,78.1266276 748.566094,77.7783203 C747.869479,77.430013 747.150078,77.2558594 746.407891,77.2558594 C744.936536,77.2558594 743.74513,77.7799479 742.833672,78.828125 C741.922214,79.8763021 741.466484,81.2402344 741.466484,82.9199219 C741.466484,84.625651 741.918958,85.9521484 742.823906,86.8994141 C743.728854,87.8466797 744.83237,88.3203125 746.134453,88.3203125 Z M749.210625,81.8847656 L743.400078,81.8847656 C743.43263,80.9863281 743.722344,80.2457682 744.269219,79.6630859 C744.816094,79.0804036 745.493177,78.7890625 746.300469,78.7890625 C747.426771,78.7890625 748.230807,79.2122396 748.712578,80.0585938 C748.972995,80.5143229 749.13901,81.1230469 749.210625,81.8847656 L749.210625,81.8847656 Z M757.72625,87.9492188 L761.671562,77.4902344 L759.747734,77.4902344 L756.827812,86.0058594 L754.034844,77.4902344 L751.993828,77.4902344 L755.85125,87.9492188 L757.72625,87.9492188 Z M764.962578,75.5957031 L764.962578,73.6035156 L763.175469,73.6035156 L763.175469,75.5957031 L764.962578,75.5957031 Z M764.962578,87.9492188 L764.962578,77.5390625 L763.175469,77.5390625 L763.175469,87.9492188 L764.962578,87.9492188 Z M770.079766,88.1152344 C770.333672,88.1152344 770.569674,88.1022135 770.787773,88.0761719 C771.005872,88.0501302 771.215833,88.0078125 771.417656,87.9492188 L771.417656,87.9492188 L771.417656,86.5625 C771.287448,86.5755208 771.173516,86.5836589 771.075859,86.5869141 C770.978203,86.5901693 770.887057,86.5917969 770.802422,86.5917969 C770.483411,86.5917969 770.255547,86.5559896 770.118828,86.484375 C769.871432,86.3606771 769.747734,86.1165365 769.747734,85.7519531 L769.747734,85.7519531 L769.747734,78.9257812 L771.417656,78.9257812 L771.417656,77.4902344 L769.747734,77.4902344 L769.747734,74.5703125 L767.970391,74.5703125 L767.970391,77.4902344 L766.554375,77.4902344 L766.554375,78.9257812 L767.970391,78.9257812 L767.970391,85.8496094 C767.970391,86.5201823 768.116875,87.0654297 768.409844,87.4853516 C768.702812,87.9052734 769.259453,88.1152344 770.079766,88.1152344 Z M774.962578,75.5957031 L774.962578,73.6035156 L773.175469,73.6035156 L773.175469,75.5957031 L774.962578,75.5957031 Z M774.962578,87.9492188 L774.962578,77.5390625 L773.175469,77.5390625 L773.175469,87.9492188 L774.962578,87.9492188 Z M781.398125,88.2519531 C782.615573,88.2519531 783.614922,87.9313151 784.396172,87.2900391 C785.177422,86.648763 785.665703,85.6347656 785.861016,84.2480469 L785.861016,84.2480469 L784.152031,84.2480469 C783.989271,85.0227865 783.694674,85.633138 783.268242,86.0791016 C782.84181,86.5250651 782.26401,86.7480469 781.534844,86.7480469 C780.584323,86.7480469 779.887708,86.389974 779.445,85.6738281 C779.002292,84.9576823 778.780937,84.0755208 778.780937,83.0273438 C778.780937,81.9856771 778.937187,81.110026 779.249687,80.4003906 C779.731458,79.3066406 780.53224,78.7597656 781.652031,78.7597656 C782.472344,78.7597656 783.068047,78.9729818 783.439141,79.3994141 C783.810234,79.8258464 784.047865,80.3613281 784.152031,81.0058594 L784.152031,81.0058594 L785.861016,81.0058594 C785.711276,79.6061198 785.26694,78.6197917 784.528008,78.046875 C783.789076,77.4739583 782.830417,77.1875 781.652031,77.1875 C780.271823,77.1875 779.135755,77.6985677 778.243828,78.7207031 C777.351901,79.7428385 776.905937,81.171875 776.905937,83.0078125 C776.905937,84.5052083 777.312839,85.7535807 778.126641,86.7529297 C778.940443,87.7522786 780.030937,88.2519531 781.398125,88.2519531 Z M790.431328,88.3007812 C791.23862,88.3007812 791.977552,88.1282552 792.648125,87.7832031 C793.318698,87.438151 793.833021,87.03125 794.191094,86.5625 C794.249687,86.9791667 794.350599,87.3014323 794.493828,87.5292969 C794.767266,87.9589844 795.206719,88.1738281 795.812187,88.1738281 C796.059583,88.1738281 796.254896,88.1640625 796.398125,88.1445312 C796.541354,88.125 796.749687,88.0761719 797.023125,87.9980469 L797.023125,87.9980469 L797.023125,86.6992188 C796.912448,86.71875 796.808281,86.7333984 796.710625,86.7431641 C796.612969,86.7529297 796.525078,86.7578125 796.446953,86.7578125 C796.206068,86.7578125 796.04819,86.702474 795.97332,86.5917969 C795.898451,86.4811198 795.861016,86.3346354 795.861016,86.1523438 L795.861016,86.1523438 L795.861016,80.1269531 C795.861016,79.1373698 795.480156,78.4082031 794.718437,77.9394531 C793.950208,77.4707031 792.950859,77.2363281 791.720391,77.2363281 C790.659193,77.2363281 789.726576,77.4886068 788.922539,77.9931641 C788.118503,78.4977214 787.700208,79.3945312 787.667656,80.6835938 L787.667656,80.6835938 L789.308281,80.6835938 C789.373385,80.1432292 789.513359,79.7363281 789.728203,79.4628906 C790.112318,78.968099 790.763359,78.7207031 791.681328,78.7207031 C792.475599,78.7207031 793.085951,78.8557943 793.512383,79.1259766 C793.938815,79.3961589 794.152031,79.8307292 794.152031,80.4296875 C794.152031,80.7226562 794.112969,80.9472656 794.034844,81.1035156 C793.898125,81.389974 793.627943,81.5592448 793.224297,81.6113281 L793.224297,81.6113281 L790.421562,81.9628906 C789.43849,82.0865885 788.644219,82.4153646 788.03875,82.9492188 C787.433281,83.4830729 787.130547,84.235026 787.130547,85.2050781 C787.130547,86.0904948 787.438164,86.8277995 788.053398,87.4169922 C788.668633,88.0061849 789.461276,88.3007812 790.431328,88.3007812 Z M790.841484,86.8066406 C790.333672,86.8066406 789.894219,86.6601562 789.523125,86.3671875 C789.152031,86.0742188 788.966484,85.6738281 788.966484,85.1660156 C788.966484,84.4954427 789.236667,84.0071615 789.777031,83.7011719 C790.096042,83.5188802 790.574557,83.3854167 791.212578,83.3007812 L791.212578,83.3007812 L792.277031,83.1640625 C792.602552,83.125 792.934583,83.0598958 793.273125,82.96875 C793.611667,82.8776042 793.888359,82.7636719 794.103203,82.6269531 L794.103203,82.6269531 L794.103203,84.0429688 C794.103203,85.1236979 793.614922,85.9016927 792.638359,86.3769531 C792.058932,86.6634115 791.459974,86.8066406 790.841484,86.8066406 Z" id="Hevitica" fill="#7B8AA9"></path>
            <path d="M1397.08,87.9492188 L1398.6,83.9492188 L1405.16,83.9492188 L1406.68,87.9492188 L1408.46,87.9492188 L1402.84,73.6692188 L1400.94,73.6692188 L1395.32,87.9492188 L1397.08,87.9492188 Z M1404.64,82.5692188 L1399.12,82.5692188 L1401.86,75.4292188 L1401.94,75.4292188 L1404.64,82.5692188 Z M1411.28,87.9492188 L1411.28,82.4692188 C1411.28,81.5092188 1411.54,80.6892188 1412.1,80.0092188 C1412.64,79.2892188 1413.32,78.9492188 1414.12,78.9492188 C1414.62,78.9492188 1415.14,79.0092188 1415.66,79.1692188 L1415.66,77.5692188 C1415.28,77.4092188 1414.8,77.3292188 1414.24,77.3292188 C1413.52,77.3292188 1412.9,77.5492188 1412.36,77.9892188 C1411.92,78.3292188 1411.56,78.8092188 1411.28,79.4092188 L1411.28,77.6092188 L1409.7,77.6092188 L1409.7,87.9492188 L1411.28,87.9492188 Z M1418.32,76.0892188 C1418.66,76.0892188 1418.94,75.9692188 1419.18,75.7492188 C1419.42,75.5092188 1419.54,75.2292188 1419.54,74.8892188 C1419.54,74.5292188 1419.42,74.2492188 1419.18,74.0492188 C1418.94,73.8092188 1418.66,73.7092188 1418.32,73.7092188 C1417.98,73.7092188 1417.7,73.8092188 1417.46,74.0492188 C1417.22,74.2492188 1417.12,74.5292188 1417.12,74.8892188 C1417.12,75.2292188 1417.22,75.5092188 1417.46,75.7492188 C1417.7,75.9692188 1417.98,76.0892188 1418.32,76.0892188 Z M1419.12,87.9492188 L1419.12,77.6092188 L1417.52,77.6092188 L1417.52,87.9492188 L1419.12,87.9492188 Z M1425.16,88.2292188 C1426.12,88.2292188 1426.98,88.0092188 1427.74,87.5892188 C1428.38,87.2292188 1428.92,86.7692188 1429.32,86.2092188 L1429.32,87.9492188 L1430.82,87.9492188 L1430.82,81.3092188 C1430.82,80.1092188 1430.5,79.1692188 1429.9,78.4892188 C1429.18,77.7092188 1428.1,77.3292188 1426.62,77.3292188 C1425.38,77.3292188 1424.4,77.5692188 1423.64,78.0492188 C1422.8,78.5692188 1422.26,79.3892188 1422.04,80.4692188 L1423.62,80.5892188 C1423.78,79.9292188 1424.12,79.4292188 1424.66,79.1092188 C1425.14,78.7892188 1425.76,78.6492188 1426.52,78.6492188 C1428.32,78.6492188 1429.22,79.5092188 1429.22,81.2492188 L1429.22,81.7892188 L1426.74,81.8292188 C1425.18,81.8492188 1423.98,82.1492188 1423.14,82.7092188 C1422.18,83.3092188 1421.72,84.1892188 1421.72,85.3692188 C1421.72,86.2092188 1422.04,86.9092188 1422.68,87.4492188 C1423.3,87.9692188 1424.12,88.2292188 1425.16,88.2292188 Z M1425.5,86.9692188 C1424.86,86.9692188 1424.34,86.8092188 1423.94,86.5092188 C1423.54,86.1892188 1423.36,85.8092188 1423.36,85.3292188 C1423.36,83.8292188 1424.52,83.0692188 1426.84,83.0292188 L1429.22,82.9892188 L1429.22,83.8692188 C1429.22,84.6692188 1428.84,85.3892188 1428.1,86.0092188 C1427.34,86.6492188 1426.48,86.9692188 1425.5,86.9692188 Z M1435.2,87.9492188 L1435.2,73.3892188 L1433.62,73.3892188 L1433.62,87.9492188 L1435.2,87.9492188 Z" id="Arial" fill="#7B8AA9"></path>
            <path d="M29.2,132.349219 L29.2,116.077219 C30.064,114.517219 30.808,112.861219 31.384,111.133219 L29.824,110.413219 C28.648,114.109219 26.776,117.397219 24.184,120.277219 L24.688,122.005219 C25.696,120.973219 26.632,119.869219 27.472,118.717219 L27.472,132.349219 L29.2,132.349219 Z M31.432,132.277219 C34.888,129.085219 36.904,124.285219 37.432,117.877219 L38.944,117.877219 L38.944,129.973219 C38.944,131.293219 39.568,131.965219 40.84,131.965219 L43.816,131.965219 C44.44,131.941219 44.944,131.701219 45.28,131.269219 C45.616,130.741219 45.88,129.181219 46.048,126.637219 L44.488,126.133219 C44.416,128.341219 44.272,129.613219 44.056,129.973219 C43.864,130.237219 43.648,130.381219 43.384,130.381219 L41.296,130.381219 C40.816,130.381219 40.6,130.141219 40.6,129.661219 L40.6,117.877219 L45.592,117.877219 L45.592,116.197219 L37.528,116.197219 C37.552,115.717219 37.576,115.237219 37.576,114.757219 L37.576,110.413219 L35.92,110.413219 L35.92,114.757219 C35.92,115.237219 35.896,115.717219 35.872,116.197219 L30.928,116.197219 L30.928,117.877219 L35.776,117.877219 C35.248,123.829219 33.376,128.245219 30.16,131.173219 L31.432,132.277219 Z M43.312,115.165219 L44.488,113.989219 C43.48,112.933219 42.208,111.877219 40.72,110.845219 L39.592,111.925219 C41.176,113.053219 42.4,114.133219 43.312,115.165219 Z M49.72,132.349219 C52.36,131.197219 54.256,129.805219 55.384,128.173219 C56.344,126.781219 56.944,124.693219 57.184,121.861219 L61.648,121.861219 L61.648,129.205219 C61.648,131.053219 62.464,131.989219 64.096,131.989219 L67.36,131.989219 C68.128,131.965219 68.704,131.725219 69.136,131.293219 C69.568,130.741219 69.904,129.133219 70.096,126.493219 L68.44,125.965219 C68.344,128.221219 68.152,129.541219 67.84,129.925219 C67.6,130.189219 67.288,130.333219 66.904,130.333219 L64.6,130.333219 C63.808,130.333219 63.424,129.853219 63.424,128.893219 L63.424,121.861219 L69.976,121.861219 L69.976,120.205219 L60.4,120.205219 L60.4,115.669219 L68.32,115.669219 L68.32,114.013219 L60.4,114.013219 L60.4,110.365219 L58.648,110.365219 L58.648,114.013219 L53.752,114.013219 C54.136,113.077219 54.496,112.093219 54.808,111.037219 L53.056,110.677219 C52.288,113.389219 51.016,115.861219 49.264,118.117219 L50.92,119.149219 C51.688,118.093219 52.384,116.941219 53.008,115.669219 L58.648,115.669219 L58.648,120.205219 L48.784,120.205219 L48.784,121.861219 L55.408,121.861219 C55.192,124.309219 54.64,126.133219 53.728,127.333219 C52.696,128.677219 50.968,129.853219 48.52,130.813219 L49.72,132.349219 Z M74.872,118.165219 L74.872,114.469219 L91.768,114.469219 L91.768,118.165219 L93.496,118.165219 L93.496,112.813219 L84.448,112.813219 C84.136,111.829219 83.8,110.941219 83.464,110.149219 L81.496,110.485219 C81.88,111.181219 82.24,111.949219 82.576,112.813219 L73.144,112.813219 L73.144,118.165219 L74.872,118.165219 Z M82.408,132.253219 C83.8,132.253219 84.496,131.581219 84.496,130.261219 L84.496,125.173219 L93.952,125.173219 L93.952,123.493219 L84.496,123.493219 L84.496,121.885219 C86.416,120.829219 88.168,119.773219 89.728,118.669219 L89.728,117.061219 L76.84,117.061219 L76.84,118.669219 L87.136,118.669219 C86.152,119.293219 84.688,120.133219 82.744,121.141219 L82.744,123.493219 L72.712,123.493219 L72.712,125.173219 L82.744,125.173219 L82.744,129.661219 C82.744,130.357219 82.432,130.717219 81.808,130.717219 C80.8,130.717219 79.888,130.693219 79.048,130.669219 L79.456,132.253219 L82.408,132.253219 Z M100.888,132.373219 L100.888,116.629219 C101.824,114.853219 102.592,112.957219 103.216,110.965219 L101.656,110.245219 C100.552,114.205219 98.752,117.709219 96.256,120.781219 L96.76,122.509219 C97.624,121.525219 98.44,120.493219 99.184,119.413219 L99.184,132.373219 L100.888,132.373219 Z M110.872,132.349219 L110.872,127.405219 L114.592,127.405219 L114.592,125.749219 L110.872,125.749219 L110.872,116.125219 L111.16,116.125219 C112.264,120.565219 114.304,124.573219 117.232,128.125219 L118.36,126.709219 C115.576,123.613219 113.632,120.085219 112.528,116.125219 L117.424,116.125219 L117.424,114.445219 L110.872,114.445219 L110.872,110.317219 L109.168,110.317219 L109.168,114.445219 L102.808,114.445219 L102.808,116.125219 L107.488,116.125219 C106.336,120.541219 104.44,124.141219 101.752,126.925219 L102.64,128.413219 C105.592,125.221219 107.68,121.117219 108.88,116.125219 L109.168,116.125219 L109.168,125.749219 L105.496,125.749219 L105.496,127.405219 L109.168,127.405219 L109.168,132.349219 L110.872,132.349219 Z" id="优先字体" fill="#7B8AA9"></path>
            <path d="M1364.504,121.165219 C1365.32,119.173219 1365.968,117.157219 1366.472,115.117219 L1366.472,113.989219 L1356.392,113.989219 C1356.656,112.933219 1356.872,111.781219 1357.064,110.533219 L1355.336,110.269219 C1354.76,114.445219 1353.488,117.733219 1351.52,120.085219 L1352.96,121.093219 C1354.184,119.701219 1355.168,117.877219 1355.912,115.645219 L1364.624,115.645219 C1364.144,117.517219 1363.544,119.197219 1362.8,120.685219 L1364.504,121.165219 Z M1349.888,117.229219 L1351.232,116.269219 C1350.224,114.877219 1348.784,113.245219 1346.912,111.373219 L1345.52,112.237219 C1347.344,114.061219 1348.808,115.741219 1349.888,117.229219 Z M1351.784,132.397219 C1355.48,130.573219 1357.832,128.221219 1358.864,125.341219 C1359.056,124.813219 1359.224,124.261219 1359.368,123.661219 C1360.904,127.117219 1363.208,129.997219 1366.328,132.349219 L1367.456,131.029219 C1363.832,128.533219 1361.312,125.149219 1359.872,120.877219 C1359.992,119.773219 1360.064,118.573219 1360.064,117.277219 L1358.384,117.277219 C1358.336,120.397219 1357.928,122.989219 1357.16,125.029219 C1356.08,127.429219 1353.92,129.445219 1350.656,131.029219 L1351.784,132.397219 Z M1346.864,131.581219 C1348.52,128.677219 1350.008,125.557219 1351.352,122.245219 L1349.84,121.669219 C1348.544,124.789219 1347.032,127.861219 1345.256,130.861219 L1346.864,131.581219 Z M1370.264,125.893219 C1372.592,125.605219 1375.04,125.101219 1377.584,124.333219 L1377.584,122.773219 C1375.856,123.301219 1374.104,123.733219 1372.376,124.045219 C1373.864,122.389219 1375.712,119.605219 1377.968,115.717219 L1376.456,115.165219 C1375.952,116.053219 1375.472,116.893219 1375.016,117.709219 C1373.864,117.901219 1372.712,118.045219 1371.56,118.165219 C1372.856,116.389219 1374.128,113.989219 1375.376,110.965219 L1373.744,110.317219 C1372.736,113.053219 1371.536,115.501219 1370.168,117.637219 C1369.952,117.949219 1369.712,118.165219 1369.448,118.261219 L1369.88,119.845219 C1371.272,119.677219 1372.664,119.485219 1374.056,119.269219 C1372.712,121.429219 1371.56,122.941219 1370.6,123.853219 C1370.384,124.045219 1370.12,124.213219 1369.808,124.333219 L1370.264,125.893219 Z M1380.704,132.373219 C1382.768,131.365219 1384.544,130.117219 1385.984,128.581219 C1387.184,129.973219 1388.648,131.221219 1390.328,132.325219 L1391.408,130.885219 C1389.728,129.829219 1388.264,128.653219 1387.016,127.309219 C1388.744,125.029219 1389.848,122.221219 1390.352,118.909219 L1390.352,117.949219 L1387.304,117.949219 C1387.688,116.413219 1388.072,114.565219 1388.456,112.405219 L1388.456,111.325219 L1377.92,111.325219 L1377.92,112.957219 L1380.296,112.957219 L1380.296,114.253219 C1380.248,122.005219 1378.664,127.621219 1375.544,131.125219 L1376.816,132.253219 C1379.24,129.517219 1380.824,125.605219 1381.544,120.541219 C1382.288,122.989219 1383.392,125.197219 1384.832,127.141219 C1383.464,128.581219 1381.76,129.805219 1379.744,130.789219 L1380.704,132.373219 Z M1385.84,125.941219 C1383.824,123.373219 1382.504,120.325219 1381.904,116.821219 C1381.952,116.005219 1381.976,115.141219 1381.976,114.253219 L1381.976,112.957219 L1386.68,112.957219 C1386.176,115.813219 1385.72,117.973219 1385.288,119.461219 L1388.624,119.461219 C1388.144,121.933219 1387.232,124.093219 1385.84,125.941219 Z M1369.496,130.981219 C1372.184,130.477219 1374.56,129.781219 1376.672,128.917219 L1376.672,127.285219 C1374.56,128.125219 1372.088,128.797219 1369.28,129.301219 L1369.496,130.981219 Z M1394.096,122.101219 C1398.056,121.453219 1401.512,120.397219 1404.44,118.933219 C1407.224,120.325219 1410.584,121.309219 1414.52,121.909219 L1415.264,120.373219 C1411.712,119.893219 1408.664,119.125219 1406.072,118.021219 C1408.184,116.725219 1409.984,115.189219 1411.472,113.365219 L1411.472,112.045219 L1401.704,112.045219 C1402.088,111.541219 1402.472,111.013219 1402.832,110.437219 L1401.128,110.053219 C1399.376,112.621219 1397.144,114.685219 1394.456,116.245219 L1395.56,117.589219 C1396.76,116.821219 1397.888,115.981219 1398.944,115.021219 C1400.048,116.149219 1401.32,117.157219 1402.76,118.021219 C1400.072,119.221219 1396.952,120.085219 1393.352,120.589219 L1394.096,122.101219 Z M1404.368,117.229219 C1402.64,116.317219 1401.176,115.261219 1399.976,114.037219 L1400.456,113.557219 L1409.336,113.557219 C1407.944,114.949219 1406.288,116.173219 1404.368,117.229219 Z M1398.44,132.349219 L1398.44,131.293219 L1410.248,131.293219 L1410.248,132.349219 L1411.904,132.349219 L1411.904,121.885219 L1396.784,121.885219 L1396.784,132.349219 L1398.44,132.349219 Z M1403.504,125.869219 L1398.44,125.869219 L1398.44,123.325219 L1403.504,123.325219 L1403.504,125.869219 Z M1410.248,125.869219 L1405.136,125.869219 L1405.136,123.325219 L1410.248,123.325219 L1410.248,125.869219 Z M1403.504,129.805219 L1398.44,129.805219 L1398.44,127.261219 L1403.504,127.261219 L1403.504,129.805219 Z M1410.248,129.805219 L1405.136,129.805219 L1405.136,127.261219 L1410.248,127.261219 L1410.248,129.805219 Z M1418.648,132.133219 C1420.184,130.117219 1421.072,127.573219 1421.336,124.501219 L1427.528,124.501219 L1427.528,131.533219 L1429.304,131.533219 L1429.304,124.501219 L1435.832,124.501219 L1435.832,128.677219 C1435.832,129.685219 1435.376,130.189219 1434.512,130.189219 C1433.696,130.189219 1432.808,130.141219 1431.848,130.093219 L1432.304,131.797219 L1435.064,131.797219 C1436.744,131.797219 1437.584,130.957219 1437.584,129.277219 L1437.584,111.301219 L1419.704,111.301219 L1419.704,122.821219 C1419.656,126.109219 1418.864,128.821219 1417.328,130.957219 L1418.648,132.133219 Z M1435.832,117.109219 L1429.304,117.109219 L1429.304,112.981219 L1435.832,112.981219 L1435.832,117.109219 Z M1427.528,117.109219 L1421.432,117.109219 L1421.432,112.981219 L1427.528,112.981219 L1427.528,117.109219 Z M1427.528,122.917219 L1421.432,122.917219 L1421.432,118.717219 L1427.528,118.717219 L1427.528,122.917219 Z M1435.832,122.917219 L1429.304,122.917219 L1429.304,118.717219 L1435.832,118.717219 L1435.832,122.917219 Z M1443.872,118.165219 L1443.872,114.469219 L1460.768,114.469219 L1460.768,118.165219 L1462.496,118.165219 L1462.496,112.813219 L1453.448,112.813219 C1453.136,111.829219 1452.8,110.941219 1452.464,110.149219 L1450.496,110.485219 C1450.88,111.181219 1451.24,111.949219 1451.576,112.813219 L1442.144,112.813219 L1442.144,118.165219 L1443.872,118.165219 Z M1451.408,132.253219 C1452.8,132.253219 1453.496,131.581219 1453.496,130.261219 L1453.496,125.173219 L1462.952,125.173219 L1462.952,123.493219 L1453.496,123.493219 L1453.496,121.885219 C1455.416,120.829219 1457.168,119.773219 1458.728,118.669219 L1458.728,117.061219 L1445.84,117.061219 L1445.84,118.669219 L1456.136,118.669219 C1455.152,119.293219 1453.688,120.133219 1451.744,121.141219 L1451.744,123.493219 L1441.712,123.493219 L1441.712,125.173219 L1451.744,125.173219 L1451.744,129.661219 C1451.744,130.357219 1451.432,130.717219 1450.808,130.717219 C1449.8,130.717219 1448.888,130.693219 1448.048,130.669219 L1448.456,132.253219 L1451.408,132.253219 Z M1469.888,132.373219 L1469.888,116.629219 C1470.824,114.853219 1471.592,112.957219 1472.216,110.965219 L1470.656,110.245219 C1469.552,114.205219 1467.752,117.709219 1465.256,120.781219 L1465.76,122.509219 C1466.624,121.525219 1467.44,120.493219 1468.184,119.413219 L1468.184,132.373219 L1469.888,132.373219 Z M1479.872,132.349219 L1479.872,127.405219 L1483.592,127.405219 L1483.592,125.749219 L1479.872,125.749219 L1479.872,116.125219 L1480.16,116.125219 C1481.264,120.565219 1483.304,124.573219 1486.232,128.125219 L1487.36,126.709219 C1484.576,123.613219 1482.632,120.085219 1481.528,116.125219 L1486.424,116.125219 L1486.424,114.445219 L1479.872,114.445219 L1479.872,110.317219 L1478.168,110.317219 L1478.168,114.445219 L1471.808,114.445219 L1471.808,116.125219 L1476.488,116.125219 C1475.336,120.541219 1473.44,124.141219 1470.752,126.925219 L1471.64,128.413219 C1474.592,125.221219 1476.68,121.117219 1477.88,116.125219 L1478.168,116.125219 L1478.168,125.749219 L1474.496,125.749219 L1474.496,127.405219 L1478.168,127.405219 L1478.168,132.349219 L1479.872,132.349219 Z" id="次级备用字体" fill="#7B8AA9"></path>
            <path d="M716.096,122.101219 C720.056,121.453219 723.512,120.397219 726.44,118.933219 C729.224,120.325219 732.584,121.309219 736.52,121.909219 L737.264,120.373219 C733.712,119.893219 730.664,119.125219 728.072,118.021219 C730.184,116.725219 731.984,115.189219 733.472,113.365219 L733.472,112.045219 L723.704,112.045219 C724.088,111.541219 724.472,111.013219 724.832,110.437219 L723.128,110.053219 C721.376,112.621219 719.144,114.685219 716.456,116.245219 L717.56,117.589219 C718.76,116.821219 719.888,115.981219 720.944,115.021219 C722.048,116.149219 723.32,117.157219 724.76,118.021219 C722.072,119.221219 718.952,120.085219 715.352,120.589219 L716.096,122.101219 Z M726.368,117.229219 C724.64,116.317219 723.176,115.261219 721.976,114.037219 L722.456,113.557219 L731.336,113.557219 C729.944,114.949219 728.288,116.173219 726.368,117.229219 Z M720.44,132.349219 L720.44,131.293219 L732.248,131.293219 L732.248,132.349219 L733.904,132.349219 L733.904,121.885219 L718.784,121.885219 L718.784,132.349219 L720.44,132.349219 Z M725.504,125.869219 L720.44,125.869219 L720.44,123.325219 L725.504,123.325219 L725.504,125.869219 Z M732.248,125.869219 L727.136,125.869219 L727.136,123.325219 L732.248,123.325219 L732.248,125.869219 Z M725.504,129.805219 L720.44,129.805219 L720.44,127.261219 L725.504,127.261219 L725.504,129.805219 Z M732.248,129.805219 L727.136,129.805219 L727.136,127.261219 L732.248,127.261219 L732.248,129.805219 Z M740.648,132.133219 C742.184,130.117219 743.072,127.573219 743.336,124.501219 L749.528,124.501219 L749.528,131.533219 L751.304,131.533219 L751.304,124.501219 L757.832,124.501219 L757.832,128.677219 C757.832,129.685219 757.376,130.189219 756.512,130.189219 C755.696,130.189219 754.808,130.141219 753.848,130.093219 L754.304,131.797219 L757.064,131.797219 C758.744,131.797219 759.584,130.957219 759.584,129.277219 L759.584,111.301219 L741.704,111.301219 L741.704,122.821219 C741.656,126.109219 740.864,128.821219 739.328,130.957219 L740.648,132.133219 Z M757.832,117.109219 L751.304,117.109219 L751.304,112.981219 L757.832,112.981219 L757.832,117.109219 Z M749.528,117.109219 L743.432,117.109219 L743.432,112.981219 L749.528,112.981219 L749.528,117.109219 Z M749.528,122.917219 L743.432,122.917219 L743.432,118.717219 L749.528,118.717219 L749.528,122.917219 Z M757.832,122.917219 L751.304,122.917219 L751.304,118.717219 L757.832,118.717219 L757.832,122.917219 Z M765.872,118.165219 L765.872,114.469219 L782.768,114.469219 L782.768,118.165219 L784.496,118.165219 L784.496,112.813219 L775.448,112.813219 C775.136,111.829219 774.8,110.941219 774.464,110.149219 L772.496,110.485219 C772.88,111.181219 773.24,111.949219 773.576,112.813219 L764.144,112.813219 L764.144,118.165219 L765.872,118.165219 Z M773.408,132.253219 C774.8,132.253219 775.496,131.581219 775.496,130.261219 L775.496,125.173219 L784.952,125.173219 L784.952,123.493219 L775.496,123.493219 L775.496,121.885219 C777.416,120.829219 779.168,119.773219 780.728,118.669219 L780.728,117.061219 L767.84,117.061219 L767.84,118.669219 L778.136,118.669219 C777.152,119.293219 775.688,120.133219 773.744,121.141219 L773.744,123.493219 L763.712,123.493219 L763.712,125.173219 L773.744,125.173219 L773.744,129.661219 C773.744,130.357219 773.432,130.717219 772.808,130.717219 C771.8,130.717219 770.888,130.693219 770.048,130.669219 L770.456,132.253219 L773.408,132.253219 Z M791.888,132.373219 L791.888,116.629219 C792.824,114.853219 793.592,112.957219 794.216,110.965219 L792.656,110.245219 C791.552,114.205219 789.752,117.709219 787.256,120.781219 L787.76,122.509219 C788.624,121.525219 789.44,120.493219 790.184,119.413219 L790.184,132.373219 L791.888,132.373219 Z M801.872,132.349219 L801.872,127.405219 L805.592,127.405219 L805.592,125.749219 L801.872,125.749219 L801.872,116.125219 L802.16,116.125219 C803.264,120.565219 805.304,124.573219 808.232,128.125219 L809.36,126.709219 C806.576,123.613219 804.632,120.085219 803.528,116.125219 L808.424,116.125219 L808.424,114.445219 L801.872,114.445219 L801.872,110.317219 L800.168,110.317219 L800.168,114.445219 L793.808,114.445219 L793.808,116.125219 L798.488,116.125219 C797.336,120.541219 795.44,124.141219 792.752,126.925219 L793.64,128.413219 C796.592,125.221219 798.68,121.117219 799.88,116.125219 L800.168,116.125219 L800.168,125.749219 L796.496,125.749219 L796.496,127.405219 L800.168,127.405219 L800.168,132.349219 L801.872,132.349219 Z" id="备用字体" fill="#7B8AA9"></path>
            <path d="M5.7,43.9492188 L5.7,24.3292188 L25.38,24.3292188 L25.38,19.5292187 L5.7,19.5292187 L5.7,5.90921875 L28.14,5.90921875 L28.14,1.10921875 L0,1.10921875 L0,43.9492188 L5.7,43.9492188 Z M46.98,44.6092188 C49.46,44.6092188 51.63,44.1992188 53.49,43.3792188 C55.35,42.5592188 56.92,41.4192188 58.2,39.9592187 C59.48,38.4992187 60.44,36.7892187 61.08,34.8292188 C61.72,32.8692188 62.04,30.7492188 62.04,28.4692187 C62.04,26.1892187 61.72,24.0592187 61.08,22.0792188 C60.44,20.0992188 59.48,18.3792188 58.2,16.9192188 C56.92,15.4592187 55.35,14.3092187 53.49,13.4692187 C51.63,12.6292187 49.46,12.2092187 46.98,12.2092187 C44.54,12.2092187 42.38,12.6292187 40.5,13.4692187 C38.62,14.3092187 37.04,15.4592187 35.76,16.9192188 C34.48,18.3792188 33.52,20.0992188 32.88,22.0792188 C32.24,24.0592187 31.92,26.1892187 31.92,28.4692187 C31.92,30.7492188 32.24,32.8692188 32.88,34.8292188 C33.52,36.7892187 34.48,38.4992187 35.76,39.9592187 C37.04,41.4192188 38.62,42.5592188 40.5,43.3792188 C42.38,44.1992188 44.54,44.6092188 46.98,44.6092188 Z M46.98,40.1692188 C45.66,40.1692188 44.41,39.9092188 43.23,39.3892188 C42.05,38.8692188 41.02,38.1192188 40.14,37.1392188 C39.26,36.1592188 38.57,34.9392188 38.07,33.4792187 C37.57,32.0192187 37.32,30.3492187 37.32,28.4692187 C37.32,26.5892188 37.57,24.9192188 38.07,23.4592187 C38.57,21.9992187 39.26,20.7692187 40.14,19.7692187 C41.02,18.7692187 42.05,18.0092187 43.23,17.4892187 C44.41,16.9692187 45.66,16.7092187 46.98,16.7092187 C48.3,16.7092187 49.55,16.9692187 50.73,17.4892187 C51.91,18.0092187 52.94,18.7692187 53.82,19.7692187 C54.7,20.7692187 55.39,21.9992187 55.89,23.4592187 C56.39,24.9192188 56.64,26.5892188 56.64,28.4692187 C56.64,30.3492187 56.39,32.0192187 55.89,33.4792187 C55.39,34.9392188 54.7,36.1592188 53.82,37.1392188 C52.94,38.1192188 51.91,38.8692188 50.73,39.3892188 C49.55,39.9092188 48.3,40.1692188 46.98,40.1692188 Z M73.14,43.9492188 L73.14,26.4292188 C73.14,25.0292188 73.33,23.7392188 73.71,22.5592187 C74.09,21.3792187 74.66,20.3492187 75.42,19.4692187 C76.18,18.5892188 77.13,17.9092188 78.27,17.4292188 C79.41,16.9492188 80.76,16.7092187 82.32,16.7092187 C84.28,16.7092187 85.82,17.2692188 86.94,18.3892188 C88.06,19.5092187 88.62,21.0292187 88.62,22.9492188 L88.62,43.9492188 L93.72,43.9492188 L93.72,23.5492187 C93.72,21.8692187 93.55,20.3392187 93.21,18.9592187 C92.87,17.5792188 92.28,16.3892188 91.44,15.3892188 C90.6,14.3892188 89.5,13.6092188 88.14,13.0492187 C86.78,12.4892187 85.08,12.2092187 83.04,12.2092187 C78.44,12.2092187 75.08,14.0892188 72.96,17.8492188 L72.84,17.8492188 L72.84,12.9292188 L68.04,12.9292188 L68.04,43.9492188 L73.14,43.9492188 Z M114.66,43.9492188 L114.66,39.4492188 L112.32,39.4492188 C111.52,39.4492188 110.87,39.4192188 110.37,39.3592188 C109.87,39.2992187 109.48,39.1692187 109.2,38.9692187 C108.92,38.7692188 108.73,38.4892188 108.63,38.1292188 C108.53,37.7692188 108.48,37.2892188 108.48,36.6892188 L108.48,17.4292188 L114.66,17.4292188 L114.66,12.9292188 L108.48,12.9292188 L108.48,3.62921875 L103.38,3.62921875 L103.38,12.9292188 L98.1,12.9292188 L98.1,17.4292188 L103.38,17.4292188 L103.38,37.1692188 C103.38,38.6092188 103.52,39.7692188 103.8,40.6492188 C104.08,41.5292188 104.51,42.2092187 105.09,42.6892188 C105.67,43.1692188 106.43,43.4992188 107.37,43.6792188 C108.31,43.8592188 109.44,43.9492188 110.76,43.9492188 L114.66,43.9492188 Z M131.46,44.6092188 C133.02,44.6092188 134.59,44.4592188 136.17,44.1592188 C137.75,43.8592188 139.17,43.3292187 140.43,42.5692187 C141.69,41.8092187 142.71,40.8092187 143.49,39.5692187 C144.27,38.3292187 144.66,36.7692188 144.66,34.8892188 C144.66,33.4092188 144.37,32.1692188 143.79,31.1692188 C143.21,30.1692188 142.45,29.3392188 141.51,28.6792188 C140.57,28.0192188 139.49,27.4892188 138.27,27.0892188 C137.05,26.6892188 135.8,26.3492187 134.52,26.0692187 C133.32,25.7892187 132.12,25.5192188 130.92,25.2592187 C129.72,24.9992188 128.64,24.6792188 127.68,24.2992187 C126.72,23.9192187 125.93,23.4392188 125.31,22.8592188 C124.69,22.2792188 124.38,21.5492187 124.38,20.6692188 C124.38,19.8692187 124.58,19.2192187 124.98,18.7192187 C125.38,18.2192187 125.9,17.8192187 126.54,17.5192187 C127.18,17.2192187 127.89,17.0092187 128.67,16.8892188 C129.45,16.7692188 130.22,16.7092187 130.98,16.7092187 C131.82,16.7092187 132.65,16.7992187 133.47,16.9792187 C134.29,17.1592187 135.04,17.4492188 135.72,17.8492188 C136.4,18.2492188 136.96,18.7792188 137.4,19.4392188 C137.84,20.0992188 138.1,20.9292188 138.18,21.9292188 L143.28,21.9292188 C143.16,20.0492188 142.76,18.4792188 142.08,17.2192187 C141.4,15.9592188 140.49,14.9592188 139.35,14.2192187 C138.21,13.4792188 136.9,12.9592188 135.42,12.6592188 C133.94,12.3592188 132.32,12.2092187 130.56,12.2092187 C129.2,12.2092187 127.83,12.3792187 126.45,12.7192187 C125.07,13.0592187 123.83,13.5792187 122.73,14.2792187 C121.63,14.9792188 120.73,15.8892188 120.03,17.0092187 C119.33,18.1292187 118.98,19.4692187 118.98,21.0292187 C118.98,23.0292187 119.48,24.5892187 120.48,25.7092187 C121.48,26.8292188 122.73,27.6992188 124.23,28.3192187 C125.73,28.9392187 127.36,29.4192187 129.12,29.7592187 C130.88,30.0992187 132.51,30.4792187 134.01,30.8992188 C135.51,31.3192187 136.76,31.8692187 137.76,32.5492187 C138.76,33.2292187 139.26,34.2292187 139.26,35.5492187 C139.26,36.5092187 139.02,37.2992187 138.54,37.9192188 C138.06,38.5392188 137.45,39.0092188 136.71,39.3292188 C135.97,39.6492187 135.16,39.8692187 134.28,39.9892187 C133.4,40.1092188 132.56,40.1692188 131.76,40.1692188 C130.72,40.1692188 129.71,40.0692188 128.73,39.8692188 C127.75,39.6692187 126.87,39.3392187 126.09,38.8792188 C125.31,38.4192188 124.68,37.7992187 124.2,37.0192187 C123.72,36.2392188 123.46,35.2892188 123.42,34.1692188 L118.32,34.1692188 C118.4,36.0892187 118.8,37.7192187 119.52,39.0592187 C120.24,40.3992187 121.2,41.4792187 122.4,42.2992187 C123.6,43.1192187 124.98,43.7092187 126.54,44.0692187 C128.1,44.4292188 129.74,44.6092188 131.46,44.6092188 Z" id="Fonts" fill="#17233D"></path>
            <path d="M698.277031,43.9492188 L698.277031,24.3789062 L719.400078,24.3789062 L719.400078,19.2519531 L698.277031,19.2519531 L698.277031,6.18554688 L722.300469,6.18554688 L722.300469,0.912109375 L692.446953,0.912109375 L692.446953,43.9492188 L698.277031,43.9492188 Z M739.790703,45.0917969 C744.966484,45.0917969 748.784844,43.4414062 751.245781,40.140625 C753.706719,36.8398438 754.937187,32.6601562 754.937187,27.6015625 C754.937187,22.3671875 753.540703,18.4023438 750.747734,15.7070312 C747.954766,13.0117188 744.536797,11.6640625 740.493828,11.6640625 C735.982109,11.6640625 732.388359,13.2265625 729.712578,16.3515625 C727.036797,19.4765625 725.698906,23.6757812 725.698906,28.9492188 C725.698906,33.8710938 726.968437,37.7919922 729.5075,40.7119141 C732.046562,43.6318359 735.474297,45.0917969 739.790703,45.0917969 Z M740.28875,40.5507812 C737.105156,40.5507812 734.780937,39.4375 733.316094,37.2109375 C731.85125,34.984375 731.118828,32.2011719 731.118828,28.8613281 C731.118828,25.3847656 731.85125,22.4160156 733.316094,19.9550781 C734.780937,17.4941406 737.124687,16.2636719 740.347344,16.2636719 C743.980156,16.2636719 746.53875,17.7089844 748.023125,20.5996094 C748.960625,22.4355469 749.429375,24.8183594 749.429375,27.7480469 C749.429375,30.9902344 748.779961,33.9345703 747.481133,36.5810547 C746.182305,39.2275391 743.784844,40.5507812 740.28875,40.5507812 Z M766.480156,43.9492188 L766.480156,27.5136719 C766.480156,25.4628906 766.611992,23.8857422 766.875664,22.7822266 C767.139336,21.6787109 767.710625,20.609375 768.589531,19.5742188 C769.683281,18.2851562 770.952812,17.4257812 772.398125,16.9960938 C773.198906,16.7421875 774.224297,16.6152344 775.474297,16.6152344 C777.935234,16.6152344 779.634453,17.5917969 780.571953,19.5449219 C781.138359,20.7167969 781.421562,22.2597656 781.421562,24.1738281 L781.421562,24.1738281 L781.421562,43.9492188 L786.782891,43.9492188 L786.782891,23.8222656 C786.782891,20.6582031 786.353203,18.2265625 785.493828,16.5273438 C783.931328,13.421875 780.923516,11.8691406 776.470391,11.8691406 C774.439141,11.8691406 772.593437,12.2695312 770.933281,13.0703125 C769.273125,13.8710938 767.700859,15.1894531 766.216484,17.0253906 L766.216484,17.0253906 L766.216484,12.5722656 L761.206719,12.5722656 L761.206719,43.9492188 L766.480156,43.9492188 Z M801.958672,44.4472656 C802.720391,44.4472656 803.428398,44.4082031 804.082695,44.3300781 C804.736992,44.2519531 805.366875,44.125 805.972344,43.9492188 L805.972344,43.9492188 L805.972344,39.7890625 C805.581719,39.828125 805.239922,39.8525391 804.946953,39.8623047 C804.653984,39.8720703 804.380547,39.8769531 804.126641,39.8769531 C803.169609,39.8769531 802.486016,39.7695312 802.075859,39.5546875 C801.333672,39.1835938 800.962578,38.4511719 800.962578,37.3574219 L800.962578,37.3574219 L800.962578,16.8789062 L805.972344,16.8789062 L805.972344,12.5722656 L800.962578,12.5722656 L800.962578,3.8125 L795.630547,3.8125 L795.630547,12.5722656 L791.3825,12.5722656 L791.3825,16.8789062 L795.630547,16.8789062 L795.630547,37.6503906 C795.630547,39.6621094 796.07,41.2978516 796.948906,42.5576172 C797.827812,43.8173828 799.497734,44.4472656 801.958672,44.4472656 Z M822.349297,45.1503906 C826.685234,45.1503906 829.912773,44.1347656 832.031914,42.1035156 C834.151055,40.0722656 835.210625,37.6601562 835.210625,34.8671875 C835.210625,31.9765625 834.185234,29.8574219 832.134453,28.5097656 C830.845391,27.6503906 828.306328,26.7617188 824.517266,25.84375 L824.517266,25.84375 L821.030937,24.9941406 C819.5075,24.6230469 818.355156,24.1933594 817.573906,23.7050781 C816.22625,22.8847656 815.552422,21.7910156 815.552422,20.4238281 C815.552422,19.1738281 816.065117,18.1679688 817.090508,17.40625 C818.115898,16.6445312 819.624687,16.2636719 821.616875,16.2636719 C824.605156,16.2636719 826.704766,16.9570312 827.915703,18.34375 C828.657891,19.3203125 829.077812,20.4042969 829.175469,21.5957031 L829.175469,21.5957031 L834.155937,21.5957031 C834.195,19.5644531 833.560234,17.6699219 832.251641,15.9121094 C830.161797,13.1386719 826.753594,11.7519531 822.027031,11.7519531 C818.41375,11.7519531 815.537773,12.6699219 813.399102,14.5058594 C811.26043,16.3417969 810.191094,18.7441406 810.191094,21.7128906 C810.191094,24.2324219 811.323906,26.2050781 813.589531,27.6308594 C814.859062,28.4511719 816.831719,29.1933594 819.5075,29.8574219 L819.5075,29.8574219 L823.696953,30.9121094 C825.943047,31.4785156 827.446953,31.9765625 828.208672,32.40625 C829.400078,33.109375 829.995781,34.1347656 829.995781,35.4824219 C829.995781,37.2597656 829.253594,38.5732422 827.769219,39.4228516 C826.284844,40.2724609 824.566094,40.6972656 822.612969,40.6972656 C819.331719,40.6972656 817.027031,39.8476562 815.698906,38.1484375 C814.97625,37.2109375 814.536797,35.8632812 814.380547,34.1054688 L814.380547,34.1054688 L809.312187,34.1054688 C809.448906,37.2304688 810.488945,39.8525391 812.432305,41.9716797 C814.375664,44.0908203 817.681328,45.1503906 822.349297,45.1503906 Z" id="Fonts" fill="#17233D"></path>
            <path d="M1351.92547,42.9492188 L1351.92547,23.4375 L1372.08172,23.4375 L1372.08172,18.3691406 L1351.92547,18.3691406 L1351.92547,5.06835938 L1375.21648,5.06835938 L1375.21648,0 L1346.24187,0 L1346.24187,42.9492188 L1351.92547,42.9492188 Z M1394.55242,43.6523438 C1397.26727,43.6523438 1399.77215,43.0175781 1402.06707,41.7480469 C1404.36199,40.4785156 1406.11004,38.6962891 1407.31121,36.4013672 C1408.51238,34.1064453 1409.11297,30.9570312 1409.11297,26.953125 C1409.11297,22.0117188 1407.75555,18.1396484 1405.0407,15.3369141 C1402.32586,12.5341797 1398.82977,11.1328125 1394.55242,11.1328125 C1390.70477,11.1328125 1387.44305,12.2851562 1384.76727,14.5898438 C1381.56414,17.3632812 1379.96258,21.6308594 1379.96258,27.3925781 C1379.96258,32.6464844 1381.30535,36.6699219 1383.9909,39.4628906 C1386.67645,42.2558594 1390.19695,43.6523438 1394.55242,43.6523438 Z M1394.55242,39.3164062 C1391.9157,39.3164062 1389.7282,38.3251953 1387.98992,36.3427734 C1386.25164,34.3603516 1385.3825,31.3769531 1385.3825,27.3925781 C1385.3825,23.4082031 1386.25164,20.4296875 1387.98992,18.4570312 C1389.7282,16.484375 1391.9157,15.4980469 1394.55242,15.4980469 C1397.15008,15.4980469 1399.32293,16.4892578 1401.07098,18.4716797 C1402.81902,20.4541016 1403.69305,23.3691406 1403.69305,27.2167969 C1403.69305,31.2988281 1402.82391,34.3359375 1401.08562,36.328125 C1399.34734,38.3203125 1397.16961,39.3164062 1394.55242,39.3164062 Z M1420.56805,42.9492188 L1420.56805,25.9570312 C1420.56805,21.9726562 1421.38348,19.2675781 1423.01434,17.8417969 C1424.6452,16.4160156 1426.58367,15.703125 1428.82977,15.703125 C1430.23602,15.703125 1431.4616,16.0205078 1432.50652,16.6552734 C1433.55145,17.2900391 1434.27898,18.1396484 1434.68914,19.2041016 C1435.0993,20.2685547 1435.30437,21.875 1435.30437,24.0234375 L1435.30437,24.0234375 L1435.30437,42.9492188 L1440.57781,42.9492188 L1440.57781,23.8183594 C1440.57781,21.3769531 1440.48016,19.6679688 1440.28484,18.6914062 C1439.97234,17.1875 1439.42547,15.8886719 1438.64422,14.7949219 C1437.86297,13.7011719 1436.68621,12.8173828 1435.11395,12.1435547 C1433.54168,11.4697266 1431.81805,11.1328125 1429.94305,11.1328125 C1425.62664,11.1328125 1422.32586,12.8417969 1420.0407,16.2597656 L1420.0407,16.2597656 L1420.0407,11.8359375 L1415.29461,11.8359375 L1415.29461,42.9492188 L1420.56805,42.9492188 Z M1456.95477,43.359375 C1458.12664,43.359375 1459.45477,43.203125 1460.93914,42.890625 L1460.93914,42.890625 L1460.17742,38.2324219 C1459.22039,38.3691406 1458.44891,38.4375 1457.86297,38.4375 C1457.08172,38.4375 1456.48113,38.3105469 1456.06121,38.0566406 C1455.64129,37.8027344 1455.33855,37.4609375 1455.15301,37.03125 C1454.96746,36.6015625 1454.87469,35.6347656 1454.87469,34.1308594 L1454.87469,34.1308594 L1454.87469,15.9375 L1460.17742,15.9375 L1460.17742,11.8359375 L1454.87469,11.8359375 L1454.87469,0.966796875 L1449.63055,4.13085938 L1449.63055,11.8359375 L1445.76336,11.8359375 L1445.76336,15.9375 L1449.63055,15.9375 L1449.63055,33.8378906 C1449.63055,37.0019531 1449.84539,39.0771484 1450.27508,40.0634766 C1450.70477,41.0498047 1451.44695,41.8457031 1452.50164,42.4511719 C1453.55633,43.0566406 1455.0407,43.359375 1456.95477,43.359375 Z M1476.52508,43.6523438 C1478.96648,43.6523438 1481.15398,43.2275391 1483.08758,42.3779297 C1485.02117,41.5283203 1486.50066,40.3271484 1487.52605,38.7744141 C1488.55145,37.2216797 1489.06414,35.5664062 1489.06414,33.8085938 C1489.06414,32.0117188 1488.64422,30.5078125 1487.80437,29.296875 C1486.96453,28.0859375 1485.8073,27.1630859 1484.3327,26.5283203 C1482.85809,25.8935547 1480.25555,25.078125 1476.52508,24.0820312 C1473.94695,23.3789062 1472.39422,22.9296875 1471.86687,22.734375 C1470.94891,22.3632812 1470.27508,21.8945312 1469.84539,21.328125 C1469.4157,20.78125 1469.20086,20.1660156 1469.20086,19.4824219 C1469.20086,18.4082031 1469.71844,17.4707031 1470.75359,16.6699219 C1471.78875,15.8691406 1473.51727,15.46875 1475.93914,15.46875 C1477.98992,15.46875 1479.57684,15.9179688 1480.69988,16.8164062 C1481.82293,17.7148438 1482.50164,18.9648438 1482.73602,20.5664062 L1482.73602,20.5664062 L1487.89227,19.8632812 C1487.56023,17.8515625 1486.95477,16.2451172 1486.07586,15.0439453 C1485.19695,13.8427734 1483.83465,12.890625 1481.98895,12.1875 C1480.14324,11.484375 1477.99969,11.1328125 1475.55828,11.1328125 C1473.93719,11.1328125 1472.41863,11.3427734 1471.00262,11.7626953 C1469.5866,12.1826172 1468.46844,12.6953125 1467.64812,13.3007812 C1466.55437,14.0820312 1465.69012,15.0634766 1465.05535,16.2451172 C1464.42059,17.4267578 1464.1032,18.7109375 1464.1032,20.0976562 C1464.1032,21.6210938 1464.48895,23.0126953 1465.26043,24.2724609 C1466.03191,25.5322266 1467.16473,26.5185547 1468.65887,27.2314453 C1470.15301,27.9443359 1472.83367,28.7890625 1476.70086,29.765625 C1479.57195,30.4882812 1481.36883,31.0839844 1482.09148,31.5527344 C1483.12664,32.2363281 1483.64422,33.1738281 1483.64422,34.3652344 C1483.64422,35.6933594 1483.05828,36.8505859 1481.88641,37.8369141 C1480.71453,38.8232422 1478.91766,39.3164062 1476.49578,39.3164062 C1474.09344,39.3164062 1472.22332,38.7597656 1470.88543,37.6464844 C1469.54754,36.5332031 1468.73211,34.9316406 1468.43914,32.8417969 L1468.43914,32.8417969 L1463.2243,33.6621094 C1463.81023,36.9628906 1465.16277,39.453125 1467.28191,41.1328125 C1469.40105,42.8125 1472.48211,43.6523438 1476.52508,43.6523438 Z" id="Fonts" fill="#17233D"></path>
        </g>
    </g>
</svg>