<?xml version="1.0" encoding="UTF-8"?>
<svg width="162px" height="134px" viewBox="0 0 162 134" version="1.1" xmlns="http://www.w3.org/2000/svg" xmlns:xlink="http://www.w3.org/1999/xlink">
    <!-- Generator: Sketch 63 (92445) - https://sketch.com -->
    <title>编组 30</title>
    <desc>Created with Sketch.</desc>
    <g id="页面-1" stroke="none" stroke-width="1" fill="none" fill-rule="evenodd">
        <g id="编组-30" transform="translate(-0.000500, -0.027800)">
            <polygon id="Clip-2" points="63.8949 0.0278 117.8389 0.0278 117.8389 1 63.8949 1"></polygon>
            <path d="M115.4439,0.028 L66.2899,0.028 C65.4829,0.325 64.6879,0.647 63.8949,0.972 L117.8389,0.972 C117.0459,0.647 116.2509,0.325 115.4439,0.028" id="Fill-1" fill="#FFFFFF"></path>
            <polygon id="Clip-4" points="63.8946 132.6746 117.8376 132.6746 117.8376 133.6468 63.8946 133.6468"></polygon>
            <path d="M66.2906,133.6466 L115.4426,133.6466 C116.2496,133.3496 117.0446,133.0276 117.8376,132.7026 L63.8946,132.7026 C64.6886,133.0276 65.4826,133.3496 66.2906,133.6466" id="Fill-3" fill="#FFFFFF"></path>
            <path d="M92.1871,120.6037 L55.2221,122.4967 L46.5401,122.4967 C46.7151,122.6377 46.8941,122.7747 47.0711,122.9147 L46.1021,122.9637 L47.2061,123.0207 C47.3841,123.1607 47.5611,123.3037 47.7421,123.4407 L55.4221,123.4407 L92.1871,125.3237 C92.2721,125.3287 92.3611,125.3287 92.4491,125.3237 C93.5421,125.2627 94.4121,124.4647 94.6241,123.4407 L133.9921,123.4407 C134.3971,123.1317 134.7951,122.8147 135.1941,122.4967 L94.6251,122.4967 C94.3961,121.3637 93.3741,120.5377 92.1871,120.6037" id="Fill-5" fill="#FFFFFF"></path>
            <polygon id="Clip-8" points="0.0005 109.930673 145.626 109.930673 145.626 115.5963 0.0005 115.5963"></polygon>
            <path d="M98.188,109.9318 L1.224,112.4198 L1.13686838e-13,113.2088 L98.188,115.5948 C98.237,115.5968 98.295,115.5968 98.345,115.5948 C99.721,115.5568 100.838,114.5438 101.058,113.2358 L144.808,113.2358 C145.08,112.9198 145.36,112.6118 145.626,112.2908 L101.047,112.2908 C100.816,110.9208 99.617,109.8918 98.188,109.9318" id="Fill-7" fill="#FFFFFF"></path>
            <path d="M104.6158,99.4587 L19.8628,102.0867 L17.8958,102.9747 L104.6158,105.6447 C104.6818,105.6467 104.7578,105.6467 104.8258,105.6447 C106.3348,105.5937 107.5518,104.4687 107.7748,103.0297 L152.1418,103.0297 C152.3268,102.7177 152.5048,102.4007 152.6848,102.0847 L107.7648,102.0847 C107.5318,100.5557 106.1998,99.4047 104.6158,99.4587" id="Fill-9" fill="#FFFFFF"></path>
            <path d="M125.2369,89.2521 L39.8559,91.8801 L24.2409,91.8801 C24.3599,92.1961 24.4899,92.5081 24.6129,92.8241 L39.8559,92.8241 L125.2369,95.4381 C125.3019,95.4401 125.3769,95.4401 125.4439,95.4381 C126.9529,95.3881 128.1709,94.2631 128.3939,92.8241 L157.1199,92.8241 C157.2439,92.5081 157.3729,92.1961 157.4929,91.8801 L128.3839,91.8801 C128.1509,90.3501 126.8209,89.1991 125.2369,89.2521" id="Fill-11" fill="#FFFFFF"></path>
            <path d="M125.2193,79.0456 L53.4263,81.6736 L21.2563,81.6736 C21.3233,81.9906 21.4033,82.3036 21.4753,82.6186 L53.4263,82.6186 L125.2193,85.2326 C125.2963,85.2346 125.3813,85.2346 125.4593,85.2326 C126.9633,85.1746 128.1723,84.0516 128.3963,82.6186 L160.2583,82.6186 C160.3293,82.3036 160.4093,81.9906 160.4763,81.6736 L128.3843,81.6736 C128.1503,80.1376 126.8093,78.9836 125.2193,79.0456" id="Fill-13" fill="#FFFFFF"></path>
            <path d="M130.6109,68.8395 L64.3699,71.4675 L19.8629,71.4675 C19.8829,71.7845 19.9109,72.0975 19.9349,72.4125 L64.3699,72.4125 L130.6109,75.0265 C130.6919,75.0285 130.7809,75.0295 130.8639,75.0265 C132.3649,74.9645 133.5709,73.8425 133.7949,72.4125 L161.7979,72.4125 C161.8229,72.0975 161.8499,71.7845 161.8699,71.4675 L133.7819,71.4675 C133.5479,69.9285 132.2029,68.7745 130.6109,68.8395" id="Fill-15" fill="#FFFFFF"></path>
            <path d="M138.0162,64.8195 C138.0962,64.8225 138.1832,64.8225 138.2642,64.8195 C139.7662,64.7595 140.9732,63.6385 141.1972,62.2065 L161.8702,62.2065 C161.8502,61.8905 161.8232,61.5765 161.7982,61.2625 L141.1852,61.2625 C140.9522,59.7235 139.6082,58.5695 138.0162,58.6325 L72.8752,61.2625 L19.9352,61.2625 C19.9112,61.5765 19.8832,61.8905 19.8632,62.2065 L72.8752,62.2065 L138.0162,64.8195 Z" id="Fill-17" fill="#FFFFFF"></path>
            <path d="M130.5816,54.6139 C130.6826,54.6179 130.7876,54.6189 130.8906,54.6139 C132.3816,54.5389 133.5736,53.4209 133.7956,52.0009 L160.4776,52.0009 C160.4096,51.6839 160.3296,51.3719 160.2586,51.0569 L133.7816,51.0569 C133.5466,49.5049 132.1836,48.3469 130.5816,48.4269 L79.2526,51.0569 L21.4746,51.0569 C21.4026,51.3719 21.3236,51.6839 21.2566,52.0009 L79.2526,52.0009 L130.5816,54.6139 Z" id="Fill-19" fill="#FFFFFF"></path>
            <path d="M125.1451,44.4074 C125.2641,44.4134 125.4041,44.4144 125.5271,44.4074 C127.0051,44.3164 128.1731,43.2004 128.3941,41.7954 L157.4931,41.7954 C157.3741,41.4774 157.2441,41.1664 157.1201,40.8504 L128.3841,40.8504 C128.1461,39.2814 126.7591,38.1214 125.1451,38.2204 L84.5331,40.8504 L24.6131,40.8504 C24.4901,41.1664 24.3601,41.4774 24.2411,41.7954 L84.5331,41.7954 L125.1451,44.4074 Z" id="Fill-21" fill="#FFFFFF"></path>
            <path d="M125.4048,33.9396 C125.5118,33.9456 125.6238,33.9466 125.7338,33.9396 C127.0768,33.8616 128.1398,32.8596 128.3588,31.5896 L152.6848,31.5896 C152.5058,31.2746 152.3268,30.9576 152.1418,30.6456 L128.3528,30.6456 C128.1198,29.2326 126.8658,28.1906 125.4048,28.2756 L88.4918,30.6456 L29.5918,30.6456 C29.4058,30.9576 29.2278,31.2746 29.0488,31.5896 L88.4918,31.5896 L125.4048,33.9396 Z" id="Fill-23" fill="#FFFFFF"></path>
            <path d="M124.15,23.2614 C124.237,23.2664 124.327,23.2664 124.416,23.2614 C125.506,23.2004 126.374,22.4054 126.588,21.3834 L145.627,21.3834 C145.36,21.0634 145.08,20.7554 144.808,20.4394 L126.591,20.4394 C126.364,19.3034 125.34,18.4744 124.15,18.5414 L91.502,20.4394 L36.925,20.4394 C36.654,20.7554 36.374,21.0634 36.107,21.3834 L91.502,21.3834 L124.15,23.2614 Z" id="Fill-25" fill="#FFFFFF"></path>
            <path d="M118.1861,12.5837 C118.2501,12.5867 118.3191,12.5867 118.3851,12.5837 C119.2261,12.5397 119.9001,11.9497 120.1051,11.1787 L135.1941,11.1787 C134.7951,10.8597 134.3971,10.5427 133.9931,10.2337 L120.1181,10.2337 C119.9021,9.3747 119.1041,8.7597 118.1861,8.8077 L93.5631,10.2337 L47.7411,10.2337 C47.3351,10.5427 46.9371,10.8597 46.5401,11.1787 L93.5631,11.1787 L118.1861,12.5837 Z" id="Fill-27" fill="#FFFFFF"></path>
        </g>
    </g>
</svg>