<?xml version="1.0" encoding="UTF-8"?>
<svg width="44px" height="44px" viewBox="0 0 44 44" version="1.1" xmlns="http://www.w3.org/2000/svg" xmlns:xlink="http://www.w3.org/1999/xlink">
    <!-- Generator: Sketch 63 (92445) - https://sketch.com -->
    <title>头 像 </title>
    <desc>Created with Sketch.</desc>
    <g id="数据开发" stroke="none" stroke-width="1" fill="none" fill-rule="evenodd">
        <g id="头-像-" fill-rule="nonzero">
            <path d="M22.2180923,43.0564595 L22.2180913,43.0564595 C33.7270696,43.0564595 43.0569711,33.7265549 43.0569711,22.2175766 C43.0569711,10.7085984 33.7270696,1.37869692 22.2180913,1.37869692 C10.7091131,1.37869692 1.37921159,10.7085984 1.37921159,22.2175766 C1.37921159,22.2176769 1.37921159,22.2177772 1.37921159,22.2178774 L1.37921159,22.2165915 C1.37921159,33.725226 10.7081678,43.0552134 22.2168022,43.0564595 L22.2180923,43.0564595 Z" id="路径" fill="#FFFFFF"></path>
            <path d="M22.0000256,44.0000512 L22.0000246,44.0000512 C9.84973706,44.0000512 -9.61650336e-07,34.1503132 -9.61650336e-07,22.0000256 C-9.61650336e-07,9.84973802 9.84973706,-2.13162821e-14 22.0000246,-2.13162821e-14 C34.1503122,-2.13162821e-14 44.0000502,9.84973802 44.0000502,22.0000256 L44.0000502,22.0000256 C44.0000502,34.1503132 34.1503122,44.0000512 22.0000246,44.0000512 C22.0000246,44.0000512 22.0000246,44.0000512 22.0000246,44.0000512 L22.0000256,44.0000512 Z M22.0000256,41.8495487 L22.0000247,41.8495487 C32.9626117,41.8495487 41.8495478,32.9626126 41.8495478,22.0000256 C41.8495478,11.0374386 32.9626117,2.1505025 22.0000247,2.1505025 C11.0374378,2.1505025 2.15050163,11.0374386 2.15050163,22.0000256 L2.15050163,22.0003672 C2.15050163,32.9627823 11.0372659,41.8495487 21.999681,41.8495487 C21.9999104,41.8495487 22.0001399,41.8495487 22.0003694,41.8495487 L22.0000256,41.8495487 Z" id="形状" fill="#B4B9CE"></path>
            <path d="M6.6889531,35.3261974 C8.19079859,31.2620364 13.1133043,26.314308 17.5417978,26.314308 L26.458898,26.314308 C30.8886805,26.314308 35.4019084,31.7764589 36.9037539,35.8422097 C33.1789605,39.6802688 27.3360201,42.7583388 22.0003694,42.7512184 C16.6646756,42.7583388 10.4137895,39.1655456 6.6889531,35.3274864 L6.6889531,35.3261974 Z M22.0003694,24.3243447 L22.0003692,24.3243447 C17.6016532,24.3453715 14.0186568,20.7966199 13.9974224,16.3978824 C13.9763956,11.9991663 17.5251472,8.41616995 21.9238847,8.39493551 C26.3226008,8.37390876 29.9055972,11.9226604 29.9268516,16.3213979 C29.9268516,16.334129 29.9268516,16.3468601 29.9268516,16.3595913 L29.9268516,16.359687 C29.9369935,20.7479187 26.3881472,24.3136416 21.9999456,24.3243447 L22.0003694,24.3243447 Z" id="形状" fill="#B4B9CE"></path>
        </g>
    </g>
</svg>